<svg viewBox="0 0 612.76971 898.10779" xmlns="http://www.w3.org/2000/svg">
 <g transform="translate(-57.668 -89.798)">
  <path d="m172.14 132.36c12.857-20 9.2857-28.571 31.429-30.714s26.429-0.71429 32.143-4.2857 20.714-1.4286 23.571-1.4286 19.286 0 24.286 2.8571 12.143 12.143 15.714 12.857 20.714 2.1428 25.714 7.1428 14.286 27.143 15 33.571 1.4286 34.286 1.4286 34.286 20 15.714 23.571 25 18.571 30.714 16.429 34.286-10 6.4286-10 6.4286-0.71428 6.4286 2.8571 6.4286 13.571 5.7143 17.143 15.714-2.8571 33.571-2.8571 33.571l-9.2857 5.7143s5.7143-8.5714 5.7143-16.429-5-15.714-7.8571-18.571-8.5714-4.2857-8.5714-4.2857 10 25.714 10 32.143 3.7713 17.394 3.2662 23.203-2.5254 12.627-3.283 14.142-4.0406 6.8185-4.0406 6.8185-2.0203 1.5152-2.0203 3.283 0.50508 6.0609 0.50508 6.0609 0 2.7779-0.25254 4.7982-2.0203 9.5964-1.5152 13.132 0.75762 20.203-0.25254 29.294-8.3338 32.83-10.102 37.881-6.566 20.961-7.0711 22.728-1.7678 5.3033-1.7678 5.3033l13.385 5.5558s1.5152-2.7779 2.7779-4.0406 4.0406-2.5254 6.8185-2.0203 7.8287 4.7982 9.3439 5.8084 6.3135 5.5558 6.3135 7.3236 1.2627 5.8084 1.2627 5.8084l9.3439 4.0406s-1.7678-8.3338-0.50508-11.617 4.0406-6.8185 4.0406-6.8185l6.0609-0.50508s3.283 1.7678 5.5558 5.3033l4.5457 7.0711s1.5152 2.2728 5.5558 9.0914 6.0609 12.122 6.0609 12.122l82.327 38.386s-0.75761 3.0305 0.75761 3.0305 2.7779-2.2728 3.7881-1.5152 2.7779 3.5355 2.7779 3.5355l3.283-1.5152 139.4 66.165-0.25253 11.112-231.83-111.87s1.0102 6.3134 1.7678 9.3439 1.7678 6.8185 1.7678 8.5863-0.75761 4.5457-0.75761 4.5457 4.5457-3.0305 20.203 4.7982 33.588 20.708 39.143 25.506 11.112 14.395 12.627 17.678 15.405 32.072 18.688 46.467 5.5558 27.779 6.566 37.123-1.0102 26.517 0.25254 34.85 10.859 61.872 12.122 73.489 8.3338 53.286 6.566 64.65-3.7881 27.274-4.0406 31.062 1.5152 2.2728 1.2627 6.3134-1.2627 5.3033-1.0102 8.3338-1.0102 15.152-0.25254 17.425 2.7779 7.8287 2.5254 10.102-2.7779 6.0609-0.50508 8.3338 8.8388 6.8185 11.112 11.617 13.385 44.447 13.385 44.447h-444.21s-6.566-28.537-8.5863-35.355-10.607-35.608-13.385-48.487-9.3439-75.761-10.607-81.317-9.0914-34.85-13.89-50.003-12.122-30.305-14.647-46.467-6.8185-50.255-5.5558-59.599-0.50508-36.113 11.112-52.275 30.81-19.193 33.082-19.193 14.647-8.8388 15.91-9.0914 11.364-3.283 13.132-4.5457 15.91-15.405 18.94-16.668 8.0812-2.2728 11.617-1.7678 6.8185-1.2627 9.3439-1.2627 8.0812 0.25254 8.0812 0.25254 0.25254 4.2932 3.5355 2.0203 4.5457-2.2728 4.0406-5.3033-3.283-3.0304-3.0305-5.0508-2.0203-3.7881-2.0203-5.5558 2.0203-2.7779 2.5254-4.5457 0-3.5355-1.5152-6.0609-3.283-6.0609-2.0203-7.5761 6.0609-4.5457 6.0609-4.5457 1.2627 1.2627 1.5152-0.50508-0.25254-3.5355-2.7779-10.859-9.0914-26.769-10.354-32.072-2.7779-10.607-2.7779-10.607-0.50508 1.7678-3.0305 1.5152-7.0711-8.5863-7.0711-8.5863-2.2728 3.0305-2.0203 5.3033-0.50508 4.2932-0.50508 4.2932-2.0203-2.5254-2.2728-4.2932-0.50508-4.5457 0-6.8185 0-9.0914 0-10.102-2.5254-6.8185-2.5254-6.8185-1.5152-1.2627-2.2728 0-2.7779 2.0203-2.7779 2.0203 2.7779-4.7982-0.50507-5.8084-5.8084-0.50508-5.8084-0.50508l-0.50508-2.5254s-2.2728-2.7779-2.5254-3.7881 1.0102-3.283 2.0203-3.283 3.0305-3.0305 1.0102-4.2932-11.869-8.5863-14.647-13.637-5.3033-20.708-5.0508-23.739-3.5355-9.849-3.7881-13.132-1.2627-18.94 0-20.961 3.0305-3.0305 3.0305-3.0305-3.283-9.3439-3.5355-14.395 3.5355-12.122 3.7881-15.152-3.0305-7.5761-3.5355-9.849-1.2627-7.8287-0.50508-10.102 1.7678-6.3135 1.0102-8.3338-2.5254-4.5457-1.7678-6.566 2.2728-7.8287 2.2728-7.8287l2.2728-1.2627c2.2728-1.2627 2.7779-5.0508 0.50508-6.566s-8.3338-3.7881-8.8388-8.8388 1.7678-17.678 2.0203-20.456 1.5152-8.0812 2.0203-13.89 0-18.435 2.0203-24.496 4.7982-16.668 6.566-20.456 7.3236-10.607 9.5964-12.879 8.3338-6.3135 8.5863-8.3338 5.3033-8.5863 7.0711-9.849 2.0203 1.2627 5.0508-3.5355 9.0032-12.63 9.0032-12.63z" fill="#fff" stroke="#000"/>
  <path d="m196.06 108.78c-5 0.35715 0.37946 2.8795-11.406 3.5938-0.56592 0.0343-1.112 0.0798-1.6562 0.125-2.8076 4.7727-5.3093 11.266-10.844 19.875 0 0-6.0008 7.8268-9.0312 12.625s-3.2635 2.2686-5.0312 3.5312-6.81 7.8234-7.0625 9.8438-6.3209 6.0709-8.5938 8.3438-7.826 9.0869-9.5938 12.875-4.5422 14.377-6.5625 20.438-1.5262 18.692-2.0312 24.5-1.7787 11.128-2.0312 13.906-2.5051 15.387-2 20.438 6.5709 7.3285 8.8438 8.8438 1.7416 5.2998-0.53125 6.5625l-2.25 1.2812s-1.5236 5.7922-2.2812 7.8125 0.99239 4.5422 1.75 6.5625-0.24239 6.0709-1 8.3438-5e-3 7.8209 0.5 10.094 3.7838 6.8133 3.5312 9.8438-4.0338 10.105-3.7812 15.156c0.23317 4.6634 2.9444 12.688 3.375 13.938 4.8114-1.7867 7.4809-1.6658 11.625 0.40625 6.4286 3.2143 12.504 9.6562 13.219 12.156s3.2188 9.625 3.2188 9.625 4.9911-4.6295 6.0625-2.8438 3.5625 2.1295 6.0625 0.34375 4.6607-14.647 7.875-23.219 7.4821-13.571 12.125-20 6.067-9.9866 9.2812-12.844-3.558-2.5045-5.3438-0.71875-0.72322-2.1428 1.0625-5 7.5134-10.004 9.6562-13.219 4.2679-9.2946 4.625-11.438 1.0759-9.6429-1.7812-5-7.1339 16.085-11.062 19.656-10.366 6.7946-6.4375 1.4375 14.656-22.875 14.656-22.875 5.0045-6.7768 0.71875-3.5625-9.2902 12.871-13.219 14.656-2.8527-6.808 0.71875-8.5938 14.991-10.348 8.5625-8.5625-18.938 6.4375-18.938 6.4375 4.2946-5.3527 6.4375-6.7812 13.228-6.4375 7.1562-6.4375-9.6518-0.37053-6.4375-2.1562 9.6518-6.067 3.9375-4.2812-11.804 6.0893-12.875 2.875 0.35268-4.2902 6.7812-5.7188 16.071-2.5089 12.5-3.9375-12.839-1.0714-14.625-2.5-1.0714-5.3661 2.5-3.9375 6.4107 2.5089 9.625 3.9375 9.2812 4.6518 6.7812 1.4375-7.1339-7.1562-8.5625-12.156 5.3705-0.35267 7.1562 3.2188 7.4955 11.08 9.2812 11.438-0.0179-2.8616-2.875-8.2188-5.3438-8.942-5.3438-12.156-1.0625-2.125-1.0625 0.375-3.2143 1.4152-5-2.1562-10.737-5-6.0938-5 5.375-5.3393 7.875-2.125 4.6428 9.2812 5 4.2812 3.9286-10.004 5-5.7188 3.9196 13.196 3.5625 7.125 1.7902-11.067 3.2188-6.7812 3.5759 4.6518 3.2188 1.4375-2.1429-18.924-2.5-16.781-5.7188 6.7812-5.7188 6.7812l4.2812-11.062s-7.4866 0.33929-2.8438-5.375 3.933-8.2009 8.2188-10.344 3.9196 1.0714 11.062-5 13.201-7.5089 17.844-11.438 7.5089-1.7902 8.9375-5.7188-6.7723-4.6339-7.8438-8.5625-1.0938-8.9241-3.5938-9.2812-3.1964 0.35268-4.625 1.7812-4.3036 1.4152-5.375-2.1562-2.8527-8.567-6.7812-11.781-9.2902-10.696-13.219-12.125-3.5625 1.058-1.0625 2.8438 16.062 12.853 11.062 11.781-18.915-10.339-15.344-7.125c-0.58051-0.10267-1.3707-0.10266-2.5 0-7.8572 0.71428-14.29 1.433-15.719 0.71875s1.7812-2.875-5.7188-0.375-11.438 3.9375-11.438 3.9375 4.6518-3.5759 6.4375-5.7188 4e-3 -6.7768 5.7188-8.5625 13.562-8.2321 8.5625-7.875zm15.812 18.938c4.2052 3.8406 12.915 12.05 10.281 11.062-2.8572-1.0714-15.371-7.4911-12.156-3.5625 2.0745 2.5355 4.2756 4.478 5.6875 6.6875-0.29928-0.37829-1.0303-0.72901-2.4688-0.96875-6.4286-1.0714-12.853-2.5179-9.2812-2.875s3.567-3.567 1.7812-4.2812-1.4375-2.1428 1.0625-2.5c1.5625-0.22321 4.8043-2.2406 5.0938-3.5625zm4 14.469c0.68018 1.1327 1.1644 2.3475 1.2812 3.75 0.35714 4.2857-0.36608 5.7054 1.0625 11.062s1.433 9.9911-1.7812 6.0625-8.2143-9.2679-7.5-7.125 1.7723 8.5804-2.1562 6.4375-10.696-5.3661-9.625-1.4375 4.6205 12.134 1.4062 8.5625-7.8482-10.719-13.562-10.719-0.37053 2.4955 2.8438 4.2812 6.4286 6.0938 7.5 8.5938-2.8348 1.7723-6.4062 0.34375-6.7812-0.70536-4.2812 1.4375 0.35714 5.0045-2.5 5.7188-4.6652 1.0491-1.0938 6.4062 8.9375 15.004 8.9375 18.219-2.1518 8.5759-3.9375 3.2188-3.5759-6.7723-8.2188-10.344-1.7634-5.3616-1.4062-8.2188-1.067-2.5045-4.2812-5.7188-15.741-7.8661-11.812-8.9375 15.013-1.7679 9.6562-4.625-9.2723-6.0759-5.3438-5.7188 8.2054 0.7009 11.062 0.34375 6.4152-4.6384 0.34375-4.2812-7.4821 2.8661-9.625 1.4375-3.9286-4.6562 2.5-4.6562 20.362 0.72768 13.219-2.8438-14.656-1.4375-14.656-3.9375 1.0804-3.5536 6.4375-2.125 8.5625 1.4241 11.062 4.2812 4.2812 1.0536 4.2812-0.375 2.5134-1.0536 7.1562 0.375 11.42 5.3348 8.5625 1.4062-6.7812-7.4866-1.7812-5.3438 13.223 7.1295 8.9375 2.8438-6.4464-8.2098-2.875-6.7812c2.567 1.0268 6.8058-0.34311 6.5938-1.5938z"/>
  <path d="m270.03 97.156c-1.107-0.02302-1.9955 0.08482-2.5312 0.21875-1.4286 0.35714-1.7723 0.69643-2.8438 2.125s1.7812 0.71875 1.7812 0.71875 5.3571-3.558 2.5-0.34375-7.1429 7.8348-2.5 6.4062 8.2188-6.433 5.7188-3.2188-2.875 5.7411-0.375 4.3125 7.5089-5.7321 6.4375-2.875-0.0179 4.2946-2.875 6.4375-2.4955 1.7902-4.2812 3.2188 0 1.7679-2.5 2.125-3.9286-0.34375-5-2.8438-3.9107-4.6473-4.625-3.2188-2.5-1.0625-2.5-1.0625-0.64265-0.65598-1.5-1.2812c1.4226-2.2692 2.884-3.7885 3.4062-4.9375 0.63135-1.389 1.0127-5.5554-0.25-3.1562-1.0261 1.9496-3.464 5.7129-4.5 7.3125-0.71168-0.33428-1.4138-0.48351-1.9375-0.15625-0.15714-0.41016-0.24078-0.88984-0.125-1.4688 0.37881-1.894 0.51142-6.5554-0.625-4.1562-1.0056 2.1229-1.4372 6.8811-2.2188 9.0938-0.81297 0.62113-1.7108 1.1882-2.625 1.6875-0.31703-0.30881-0.44839-0.92709-0.21875-1.9375 0.63134-2.7779-0.49492-4.4223-1-5.9375s-2.155-1.7805-2.2812 1.25c-0.10991 2.6378 1.1169 5.9379 1.1875 7.75-0.88066 0.35994-1.6034 0.5625-1.9688 0.5625-1.4286 0-1.4375-3.2188-1.4375-3.2188s7e-3 -0.29749-0.21875-0.25c0.0888-2.8055-0.46875-5.8438-0.46875-5.8438s-2.9126 0.50587-2.2812 3.0312c0.34947 1.3979 0.52759 3.8839 0.46875 5.8125-3.2e-4 0.0104 3.3e-4 0.0209 0 0.0312-0.69043 0.9881-1.2054 1.2121-1.75 1-1.0156-1.8657-2.2111-4.8111-2.125-5.8438 0.12627-1.5152-4.6562-3.0312-4.6562-3.0312s0.99112 1.0046 1.875 3.6562c0.20956 0.62866 0.3027 1.2406 0.28125 1.7812-1.4947-0.7275-3.0166-0.91807-4.4688-0.96875-2.9656-2.8202-7.2298-6.5778-6.1562-5.5938 1.0782 0.98831 2.5814 3.4928 3.7812 5.5938-0.90251 0.0254-1.7567 0.0392-2.4688-0.0625-2.5-0.35714-7.8839-0.73214-4.3125 2.125s6.8125 7.8482 9.3125 11.062 4.2768 6.8036 6.0625 10.375 3.2188 5.3527 3.2188 1.7812-1.7991-8.2009 0.34375-5.3438 3.2277 7.4911 4.6562 3.5625 1.4062-7.5 1.4062-5 1.0938 10 1.0938 10 1.7723-7.1607 2.8438-10.375 4.2902-5 3.2188-2.5-1.0804 7.1696 1.0625 4.3125 5.7098-5.7188 4.2812-3.2188 1.0938 2.8438 1.0938 2.8438 3.2009-0.7009 0.34375 2.1562-5.3438 7.125-5.3438 7.125-3.2366 3.9241-1.0938 4.2812 8.5893-4.6205 7.875-1.4062-2.1607 5.692-0.375 8.9062 8.942 10.013 7.1562 7.1562-4.9866-11.067-2.8438-9.2812 0.33036 6.7723 3.1875 7.8438 0.38393-2.1295 1.8125-2.8438 1.4107 1.7902 4.625 3.2188 8.933 1.7902 10.719 0.71875 1.4286-0.36161 0 1.7812-3.5625 4.9866-6.0625 2.8438-6.7812-5.7143-6.7812-2.5-2.8839 4.2857-6.8125 2.5-0.70982-1.7679-4.2812 2.875-4.2857 6.4062-7.5 8.9062-6.433 8.2277-0.71875 4.6562 14.286-12.871 12.5-9.6562-0.34821 5.0178 1.4375 2.875 7.8616-6.7946 5.7188-3.9375-8.9152 9.2723-5.3438 7.8438 11.415-12.121 10.344-8.9062 1.4375 3.1964 3.9375 2.125 7.1429-1.7723 7.5-0.34375 4e-3 4.6429 3.2188 2.5 4.9732-3.9375 5.6875-1.4375 2.875 3.2098 5.375 1.7812 3.9375-1.4062 3.9375-1.4062 3.9062 6.0714 6.4062 5 2.5 3.9062 2.5 3.9062 4.6607 1.4286 5.375 0 4.2812-2.4777 1.7812 1.0938-1.067 6.0446 0.71875 5.6875 6.0491-2.1339 1.4062 1.4375-11.786 9.2857-10 5 4.6607-8.2143 0.375-7.5-4.9955 0.375-4.2812-2.125 1.067-8.9464-0.71875-5.375-6.7768 6.4375-6.0625 3.9375 0.70535-3.942-1.4375-2.1562-8.5625-0.71428-8.5625-2.5-0.0179-6.0759-2.875-0.71875-9.6428 6.433-7.5 3.2188-1.4375-10.714-3.9375-5-8.2098 8.933-6.7812 5.7188 0.35268-7.8438-3.2188-2.8438-11.058 8.2143-10.344 5-2.8571-4.6607-5-0.375-5.3661 8.9464-6.4375 5.375-0.34821-5.3705-1.0625 0.34375-2.1339 1.433-3.5625 10.719-2.8705 16.795 0.34375 13.938 6.0714-6.0893 5-0.375-2.4822 6.0848-2.125 12.156c0.21919 3.7262 0.70028 7.0273 1.375 9.7812-0.10672-0.16678-0.19829-0.33684-0.3125-0.5-2.5-3.5714-1.5127 2.1908-0.25 4.9688s0.48906 5.8041-1.5312 3.5312-4.7914-8.1056-3.7812-3.8125 4.2881 13.41 0.5 6.8438-10.349-19.702-9.8438-15.156 6.8125 13.875 6.8125 13.875-7.8277-8.8244-6.3125-4.5312 6.0879 10.606 3.5625 9.3438-5.0617-3.7906-2.0312 0.25 7.5846 5.0447 2.2812 6.8125-14.416 3.5287-10.375 3.7812 17.681-1.5178 12.125 0.25-22.486 4.5549-17.688 5.3125 15.683-2.0186 19.219-3.2812 22.47-6.8117 16.156-3.7812-8.0826 3.5396-15.406 5.8125-25.019 5.7863-16.938 5.2812 17.949-0.75841 23-3.0312 18.686-5.7855 12.625-2.25-8.07 4.032-16.656 7.0625-26.775 12.367-21.219 10.094 18.438-3.2871 21.469-5.8125 15.905-8.3193 12.875-4.5312-10.363 10.597-14.656 13.375-13.137 10.114-8.8438 8.0938 15.144-10.878 19.438-13.656 6.8471-8.5734 9.625-10.594 7.8041-3.7855 5.5312-0.25-1.5152 4.0363 0 3.5312 2.5271-0.4908-3.2812 4.8125-8.0717 9.3311-13.375 10.594-8.3184 4.0473-10.844 5.5625-8.3371 6.3066-2.7812 3.7812 11.111-3.2973 15.656-4.8125 11.089-3.782 14.625-6.8125 6.8269-10.611 2.2812-5.8125-8.3455 4.3117-5.0625 1.2812 9.8539-9.6141 8.8438-7.5938-1.4967 8.3531 1.2812 4.3125 14.122-16.683 11.344-10.875-7.0709 9.6182-9.3438 13.406-9.3353 12.609-7.0625 11.094 14.645-14.892 12.625-10.094 4.033 0.4881 0.75 4.7812-6.0633 7.3234-9.0938 9.3438-7.8134 9.8709-1.5 4.0625 16.175-14.138 17.438-15.906 2.5178-2.0406 0.75 2-0.26015 10.1 0.75 12.625 3.7812 0.52538 3.7812-2 2.5312-13.656 2.5312-13.656 0.49746-2.7644 0.75 1.7812-1.2365 7.3158 0.53125 10.094 5.5439 7.8269 4.2812 3.2812-1.7787-11.092-2.0312-14.375 2.0287-3.7957 2.2812 0.75 5.0582 8.0684 8.5938 10.594 14.383 1.5287 16.656 1.7812 4.0322-1.5236-2.2812-2.2812-13.891-3.0168-15.406-7.5625-2.0051-5.0666-1.5-10.875 0.23985-6.0582 1.25-9.5938 2.7787-4.7947 3.0312-6.5625-1.5084-5.3016-3.7812-3.2812-6.8285 4.2914-8.3438 3.2812-0.75333-5.0566-3.5312-2.5312-5.027 4.2965-8.5625 2.7812-1.282-4.5516-4.3125-2.5312-6.0524 0.77031-7.0625-1.25-3.5381-4.2889 0.25-3.5312 8.598 0.48398 5.0625-1.0312-5.8268-2.2576-10.625-1.5-9.326 1.7627-11.094 0.5 1.2482-0.26094 4.5312-2.2812 8.092-4.5414 11.375-3.5312 7.3024-0.24921 8.3125 2.7812 1.2871 4.3066 3.8125 1.7812 4.7736-2.0254 5.5312 0.5-0.74921 5.8041 2.2812 3.5312 4.5549-4.0516 5.3125-2.0312 2.766 3.7889 4.2812 3.0312 5.3049-2.7678 6.0625-1 4.56-0.25174 4.8125 3.0312 0.98985 8.8463 2 8.5938 3.5312-3.7998 3.5312-5.0625 0.51602-2.5203 2.0312-0.5 3.0371 1.2482 5.5625 4.5312 11.373 6.5641 14.656 12.625 6.3049 10.108 7.0625 14.906 4.0236 15.921 4.7812 11.375-2.2525-8.6055-2-13.656 2.0068-5.0295-1.7812-8.3125-5.7973-7.3395-7.3125-10.875-1.7805-7.5719 1.25-3.5312 10.623 12.137 13.906 17.188 3.527 3.2778 7.0625 9.8438 5.8074 9.353 6.3125 14.656 1.2762 10.845 1.7812 13.875 0.76016 9.0853-0.25 6.8125-2.0422-6.0684-4.0625-8.5938-5.2922-4.0152-7.3125-2.5-4.06 2.7627-4.3125 1.5 1.7881-4.2779-2-1.5-6.0709 1.4983-8.3438 4.7812-3.2889 3.0439-2.5312 1.7812 0.51523-5.3066-1-2.7812-4.0262 8.0853-4.5312 5.8125 1.2365-8.0955-0.53125-4.8125-6.56 6.826-6.8125 8.5938-0.26015 5.5625 0.75 5.5625 4.2998-6.3303 5.5625-4.5625 4.0447 5.3252 5.8125 4.0625 10.097-7.0726 12.875-6.0625 13.394 7.9e-4 14.656 3.0312 2.7762 7.3057 3.2812 11.094c0.25254 1.894-0.55743 4.8152-1.0625 7.6562 0.8823-1.4352 2.7436-4.4247 3.3438-5.625 0.75761-1.5152 2.7762-8.3479 3.2812-14.156 0.34791-4.0009-1.3263-10.43-2.4062-16.156l9.125-5.625s6.4464-23.562 2.875-33.562c-0.20735-0.58058-0.43933-1.1361-0.6875-1.6875-2.0873-2.1358-6.5468-6.6679-8.1562-7.875-2.0203-1.5152-10.869-5.0465-8.3438-3.5312s7.5938 6.5625 7.5938 6.5625-6.8379-4.7804-4.3125-1.75 10.103 8.5803 6.0625 6.8125-7.8066-4.8117-5.2812-1.7812 8.8219 7.8353 4.7812 5.5625-7.0734-4.5473-9.0938-6.0625 5.5619-1.2406-6.8125-5.2812-16.411-8.598-15.906-5.0625 3.2728 6.5541 1 4.2812-4.5338-5.0465-4.2812-3.5312 0.76523 1.7602-0.75 0.75-5.8125-2.7627-5.8125-1.5 3.0279 6.0617 0.25 3.0312-8.342-4.2947-11.625-6.0625-8.3168-4.2838-4.7812-4.0312 8.5608 1.9975 11.844 2.25 11.112 1.7703 9.3438-0.25 4.826-2.7838 6.5938-2.5312 1.5102-1.9924 0.5-2.75 0.73811-1.5439 5.0312-0.28125 8.0945 2.0287 11.125 2.2812c0.84795 0.0707 1.5906 0.13814 2.2188 0.125 0.38797-0.14855 0.98267-0.37738 2.0625-0.875 0.12752-0.31184 0.12151-0.70319 0-1.25-0.50508-2.2728-2.7543-2.2736 0.78125-3.0312 1.886-0.40414 3.3218 0.48673 4.8438 0.90625 0.75738-0.62927 1.3923-1.2996 1.8125-2 0.1798-0.29967 0.20096-0.74785 0.15625-1.2812l-0.5 0.0937s-1.0287 0.2408-1.2812-5.0625c-5e-3 -0.1055-0.0498-0.2808-0.0625-0.40625-3.7779-8.0843-12.188-20.965-14.75-27.625-1.0789-2.8051-3.677-6.1946-6.75-9.5625-3.4599 0.31804-7.0685 1.2201-10.5 2-5.5558 1.2627-12.628 4.7998-15.406 6.0625s-10.1 6.7947-12.625 8.5625-1.0195-2.5059 4.0312-5.0312 17.422-8.8311 18.938-10.094 0.0111-2.783-7.3125 0.5-14.158 7.3142-10.875 4.0312 11.618-10.105 15.406-12.125 8.0777 0.2711 6.5625 1.2812-2.0017 2.7754 1.2812 0.25c2.2571-1.7362 3.4268-2.4238 3.125-2.75-0.13718-0.14828-0.58582-0.20233-1.375-0.28125-2.5254-0.25254-3.2812-1.5312-3.2812-1.5312s0.42349-0.70846 0.90625-1.5625c-0.70661-0.6126-1.392-1.2058-2-1.7188-1.1833 0.72662-2.4955 1.6167-4.4375 3.2812-3.5355 3.0305-6.5819 3.2795-10.875 6.5625s-9.5879 7.5744-7.0625 3.2812 9.3361-12.115 10.094-13.125 1 0.51348 1 2.2812 2.2947-0.76856 4.0625-2.0312c1.0071-0.71934 2.7335-1.5929 4.4688-2.5l-0.9375-0.78125s-0.72321-27.853-1.4375-34.281c-0.54128-4.8715-6.0219-18.754-10.812-27.375-2.2105-1.4137-4.2732-2.5428-6.1875-3.5-3.5355-1.7678-5.5658-2.5076-8.3438-1.75s-4.2965 0.50841-2.7812 2.7812 6.8379 7.0625 4.3125 7.0625-5.5811 0.51015-6.8438-0.5-2-1.7846-2-4.5625 1.0094-4.7914-3.0312-3.7812-8.3412 1.5127-8.5938 0.25 2.033-3.7973-1.25-5.3125-2.5346-5.0279-5.3125-2.25-8.0836 3.0135-9.0938 4.7812-1.0219 2.7814-5.0625 2.7814-6.8125-0.25-6.8125-0.25 1.5219-0.75841 5.5625-3.0312 2.7897-3.5447 5.0625-5.3125 2.2508-3.5414 5.2812-2.5312 3.5582-0.75508 7.0938-0.25 3.0135 1.7736 4.7812 2.5312 3.5397 2.5178 5.8125 0.75c0.33042-0.25699 0.75108-0.46933 1.1875-0.6875-1.6068-0.22466-2.9693-0.41886-3.6875-0.5625-1.6256-0.32511-3.996-2.4441-6.5625-4.9062l-3.7812-0.8125c-2.5-1.0714-8.2277-6.0714-12.156-7.5-2.4554-0.89286-4.905-1.2429-6.75-1.2812zm12.406 109.03c1.4131-0.18274 3.3479 2.6928 2.9375 3.7188-0.50507 1.2627 0.23731 2.2678 1.5 0.5s-0.48984 2.7584-1.5 5.0312 3.0084-0.25079 5.2812-3.2812 1.2838-0.99667 1.0312 1.7812-2.5186 5.5608-3.7812 8.8438 1.011 4.0228 3.0312 1.75 4.5473-4.7914 6.0625-3.7812-2.2812 5.0625-2.2812 5.0625 3.2635-2.5371 5.0312-5.0625 3.7914 0.49826 2.7812 3.7812 2.5481-1.5041 7.0938-7.3125 0.73144 3.2947-0.53125 5.0625-1.0035 4.5482 5.5625-0.25-1.2584 4.2719-3.5312 8.3125 1.0117 0.51443 6.0625-4.0312 0.75507 3.2947 0.25 5.0625-2.0043 5.7906 1.5312 1.75 2.7602-0.74921 1.75 2.2812-6.0524 6.2973-7.0625 7.8125-4.549 1.0195-2.7812-4.0312-2.516 1.5109-4.0312 3.5312-2.2728-2.2541 0-8.0625-4.3108 3.7744-7.5938 7.5625-0.74159-4.0328 1.5312-10.094-3.5582 5.0531-7.0938 9.0938 7.9e-4 -6.0742 3.0312-11.125-5.0295 4.3057-8.3125 8.0938 0.75587-5.0692 3.2812-10.625-5.0658 5.0531-7.8438 9.0938 1.5135-8.0641 3.2812-14.125-5.7897 11.342-8.0625 14.625-2e-3 -7.8065 3.2812-14.625c0.80911-1.6805 1.3551-2.7677 1.7188-3.4062-0.25836 0.30911-0.58184 0.65391-0.96875 0.875-1.7678 1.0102-1.0152 0.50682 0.5-3.2812s0.51269-5.0676-0.75-4.5625-8.0785 12.889-9.5938 17.688-2.0152-3.0379-0.5-8.5938 1.261-8.5768 3.2812-13.375c0 0 1.2475 0.0102 1.5-1s0.75254-0.25683 0.5 3.5312 2.2998-1.2584 3.5625-3.5312c0.23675-0.42616 0.51766-0.64533 0.84375-0.6875zm86.125 68.312s5.7366 1.4241 8.5938 4.2812 7.8438 10.737 7.8438 18.594c0 7.5469-5.1462 15.551-5.5625 16.188-0.4765-2.5423-0.875-4.9368-0.875-6.9062 0-6.4286-10-32.156-10-32.156z"/>
  <path d="m291.43 332.54c-1.7857-4.4643-1.4286-5.3571-2.3214-7.3214s-3.3928-4.6428-5-6.25-6.9643-3.9286-5.5357-2.1428 4.2857 3.3928 4.6429 5-2.1429 0.53571-3.9286-0.71429-1.25-0.89286-3.0357-1.6071-4.4643-2.5-6.25-3.0357-4.2857-1.4286-3.75-0.35714 1.6071 2.3214-1.0714 0.53572-4.6429-3.2143-4.6429-1.9643 0.53572 3.0357-1.25 1.7857-1.7857-2.3214-5-3.0357-4.2857-1.0714-6.6071-1.4286-5.8929-0.17857-8.5714 1.7857-6.4286 2.3214-8.3928 4.1072-5.5357 3.3928-7.1429 4.8214-3.9286 3.3929-5.1786 5.5357-1.9643 5.1786-3.75 7.1429-2.8572 5.1786-2.8572 5.1786-0.17857-1.4286 2.3214-3.5714 3.3929-4.6429 4.8214-5.8929 2.5-1.9643 5.7143-3.9286 4.8214-4.4643 6.9643-5.7143 5.3572-2.6786 7.8572-2.5 4.4643-2.3214 6.25-1.25 5 3.75 6.0714 3.5714 2.1429-3.0357 3.2143-1.9643 2.3214 2.3214 3.75 2.6786 2.5-3.0357 3.5714-2.3214 0.17857 2.3214 3.9286 3.2143 6.6071 1.0714 6.6071 1.9643 1.7857 3.0357 3.0357 3.2143 4.4643-1.9643 5.1786-1.4286 2.6786 3.0357 2.6786 3.0357 2.5-3.2143 3.75-1.6071 0.17857 3.3928 1.6071 4.1071 2.3214 0.35714 2.3214 0.35714z"/>
  <path d="m256.69 342.28c-2.8795 0.0446-5.6116 0.34375-7.2188 0.96875-3.2143 1.25-8.5804 3.5804-10.188 5.1875s-3.0446 3.3973-3.9375 4.4688-0.34375 2.8438-1.5938 1.5938-1.6027-5.3571-1.7812-3.75 1.4375 5.9018 0.1875 5.1875-3.5714-4.6384-3.75-3.0312-0.73661 3.3839 1.4062 4.8125 3.4062 2.8438 3.4062 2.8438 0.16518 1.6071 0.34375 2.5 1.6295 1.7991 2.3438 0.90625 4.2589-2.6786 5.6875-3.75 4.1339-3.3928 4.3125-2.5-0.54911 4.2768 0.34375 6.0625 3.567 5.1741 4.2812 5.5312 4.1027 1.2545 5.5312 0.71875 4.6473-1.0714 5.7188-2.5 1.6161-3.7366 1.4375-5.3438-0.88393-1.9822-1.0625-0.375-0.0134 3.2188-2.1562 4.4688-0.7009 1.7991-4.0938 2.1562-3.5982 0.34821-5.5625-1.4375-2.8438-2.1295-2.8438-2.8438 0.87947-1.6072 1.5938-1.25 1.9688 1.0491 3.2188 1.4062 1.7991 0.35714 2.1562 1.25 1.4241 3.0402 1.7812 1.9688 1.2366-1.2455 1.5938-3.0312 1.625-4.0938 1.625-4.0938 1.2366-0.18304 1.5938 0.53125 1.0938 1.0804 1.0938 0.1875 0.89285-2.5045 0-3.2188-1.4509-2.1607 0.15625-1.625 4.6473 0.54465 5.7188 1.4375 5.0045 3.0268 5.7188 4.8125 2.5 4.4688 2.5 4.4688 0.53125-0.88839 0.53125-1.7812 0.89286-3.3795 1.25-1.5938 3.4062 2.3125 3.4062 2.3125-0.375-0.19196-1.625-2.1562-1.9688-3.7411-1.9688-4.8125 0.38393-1.9732 0.5625-2.6875-1.25 0-1.25 0-3.2277 0.54018-2.1562-0.53125 1.9509-2.3214 0.34375-1.25-1.25-0.875-1.25-0.875 0.20089-3.0536-1.4062-1.625-3.9375 2.1384-3.9375 0.53125 0.70536-5.5357-0.1875-3.75-2.1339 2.683-2.3125 1.9688-1.0714-4.4598-1.25-3.0312-1.4152 3.9196-1.5938 2.3125-1.8125-4.1027-1.8125-3.0312-0.35714 4.9955-1.25 3.0312-1.9464-5.183-2.125-3.2188-1.4464 4.6652-1.625 2.3438-0.16964-4.8393-1.0625-2.875-1.2411 3.5893-2.3125 2.875-1.067-4.2902-1.7812-1.9688-4.2812 1.25-4.2812 1.25l-0.71875 0.71875s1.6071 3.9152 0 2.8438-3.4062-1.4152-3.4062-0.34375v1.0625s-1.058 0.37054-1.5938-0.34375c-0.24057-0.32076-0.46528-0.88007-0.625-1.1875 2.2897-1.8242 4.6696-3.619 5.25-3.8125 1.0714-0.35714 7.1473-3.0536 10.719-2.875s5.0134-0.33928 8.4062 0.375 6.5848 4.0982 7.6562 4.8125 1.8125 0 1.8125 0c-2.6786-2.3214-5.3795-5.8884-9.8438-6.7812-2.2322-0.44643-5.2455-0.66964-8.125-0.625zm-16.062 9.0625c0.0101 0.19252 0.0268 0.375 0.0937 0.84375 0.35714 2.5-0.72321 3.5536-1.4375 3.375s-0.51786-2.3036-0.875 0.375-2.3214 2.6696-2.5 1.0625-0.71875-0.875 0.53125-2.125c0.55319-0.55319 2.3241-2.0417 4.1875-3.5312zm12.625 5.9688c0.30134-0.0502 0.48661 0.4509 2.0938 1.6562 0 0 0.18303 0.70089-0.53125 1.5938s-0.89286 0.19197-2.5-0.34375c-0.18839-0.0628-0.32535-0.0989-0.4375-0.125-0.0913 0.1644-0.13791 0.24493-0.1875 0.3125 0.17297 0.24638 0.46875 0.56182 0.46875 0.875 0 0.71429 0 1.2589-1.25 1.4375s-0.36608-1.2634-0.1875-2.1562 0.875 0 0.875 0l0.0937-0.15625c-0.17528-0.24967-0.23762-0.41153 0.1875-0.3125 0.18026-0.32462 0.38273-0.71907 0.28125-1.125-0.17857-0.71428-0.0268-0.90178 0.6875-1.4375 0.17857-0.13393 0.3058-0.20201 0.40625-0.21875z"/>
  <path d="m238.93 364.15c-1.0714 1.7857-4.2857 2.3214-3.0357 3.3928s2.3214-1.25 4.1071-0.17857 0.71429 2.1429 1.4286 2.8571 1.7857 0 4.1071 0.89286 3.0357 1.9643 4.8214 2.5 2.3214-1.0714 4.2857 0.17857 1.7857 0.35715 3.2143 1.7857 2.3214 0.35714 2.3214 0.35714 1.0714-1.25 2.1429-0.71429 2.3214-0.35714 2.3214-0.35714-1.4286-1.0714 1.0714-0.89286 4.4643-0.35714 5-1.0714 1.6071-2.1429 3.2143-1.9643 3.2143-0.53571 5-0.35714 3.0357-0.53572 3.0357-0.53572 0-1.9643-1.0714-2.3214-3.9286-2.8571-2.8572-1.6071 3.0357 2.5 1.9643 2.5-2.8571 0.71429-3.9286 0.71429-1.7857-1.6072-2.8571-1.0714-1.0714 0.89286-2.6786 1.9643-2.6786 1.9643-3.3928 1.6072-2.5-0.35715-2.5-0.35715-1.0714 2.5-1.7857 1.7857-1.4286-2.5-0.89285-0.89286-1.7857 2.3214-1.7857 2.3214 0.17857-2.8571-1.0714-2.5-2.1428 1.25-2.1428 1.25-0.71429-0.71429-1.4286-0.71429-0.89285-1.25-2.6786-0.71428-2.5 0.71428-2.5 0.71428l-0.71428-0.71428-1.6072-1.25-1.4286-1.4286-1.7857-0.53572s0-1.25-1.0714-1.4286-2.6786 0-2.6786 0l-0.71429-0.89286-1.7857-0.17857z"/>
  <path d="m350.72 343.34c-3.1557 0.20926-6.5312 2.058-8.4062 2.5938-2.5 0.71429-11.612 8.75-13.219 10s-6.5938 6.0804-7.8438 7.6875l-0.53125 1.0625s1.7902-0.53125 3.2188-1.7812 2.8348-2.6786 3.9062-3.75 3.4196-2.8572 4.3125-3.75 6.0536-4.1027 8.375-5.5312 5.0089-1.4554 7.6875-1.8125c2.3438-0.31251 2.3623 0.21729 4.125 0.46875-0.77756 0.67486-1.4375 2.9375-1.4375 2.9375s-0.35714-0.34822-1.25-2.3125-0.53572 0.52232-1.25 1.5938-1.9732 2.4911-2.6875 2.3125-0.54018-1.25-0.71875-2.5-1.0625 2.5-1.0625 2.5-0.91517-0.6875-1.0938-1.9375-0.51339 1.4196-1.4062 2.3125-1.625 4e-3 -2.875-0.53125-1.2366 1.6071-1.5938 2.5-2.4911 2.1384-3.5625 3.0312-2.1696 1.2321-3.0625 2.125-3.1875 2.7009-4.4375 3.5938-3.5982 2.3259-4.3125 3.2188 0.0268 0.53125 0.5625 1.7812 1.0714-0.0134 1.25-0.90625 0.34375-0.88839 1.5938-0.53125 0.34375 1.9688 0.34375 1.9688l-0.6875 1.0625s2.4866 1.0714 4.0938 1.25 4.4732 0.35268 6.4375 0.53125-1.808-0.52232-3.5938-1.5938-3.0089-1.2634-4.4375-2.1562-0.90625-1.2545-0.90625-1.9688 0.34375-0.53125 0.34375-0.53125 1.8125-1.7634 3.0625-2.6562 1.0625-0.1875 1.0625-0.1875 1.2366 2.5 1.5938 3.75 1.4375 2.1384 2.6875 3.0312 3.0446 0.72768 6.4375 0.90625 5.5134-1.625 6.4062-2.875 1.0848-4.4554 0.90625-6.0625-1.9509-2.5-1.5938-3.75 0.8884-0.19196 3.0312 0.34375 2.6786 0.54911 3.75 0.90625 1.942 1.0759 2.6562 3.2188 1.25 3.375 1.25 3.375 2.1607 0.17857 2.875 1.25-0.71875 2.3438-0.71875 2.3438-3.2009 1.4196-4.0938 2.3125-5.0089 1.4107-7.6875 0.875-4.4688 0.71875-4.4688 0.71875 0.16964 0.88839 1.0625 0.53125 1.9688 1.4375 1.9688 1.4375 1.4196 1.0714 2.3125 0 1.433 0.55357 1.9688 1.625 2.3214-0.54464 2.5-1.4375 0.53125 1.4375 0.53125 1.4375 2.1562-0.19643 4.6562-0.375 2.1518-1.2321 2.6875-3.375 0.35715-1.8036 1.25-2.875 1.9464 1.0625 3.375 2.3125 5.5491 4.8482 5.9062 5.5625-2.1339-4.4821-3.5625-5.375-3.4062-3.9196-4.6562-4.8125-0.1875-3.9375-0.1875-3.9375 3.3884-0.69643 5.5312-0.875 1.625-0.55357 2.875-1.625 1.9509-1.2589 2.8438-2.6875-2.3259-0.33483-4.4688 1.0938 4e-3 -0.53125 0.71875-1.7812 0.54017-2.1429 0.71875-3.75-0.70089-1.4509-1.5938-1.0938-3.4107 1.0938-4.125 1.0938-3.0312-0.5625-3.0312-0.5625-0.90178-2.4732-1.4375-4.4375-4.0938-4.4866-7.8438-6.0938c-0.9375-0.40179-1.9794-0.50725-3.0312-0.4375zm2.5 5.2812c2.6786 0.17857 2.125 0.16964 3.375 2.3125s-0.70089 1.4286-1.5938 1.25-0.70982-2.1339-1.7812-3.5625zm-15.375 11.125c0.41957-8e-3 1.0312 0.058 1.9688 0.125 2.5 0.17857 1.4375 1.4062 1.4375 2.6562 0 0-1.5938 0.73214-2.8438 0.375s-1.0714-0.90625-1.25-2.1562c-0.11161-0.78125-0.0118-0.98605 0.6875-1z"/>
  <path d="m318.21 362.54c1.25-3.0357 2.6786-4.8214 2.6786-4.8214l0.89285 3.75s1.6072-0.35714 1.7857-1.4286-1.4286-1.0714 0.71428-2.6786 5.3572-7.3214 5.8929-8.5714-0.71428-0.53571-1.6071 0.89286-2.3214 3.2143-3.2143 4.4643-2.1428 0.71428-1.6071-0.89286 1.4286-3.0357 0.35714-1.7857-2.3214 1.9643-3.75 3.3929-3.0357 1.9643-3.3928 3.2143-1.4286 2.6786-1.6072 4.2857 0.89286 3.5714 1.25 6.25 5.5357 16.071 5.7143 17.679 5.7143 16.786 5.7143 16.786-3.75-13.036-4.2857-14.643-2.8571-10-3.2143-11.786-1.6071-7.8572-1.9643-9.1072-0.35714-5-0.35714-5z"/>
  <path d="m330.36 407.01c2.6786 9.2857 3.9286 11.25 3.2143 13.75s-2.0581 4.0765-3.3081 4.6122-3.9286 0.85139-5 1.03-3.2991-0.10647-2.0491-1.3565 3.3928-3.3928 3.9286-4.4643 0.35714-4.4643 1.0714-3.0357 1.7857 4.2857 1.7857 4.2857 7e-3 2.6258 1.4286 0.71428c2.6192-3.521 0.35714-8.3928 0-9.4643s-1.0714-6.0714-1.0714-6.0714z"/>
  <path d="m312.59 420.93c-1.9643-1.7857-2.8572-2.3214-4.1072-3.2143s-3.125-1.9643-5-1.5178-5.3571 3.0357-5.8928 3.3036-3.3929 1.3393-3.5714 2.4107-0.89286 2.1429-0.17857 2.6786 4.0178 0.53572 4.5536 0.53572 3.3929-1.25 4.1964-2.2321 2.1428-3.125 3.4821-3.2143 2.7679 0 3.2143 0.625 0.44642 1.7857 1.4286 2.3214 1.7857 0.71428 2.0536 0.26786-0.17857-1.9643-0.17857-1.9643z"/>
  <path d="m284.11 421.4c-0.25253 1.894-1.0102 3.4093-0.31567 4.672s3.5987 3.4093 4.7351 3.6618 4.1038 0.12627 3.5355 0c-5.3176-1.1883-6.827-3.2737-7.7656-8.8388z"/>
  <path d="m307.21 429.22c1.4521 1.389 2.2728 1.5784 3.7881 1.894s4.9245-0.56821 5.3033-0.88389 3.0304-1.9572 3.0304-1.9572l2.5885-2.9042s-2.1982 0.86317-2.9673 2.0834c-1.0803 1.7139-5.6752 3.7363-11.743 1.7678z"/>
  <path d="m148.74 364.32c-0.50507-0.63135-1.2627-2.0203-2.6516-2.9042s-5.3033-3.0305-6.1872-3.5355-1.7678-2.2728-3.283-2.3991-6.1872-1.0102-6.8185 0-1.2627 2.2728-0.88388 3.1567 1.1364 0 1.2627 2.0203 1.1364 4.4194 1.894 6.1872 0.63134 3.4093 0.63134 4.0406 0.88388 0.75762 1.2627-0.75761 0-3.7881-0.50507-4.5457-2.1466-4.4194-2.2728-4.9245 1.1364-2.0203 2.1466-2.0203 3.6618 0.12627 4.1669 0 4.9245 1.894 5.0508 2.5254 0.88388 3.283 2.0203 4.1669 3.1567 0.75762 3.1567 0.75762z"/>
  <path d="m151.02 370c0.3788 1.1364 1.1364 1.6415-0.63135 3.6618s-1.7678 0.63135-2.7779 2.7779-3.5355 3.1567-0.75761 4.0406 6.566-2.1466 6.9448-2.6516-0.12627-2.9042 1.2627-1.1364 2.3991 4.9245 3.0304 5.0508-1.5152-7.8287-1.5152-7.8287 2.3991-0.63135 3.7881 0.50507 2.5254 0.25254 5.177 0.37881 8.7126-2.7779 2.5254-2.7779-2.0203 1.1364-3.4093 1.5152-4.1669-1.389-4.672-1.6415-4.0406 0-4.0406 0z"/>
  <path d="m164.28 404.22c0.12627-2.1466 1.894-3.283 0.75761-3.6618s-2.3991-1.7678-2.6516 0.37881-0.63134 2.3991 0 3.4093 1.894-0.12627 1.894-0.12627z"/>
  <path d="m159.6 404.98c-0.3788-0.88388 0.12627-2.7779-1.0102-1.7678s-2.3991 1.389-1.894 2.9042-0.3788 1.7678 0.75762 1.894 2.0203-1.894 2.0203-1.894z"/>
  <path d="m152.91 407.38c-0.63134 0.88388 0.12627 1.389-0.75761 2.5254s-1.5152 0.63135-2.0203 2.1466 0.12627 1.7678-0.3788 3.1567-1.5152 3.4093-1.0102 4.0406 2.3991 4.7982 2.3991 1.894-1.7678-4.1669-0.12626-4.672 1.894-1.0102 2.2728-2.5254-0.25254-1.894 0.88388-2.2728 1.389-0.88388 1.1364-2.0203-2.3991-2.2728-2.3991-2.2728z"/>
  <path d="m164.62 408.72c-0.075 2e-3 -0.13983 0.0388-0.21875 0.0625-1.2627 0.37881-4.4375 1.625-4.4375 1.625-2.2728 0.75761-2.1174 0.88848-2.875 2.6562s-1.7762 2.2686-2.2812 3.5312-1.7812 2.0186-1.7812 3.2812 1.2812 0.63594 1.2812 2.6562 0.76016 5.6888-0.25 5.5625-1.0287-3.5262-1.2812-4.0312-1.3699 0.85723-1.875 2.625-2.6639 0.76729-1.9062 2.1562 2.0198 0.89483 3.1562 2.0312 1.016 3.0262 2.5312 3.5312 4.6613-1.4004 4.1562 1.125-1.3839 3.1575-0.5 3.0312 2.391-3.155 3.9062-3.2812 2.7736-1.016 3.5312-2.5312 4.6689-4.9012 3.4062-5.4062-0.22589-1.3978-2.625 0.875-3.0524 5.8003-4.0625 3.9062-0.73524-1.5148 0.90625-3.1562 3.2825-3.6486 3.1562-4.4062-1.2724-1.2825-2.1562-1.1562-4.1639 0.13515-3.4062-0.875 3.8986-0.23985 4.6562-1.25-1.1339-4.5511-0.25-5.6875 2.155-2.5228 2.2812-0.25 0.48985 5.1562 1.5 5.1562 3.2812-0.125 3.2812-0.125 2.924-1.3661 1.1562-2.25-3.0312-1.7736-3.0312-2.5312 0.26142-3.1524-0.875-3.5312-2.2762-0.90498-2.7812-1.0312c-0.47351-0.11837-1.187-2.3467-2.3125-2.3125zm-7.2812 10.406s1.7614 1.3923 0.625 2.7812-0.38642 1.6474 0.75 2.5312 0.37881 1.2571 0 3.6562 0.38516 3.9024-0.625 4.2812-1.0262-2.9012-1.5312-3.4062-0.87627-2.0109-0.75-4.0312 1.6575-4.8023 1.5312-5.8125z"/>
  <path d="m181.2 413.19c-1.7678-1.1364-4.0406-1.1364-4.7982-0.88388s-2.1466 1.6415-1.5152 2.5254 2.5254 1.5152 3.7881 2.6516 1.7678 1.6415 2.6516 3.1567 1.6415 0.50508 1.2627-0.3788-1.2627-2.9042-1.389-3.5355-1.0102-1.389-2.2728-1.6415-2.9042-1.0102-2.9042-1.0102 0.37881-1.0102 2.2728-0.37881 1.7678 1.1364 3.1567 1.2627 2.2728-0.88389 1.7678-1.1364-2.0203-0.63134-2.0203-0.63134z"/>
  <path d="m177.03 419.5c2.2728 1.2627 3.4093 3.7881 3.7881 4.7982s1.2627 1.1364 1.1364 1.894-0.37881 1.894-1.2627 1.1364-1.0102-2.1466-1.7678-3.0304-1.1364-1.894-2.0203-2.6516 0.12627-2.1466 0.12627-2.1466z"/>
  <path d="m176.27 424.68c0.75761 1.7678 2.6516 2.7779 4.4194 5.8084s0 3.283 0.3788 5.4296 0.63135 4.5457 0.75762 6.8185-0.37881 5.3033 0.12627 7.0711 4.7982 7.0711 4.0406 10.102 1.389 4.5457 0.88388 6.3135-1.5152 3.283-1.5152 3.283-1.1364-2.7779-1.1364-4.2932-1.389-4.4194-1.389-4.4194-0.88388 0.75761-1.2627 1.7678-0.63135-0.3788-1.389-1.6415-3.0305-5.5558-4.1669-5.9346-3.1567-1.0102-2.2728 0.50508 2.6516 0.63134 2.2728 2.6516-0.63134 3.4093-1.0102 4.672-0.12627 2.0203-1.0102 1.6415-1.389-1.0102-0.50508-2.1466 1.0102-3.7881 0.50508-4.672-1.894-1.2627-1.389-1.894 0.3788-3.4093 1.894-3.283 0.50508 1.1364 2.0203-0.37881 1.6415-1.894 1.2627-2.7779 0.12627-2.3991-1.389-1.6415-2.6516 1.0102-2.5254-0.12626 0.12627-2.6517-1.0102-2.9042-0.50507-1.7678-0.3788-2.2728-0.12627-3.5355-0.88389-2.3991-0.3788 0.75762-1.0102 2.1466-0.63134 3.1567-2.5254 3.0304-1.5152 0.12627-1.2627 1.894 0.88388 2.3991-0.63135 2.9042-2.9042 0.63134-2.2728 2.3991 1.5152 5.0508 0.88388 5.5558-1.6415 1.6415-1.7678 0-3.283-4.1669-2.3991-5.3033 2.0203-4.4194 3.7881-5.0508 1.7678-2.9042 0.88388-3.0305-1.5152 0-1.2627-0.88389-0.75761-4.672 0.37881-3.6618 2.1466 3.283 2.6516 2.5254 1.2627-2.0203 0.88388-3.1567-1.389-3.1567-2.0203-2.5254-2.7779 2.1466-2.1466 0.88389 2.6516-3.7881 2.6516-3.7881-0.12627-1.0102 1.1364-1.894 1.0102-1.6415 2.2728-2.6516 3.4093-0.75762 2.5254-2.5254-2.7779-1.7678-2.6516-2.3991 2.3991-1.5152 3.283-1.5152 0.88389 1.2627 1.2627 2.2728 0.12627 0.37881-0.12626 1.7678-0.25254 2.2728-1.1364 2.9042-1.894-0.12627-1.5152 1.5152 0.88389 1.5152 0.88389 3.5355-0.37881 4.7982-1.1364 3.0305-1.389-5.9346-2.0203-4.4194-1.2627 1.894 0 3.1567 3.0305 2.2728 1.1364 3.5355-3.0304 3.0305-3.283 0.63134 0.63134-4.5457-0.12627-3.5355 0.50507 2.3991 0.37881 3.5355-2.1466 3.4093-1.0102 3.4093 4.1669-4.7982 4.1669-4.7982 2.3991-2.0203 2.7779-1.1364 1.5152 5.4296 1.7678 6.1872 1.389 2.3991 1.1364 1.0102 1.6415-1.7678 0.75761-3.4093-1.389-2.7779-1.1364-4.1669 0.88389-2.5254 0.37881-3.283-1.6415-2.3991-1.6415-2.3991-1.2627-3.283 0.12627-2.6516 2.2728 2.3991 2.3991 3.283 1.2627 2.9042 1.2627 3.9143 0.37881 2.0203 0.12627 3.4093-0.12627 3.6618 0.12627 4.4194 0.75762 3.0304 1.2627 2.9042 0.88389-1.2627 0.50508-2.6517-0.75761-3.4093-0.63135-4.5457 0.12627-3.6618 0.12627-4.2932 0.37881-2.9042-0.63134-3.7881-1.7678-1.6415-2.0203-2.1466-1.2627-1.894-1.2627-2.9042 0.37881-2.5254 0.37881-2.5254z"/>
  <path d="m172.36 399.42s-1.5152 1.5152-1.2627 2.1466-1.389-0.50507-2.0203 0.88389-1.389 2.7779-0.25254 2.9042 1.0102-1.6415 1.389-2.1466 0.25254-0.50507 2.1466-1.389 0-2.3991 0-2.3991z"/>
  <path d="m175.51 403.84c-1.5152-0.25254-2.6517-0.25254-1.894 0.88388s-0.50508 1.2627-0.50508 2.1466-0.25254 2.0203 1.0102 1.5152 0.88388-1.6415 1.6415-1.894 3.9143-0.63135 2.0203-1.1364-2.6516-0.63135-2.6516-0.63135z"/>
  <path d="m179.68 405.86c0.12627 0.50508 0 1.7678-0.63134 2.1466s0.37881 1.2627 1.0102 1.1364 1.2627-0.37881 1.0102-1.2627-0.12627-1.7678-0.12627-1.7678z"/>
  <path d="m173.11 412.56c-0.12627 0.50508-1.894 1.0102-1.1364 2.1466s1.0102 3.6618 1.7678 3.1567-0.25254-3.0304-0.25254-3.0304l0.12627-1.1364z"/>
  <path d="m317.59375,447.1875c-1.25.26786-5,3.48214-5.625,3.75s-3.03572.8884-4.375-.71875-3.84822-2.05804-5.1875-1.96875-6.14732,2.25-7.21875,2.875-3.49107,2.23214-5.1875,3.125-4.83036,1.94197-6.4375,2.65625-4.6384,2.34375-5.53125,2.96875-2.9375,3.375-2.9375,3.375 2.5-2.84821 3.75-3.5625 10.80804-5.08036 11.96875-5.4375 10.62053-5.98661 12.40625-5.71875 6.15625,3.21875 6.15625,3.21875 2.06696.0804 2.78125-.1875 4.28571-3.9375 5.625-3.9375 6.13839,1.44196 7.65625,2.15625 10.28125,9.625 10.28125,9.625c-.625-2.67857-6.86607-8.03125-8.5625-9.28125s-8.3125-3.20536-9.5625-2.9375zm-17.25,6.59375 1.28125,3.15625c-1.0249.24758-2.68872.90663-3.6875,1.21875-.22321.0697-.28711.132-.3125.15625 .33482.0167 2.34375-.31697 3.28125-.25 1.25.0893 1.40625.0937 1.40625.0937s.375,2.07589-.25,2.96875-2.50893.5357-3.3125.625-2.59375-.11607-3.21875-1.1875c-.53977-.92533-.262-1.23583-.625-1.25-.32516-.31066-.47794-.41361-.625-.78125-.17858-.44643-.96875-1.625-.96875-1.625l.875,2.59375c-.41758.17881-1.01913.49207-1.65625.84375-1.85392-.86974-3.5-1.65625-3.5-1.65625l3.03125,1.90625c-1.23069.70256-2.53406,1.53123-3.125,2.03125-.0325.0275-.0618.0364-.0937.0625-2.22803-.42146-4.90625-1.65625-4.90625-1.65625l4.25,2.125c-.81302.478-1.55383.55609-2.65625.625-1.42858.0893-1.24553.27232-3.03125.71875s-3.29911-.61607-3.65625-1.0625-1.70982.25-2.15625.875c0,0 .72322,1 1.4375,1s2.76786-.28125 3.75-.28125 2.30804-.44195 3.46875-.53125 1.16518.73214 1.96875,1 1.53572.1741 2.875.53125 2.83483,1.23661 3.28125,1.59375 2.16518.009 2.96875-.4375 1.43303-.71875 1.96875-.71875 1.6875.54018 2.9375.71875 2.32143-.9018 3.125-.8125 3.04464.2634 5.8125.53125 1.67411-.87945 3.28125-.96875 1.25,1.6875 1.25,1.6875l.8125-.0625c-1.03145.36188-2.30677.80511-3.125.96875-1.33929.26786-4.28125,1.1607-3.65625,1.25s5.28125-.56697 10.28125-1.90625c1.38464-.0353 2.71222-1.44331 3.46875-2.125 1.25.17857 5.54018,4.0134 7.59375,5.53125s2.31696,1.53125 3.03125,2.78125 .4509,4.625.71875,7.125 1.33482,1.88393 2.40625,2.6875 2.04464,7.3259 2.3125,8.21875 1.4375,4.1875 1.4375,4.1875 2.13392-2.67857 2.9375-3.75 1.62055-3.64732 1.53125-4.09375-1.3616-3.75446-1.71875-5.09375-3.28572-4.99108-4-6.0625-.625-2.14286-.625-2.5-1.08036-1.07589-1.4375-1.34375-.17858-2.23214-.625-3.125 3.38393-1.70536 4.1875-2.6875-3.47768-1.50445-4.28125-1.59375-1.25445-2.0759-1.34375-2.96875 1.0982-2.04017 1.1875-2.84375-.99553-.26785-1.53125,0-3.3884,1.78125-4.28125,2.40625-3.94196-.53125-4.65625-.53125c-.65692,0-3.29985-2.64651-4.28125-3.28125 1.18331-1.44609 3.02216-3.62298 2.5-3.25-.49665.35475-2.44194,1.95246-3.40625,2.90625-.63347-.20642-1.29987-.4073-2.15625-.65625 1.80041-1.58903 3.50213-3.17321 2.875-2.78125-.61632.38521-2.84503,2.07598-3.53125,2.59375l-.90625-.25c-.41949-.10487-.7743-.17152-1.15625-.25 .1791-1.40185.47657-2.52814.65625-3.03125-.18534.39815-.90451,1.97384-1.1875,2.90625-.13066-.0335-.2222-.0479-.375-.0937-.89286-.26785-.61607-1.59821-.4375-2.3125 .0446-.17857-.0452-.24163-.1875-.25-.4269-.0251-1.4375.53125-1.4375.53125s-.36607.78571-.8125,1.5-2.04465.72767-2.9375.90625c-.33482.067-.77628.088-1.25.0937 .16352-1.74234.1875-3.59375.1875-3.59375l-.7188,3.5938c-.6208-.013-1.25697-.0507-1.6875-.0937-.89285-.0893-2.41964-.0179-2.6875-.375-.036-.0481-.1297-.064-.25-.0625-1.00199-2.13581-1.90625-3.0625-1.90625-3.0625zm12.84375,3.8125c.0745.002.16295.009.21875.0312 .44643.17857.6875,1.15625.6875,1.15625-.26785.89286.27232,1.61608-1.15625,2.0625s-4.81697,1.17411-6.15625.90625-2.75446-.36607-2.84375-.8125-.80357-2.23214 0-2.5c.64689-.21563 1.76368-.16082 2.75-.125v.0312l.0625-.0312c.21648.008.46548.0312.65625.0312 1.07142,0 4.375-.34375 4.375-.34375s.88501-.42334 1.40625-.40625z"/>
  <path d="m328.3125,473.9375c0,0 1.87373,2.26982 2,3.40625 .0806.72556.25281,1.3202.375,1.75-1.45692.88264-3.14583,1.81745-4.84375,2.71875-.36513-3.46853-2.09375-6.375-2.09375-6.375s1.02871,3.26983 1.28125,4.40625c.13507.60783.16063,1.54252.15625,2.3125-2.18869,1.14629-4.18199,2.1145-4.65625,2.25-.29487.0842-1.62458.18069-3.4375.28125 .29899-2.99061-1.03125-8-1.03125-8s.75127,6.3374.625,6.96875c-.0631.31567-.13952.60478-.25,1.0625-2.21002.11377-4.98143.25027-7.8125.3125 .75362-3.05151.125-4.1875.125-4.1875-.0952,1.37871-.12256,2.74271-.8125,4.1875-1.03923.0202-2.04445.0253-3.03125.0312 .7377-3.78048.625-5.28125.625-5.28125l-1.4375,5.28125c-3.06665.004-5.65858-.0545-6.59375-.28125-.26272-.0637-.63257-.21818-1-.34375 1.5026-2.43302 1.625-5.96875 1.625-5.96875s-.93242,3.8374-1.4375,4.46875c-.29136.3642-.73806.81699-1.09375,1.1875-.83185-.31694-1.81723-.74469-2.84375-1.1875 .52412-.9146.93921-2.59776 1.21875-3.9375-.22097.93123-.52872,1.93432-.78125,2.25-.34967.43708-.75671.9552-1.125,1.40625-3.85896-1.6899-8.16543-3.74861-8.84375-4.03125-1.07143-.44643-5.1875-3.14286-5.8125-3.5s-1.25.1875-1.25.1875c8.57142,6.16071 14.90179,10.18303 17.3125,10.71875s8.59375.69643 11.09375.875 12.12946-.0715 13.46875-.25 5.71428-1.08482 6.25-1.53125 8.83036-5.42857 9.1875-5.875 .89731-3.58929.0937-2.25c-.19207.32011-.97931.90664-2.0625,1.59375-.56337-3.34594-3.1875-4.65625-3.1875-4.65625z"/>
  <path d="m341.56 470.64c0.37881 0.75762 0.12627 2.3991 0.50508 3.1567s7.7024 3.7881 10.607 5.4296 13.258 8.2075 13.258 8.2075 0-2.9042-0.25254-3.6618 0.63135-2.9042-0.37881-3.6618-6.0609-2.9042-6.566-3.0304-2.2728-1.1364-1.0102-0.12627 5.177 2.3991 5.6821 3.283 2.1466 2.1466 1.0102 2.3991-1.7678-1.1364-3.0305-1.894-2.2728-0.88388-3.1567-1.6415-2.0203-1.1364-3.283-1.5152-5.0508-2.3991-5.8084-2.7779-3.283-1.389-3.6618-2.0203-2.2728-1.2627-2.2728-1.2627z"/>
  <path d="m344.84 487.94c0.3788-2.3991 2.7779-4.7982 2.7779-5.9346s1.0102-2.9042 1.5152-2.9042 5.0508 2.6516 5.9346 2.7779 4.2932 2.0203 3.1567 1.389-4.672-3.0305-6.0609-3.5355-3.0305-1.7678-4.0406-1.894-4.9245-1.6415-5.8084-2.0203-3.5355-2.3991-3.5355-1.894 1.389 1.894 3.1567 2.6516 4.7982 2.5254 5.0508 3.0305-0.25254 4.0406-0.88388 4.9245-1.2627 3.4093-1.2627 3.4093z"/>
  <path d="m346.61 496.47c0.89286 1.4286 1.4286 2.3214 1.25 3.9286s-1.4286 3.0357-0.35714 3.75 3.0357-0.35715 2.6786 1.0714-1.6071 2.3214-3.5714 3.0357-6.6071 3.5714-8.5714 5-5 5.1786-5.1786 5.8929-0.71428 1.7857-0.71428 1.7857-1.0714-2.6786-3.5714-3.0357-4.4643-1.6072-6.6071-1.0714-5.3572 0.71428-6.7857 2.1428-3.75 3.5714-4.8214 5-2.8571 2.5-2.8571 4.1072 0.53571 6.7857 0.35714 8.3928-3.3928 7.1429-3.9286 9.1072-3.5714 8.2143-4.2857 9.8214-3.75 5.7143-5 6.9643-5 6.6071-6.6072 8.5714-12.321 13.036-13.214 14.464-1.4286 2.5-0.89286 1.6071 5.1786-7.1429 5.7143-8.0357 4.8214-4.8214 6.25-6.7857 2.3214-5.5357 2.6786-6.7857 0.17857-4.1072-2.6786-7.8572-20.893-17.143-24.643-19.464-27.5-21.071-33.929-25.536-17.857-15-22.321-18.75-15.536-23.393-15.536-23.393 6.4286 10.893 19.107 18.75 38.75 22.857 46.964 25.893 22.679 8.9286 27.5 8.9286 23.75 0 25.714-0.89285 8.3929-5.1786 9.1071-5.7143 7.6786-3.3929 9.1072-5 7.3214-5.1786 8.2143-6.7857 5-8.2143 5-8.2143-0.17857 3.2143 0.89286 3.2143 3.3929 0.53571 4.2857-0.35715 1.25-3.75 1.25-3.75z"/>
  <path d="m333.75 523.61c0.71429 1.6071 2.3214 3.75 1.25 6.9643s-2.5 8.5714-2.8571 11.607-1.7857 10.536-2.1429 11.786-1.25 4.4643-1.25 4.4643 1.7857 1.0714 1.9643 0.17857-1.4286-2.5-0.71429-4.4643 1.6071-7.1429 3.75-5.8929 2.5 2.6786 2.3214 0 0.89286-6.7857 1.6071-9.6429-0.89286-5.3571-1.25-6.6071-2.3214-5.7143-1.0714-4.4643 2.5 3.2143 2.5 3.2143 1.0714-3.5714 1.0714-4.8214-0.17857-4.2857-1.0714-4.4643-0.53571 1.6072-0.53571 2.3214-0.71429 0.71429-1.6071 0.35715-1.9643-0.53572-1.9643-0.53572z"/>
  <path d="m367.32 506.65c-1.6071 0.17857-2.8571 1.6071-2.8571 1.6071s-9.1072-2.1429-11.25-1.9643 0.71428 0.17857 2.1428 0.53572 6.9643 1.25 7.6786 1.7857 3.0357 0.71429 3.2143 3.3929-0.35714 18.393-0.89286 20.179-6.0714 22.321-6.0714 22.321-1.4286 4.8214-0.89286 6.9643 0.35714 4.1072 0.89286 3.0357-0.53572-1.25-0.17858-3.0357 2.6786-11.607 2.6786-11.607 3.3928-12.679 4.1071-14.464 1.25-6.7857 1.25-8.75 0.35714-15.536 0.35714-16.429 1.0714-6.0714 1.4286-6.9643 1.4286-5.8929 1.4286-7.6786-3.2143-8.75-3.2143-8.75-1.0714-0.71429 0 1.7857 1.9643 7.6786 1.4286 11.607-1.25 6.4286-1.25 6.4286z"/>
  <path d="m392.16 491.81c-0.0307 0.63752 0.0696 1.3977 0.53125 2.875 0.42999 1.376 1.0488 3.8822 1.5938 6.4375 0 0 4.4821 1.4241 5.375 1.7812s6.4018 3.9196 6.9375 4.8125 1.4375 4.2812 1.4375 4.2812 0.72321-5.5357 0.1875-6.25-2.4911-2.6696-3.5625-4.8125-2.6875-4.8125-2.6875-4.8125l-0.90625-1.5625c0.12132 0.67229 0.21875 1.2188 0.21875 1.2188l-9.125-3.9688zm2.5938 11.562c0.36098 1.9451 0.59375 3.7366 0.59375 4.875 0 3.0357 1.0848 10.188 0.90625 12.688s-1.5938 7.125-1.5938 7.125-2.3482 3.933-3.0625 6.9688-0.70536 9.6429-1.0625 13.75-0.54464 3.2098-2.6875 6.7812-0.35714 4.6518 0 2.6875 1.4464-4.4732 2.875-5.1875 3.7411-1.4152 4.8125-2.8438 7.8616-9.0938 6.9688-9.0938-4.9866 6.0536-6.5938 7.125-2.3393 1.067-2.875-0.71875-0.53125-3.7411-0.53125-4.8125-0.35714-5.9062 0-8.4062 2.6696-7.4732 3.5625-8.1875 4.8259-5.7232 5.7188-6.4375 6.6027-6.6205 5.5312-5.9062-5.1562 4.4643-6.4062 5-1.6071 3.7678-2.5 0.375-1.2768-7.3259-1.8125-8.2188c-0.40372-0.67288-1.3195-5.0229-1.8438-7.5625z"/>
  <path d="m409.11 510.22c0 2.5 1.25 6.7857 2.1429 8.5714s1.4286 9.2857 0.71429 11.071-6.25 8.75-6.25 8.75 6.0714-8.5714 5.5357-10 0-9.4643-0.89286-10.536-1.9643-5.7143-1.9643-5.7143z"/>
  <path d="m438.78 539.62c-1.3876-2e-3 -2.189 0.20744-2.6562 0.375-5.0791 7.8236-9.2654 13.711-13.625 19.906-4.7982 6.8185-8.8369 12.372-12.625 18.938s-5.8057 11.108-9.5938 15.906-14.39 9.6156-22.219 13.656-17.931 10.111-24.75 14.656-15.657 13.361-18.688 17.906-3.7998 7.8344-5.0625 11.875-2.7711 2.0252-3.7812 8.8438-1.2838 23.747-1.0312 33.344-0.24746 42.164-0.5 50.75-0.99747 17.173-1.25 21.719 0.75 34.611 0.75 39.156 3.7998 38.868 5.0625 42.656 3.7812 24.767 3.7812 29.312 0.50761 6.0473-0.25 7.5625-7.5785 8.8471-9.0938 11.625-4.2863 6.0717-3.7812 11.375 2.0025 8.3293 1.75 12.875-1.7686 10.345-3.0312 13.375-3.7889 11.102-3.0312 13.375-0.74159 5.3252 1.5312 4.0625 5.7998-9.5996 7.0625-12.125 1.7838-8.3344 1.5312-12.375-0.27364-8.8623-1.0312-10.125-3.2838-9.5709-3.0312-11.844 5.3209-11.136 7.5938-13.156 5.8125-4.7998 5.8125-6.0625-1.0312-12.875-1.0312-12.875-2.766-27.503-4.2812-30.281-2.5312-16.431-2.5312-20.219-4.5566-18.683-2.0312-31.562 4.0674-23.228 12.906-37.875 21.443-34.861 23.969-39.406 3.56-7.8318 3.8125-12.125 3.5075-37.637 12.094-55.062 19.197-31.545 36.875-45.688 29.551-22.73 33.844-24.75 7.8184-2.2711 10.344-3.2812 14.928-3.2863 18.969-2.7812 11.084 1.2559 15.125 3.7812 6.836 3.8046 16.938 23.25 15.64 47.197 14.125 64.875-7.0598 34.855-16.656 46.219-23.471 25.765-32.562 42.938-35.111 58.606-39.656 66.688-14.896 26.011-15.906 28.031-1.2635 3.0025-3.0312 2.75-7.576 1.5203-9.3438-0.5-4.0447-0.4916-5.8125 1.7812-3.0371 7.315-5.5625 7.0625-4.5455-2.5203-9.3438-0.5-10.87 7.5811-11.375 8.8438-11.339 7.0709-14.875 9.3438c-1.1684 0.75115-2.3571 1.8187-3.3438 2.8125 4.2853-3.6597 14.58-9.4352 17.219-9.875 3.0305-0.50508 3.7981-3e-3 8.3438 0.25s7.576 3.2652 9.3438 1.75 4.5371-7.8133 7.0625-10.844 2.0328-5.576 8.0938-7.3438 9.5971-2.0203 12.375 0 3.2686 4.8125 4.5312 4.8125 7.8336 1.0186 8.8438 2.2812 2.5312 4.0312 2.5312 4.0312l-1.0312-0.25s1.7889 2.7711 1.0312 3.7812-1.532 3.5498-4.5625 4.8125-11.112 3.0076-12.375 2.25-1.7441-5e-3 0.78125 0.5 7.0726-0.73144 6.0625 0.53125-4.2922 3.5338-6.3125 3.2812-6.3311-1.2686-7.5938-2.5312-3.5414-3.0414-2.5312-2.0312 3.2965 3.5363 1.7812 3.0312-7.8311-4.0262-9.0938-4.5312-3.2736-2.5414-4.0312-1.5312-2e-3 3.2812 3.2812 3.2812 8.3311 2.7998 9.5938 4.0625 4.2711 4.0211 5.2812 5.0312 3.8125 3.2812 3.8125 3.2812 5.7998-3.2678 7.0625-1.5 3.5338 3.2846 3.2812 6.0625-1.5135 5.31-3.2812 5.5625-4.0312 0.23652-4.0312-1.5312-2.5363-8.0777-2.0312-6.5625-0.25 5.3024-0.25 6.3125 2.0144 0.7711-2.5312 1.7812-5.2998 0.47637-6.5625-0.28125-3.2947-3.2525-5.0625-3-7.2998-0.78379-8.5625-0.53125-8.5938 2.2812-8.5938 2.2812l1.25-3.7812s-3.2762 4.0211-3.7812 5.0312-8.0836 4.0574-9.0938 4.5625-10.11 4.2787-11.625 4.5312-7.8125 4.3125-7.8125 4.3125 10.861-4.2922 18.438-6.3125 9.6047-4.0524 11.625-5.0625 11.352-5.0363 13.625-4.5312 6.5625 4.5312 6.5625 4.5312 4.2998 0.24493 5.5625 0.75 2.016 2.0287 3.5312 2.2812-0.26269 5.315 1 5.0625 1.5135-4.2889 3.2812-3.5312 1.2812 2 1.2812 2 5.5498-1.5051 6.8125-1 1.5 2.2635 1.5 4.0312-1.011 3.7863-3.0312 3.2812-2.5-4.7812-2.5-4.7812-2.0236 1.5186-2.7812 2.7812-3.5338 1.5178-3.2812-0.25 0.48144-3.0414-0.78125-2.0312-1.9924 1.0211-2.75 2.0312-3.06 2.5254-3.3125 0-0.73731-7.8387-2-8.3438-0.50761 0.76095 0.25 2.7812-0.77617 9.0811-1.2812 10.344-2.7711 5.56-3.7812 5.8125c-0.31962 0.0799-2.2892 0.9243-4.6562 1.9375 1.2311-0.46167 2.2749-0.75063 2.9062-0.6875 2.5254 0.25254 5.5312 2.2812 5.5312 2.2812s1.516 4.0516 3.0312 2.0312 2.5422-3.2838 4.5625-3.0312 2.5211 1.266 3.5312 2.7812c0.65725 0.98587 1.7426 2.4824 2.2812 2.9375-0.91024 0.62409-1.7812 1.0938-1.7812 1.0938s-1-1.7627-1-0.5-3.2838 2.5135-3.0312 4.2812-1.5025 4.0541-1.25 1.7812-2.5312-8.5854-2.5312-6.3125 1.7627 5.5346 0.5 8.3125-2.7973 7.8387-4.3125 8.3438-4.7812 3.0312-4.7812 3.0312 4.5422 1.0178 6.5625-0.75 4.0447-4.0498 5.8125-5.3125 4.5498-0.74667 5.8125 2.0312 2.2627 4.7846 1 7.5625-9.0836 13.146-10.094 14.156-5.5481 5.2947-10.094 7.0625c-4.1064 1.5969-11.201 8.2643-12.594 9.5938h3.2812c2.6664-1.6601 5.5267-3.2786 7.2812-4.2812 3.5355-2.0203 9.5938-6.3125 9.5938-6.3125s2.2889 1.5084 1.5312 3.7812-4.0422 3.5346-6.0625 6.3125c-0.11109 0.15275-0.27333 0.33749-0.40625 0.5h168.59s-11.133-39.639-13.406-44.438-8.8209-9.3522-11.094-11.625 0.24746-6.0709 0.5-8.3438-1.7736-7.8209-2.5312-10.094 0.50253-14.376 0.25-17.406 0.77871-4.3031 1.0312-8.3438-1.5338-2.5244-1.2812-6.3125 2.2635-19.698 4.0312-31.062-5.2998-53.039-6.5625-64.656-10.862-65.166-12.125-73.5 0.76015-25.5-0.25-34.844-3.2795-22.73-6.5625-37.125-17.172-43.186-18.688-46.469-7.0692-12.858-12.625-17.656-23.468-17.703-39.125-25.531c-8.8073-4.4036-14.118-5.3711-17.062-5.375zm-82.906 339.44c-0.42896 0.39139-0.81616 0.74226-1.0625 1.0625-1.5784 2.0519-0.6885 0.75755 1.0625-1.0625zm66.906 41.562c0.0674 0.0227 0.13983 0.0773 0.21875 0.15625 1.2627 1.2627 1.7551 4.0498 1.25 5.3125-0.22002 0.55005-0.94546 1.1961-1.7188 1.75-0.0123-0.0791 2e-3 -0.13228-0.0312-0.25-0.4735-1.6573-0.72958-7.3091 0.28125-6.9688zm-24.719 2.0938c-4.8457 2.0833-10.45 4.4774-11.188 4.625-1.2627 0.25254-8.826 3.2998-10.594 4.5625s-6.0447 5.31-7.8125 5.5625-11.875 2.7812-11.875 2.7812 5.8108 0.73397 9.0938-0.78125 8.0676-3.7652 7.5625-2.25 1.0135 8.5684 2.7812 11.094 2.7838 6.0734 2.5312 8.0938-3.7812 6.8125-3.7812 6.8125 6.7998-2.2711 8.0625-3.2812 6.0625-4.3125 6.0625-4.3125 1.2728-4.5254-1-2-5.0625 3.7812-5.0625 3.7812v-2.2812s1.2627-2.5236 0-3.2812-2.2736-0.73477-3.0312-2.25-3.2812-2.7973-3.2812-4.3125-0.5-3.0186-0.5-4.2812-1.2627-4.0498 0-5.3125 4.0524-3.5262 5.0625-4.0312 4.782-2.7973 7.8125-4.3125c1.8272-0.91362 5.7629-3.0782 9.1562-4.625z"/>
  <path d="m190.56 521.09c-1.5183 1.0207-3.6414 2.5134-4.4375 3.4688-1.2627 1.5152 0.51602 5.0371 2.0312 7.5625s2.0051 4.2947 1.5 6.0625-2.5312 2.7947-2.5312 4.5625 2.2838 3.511 2.0312 5.5312 2.5262 2.032 3.0312 5.0625-0.74825 3.0396-4.0312 5.3125-3.5625-2.0312-3.5625-2.0312l-3-0.125c0.12278 0.13439 0.1875 0.23687 0.1875 0.3125 0 0.71428-1.4375 2.3438-1.4375 3.5938s0.1875 3.567 1.4375 5.5312 1.7946 3.7411 1.4375 6.0625-1.0804 6.9732-1.4375 8.9375 0.16965 4.6473 1.0625 4.4688 3.3973-3.2188 3.2188-0.71875 0.72767 3.4018-0.34375 3.9375-4.6429-0.19643-3.75 3.375 3.375 5 3.375 5-0.6875-7.3125 1.8125-7.3125 4.4375-0.17857 4.4375 2.5 0.74107 5.0089-0.6875 5.1875-2.1652-1.0938-2.3438 1.4062-0.69643 2.875-0.875 6.625 0.70982 6.2277 1.7812 6.4062 2.1473-1.4241 1.9688-3.0312-0.53571-8.7411 1.25-7.3125 4.2634 3.3929 2.6562 5-3.3928 3.0446-3.75 3.9375-1.7857 1.9464-1.25 3.375 1.6205 4.4821 2.1562 2.875 3.4062-2.5 3.4062-2.5 0.71428 1.067 0 1.7812-3.0402 0.34375-3.2188 2.8438 0 14.46-1.25 14.281-1.25 1.6339-2.5-0.6875-1.2723-11.991-2.3438-11.812-2.2946 1.6116-4.4375-0.53125-5.3839-4.0848-5.5625-6.4062 1.6339-4.8348 0.5625-5.9062-2.1562-1.9688-2.1562-3.2188 4.2991 1.9732 4.6562 0.1875 0.34375-3.7679-0.90625-5.375-1.7857-5.875 0-7.125 2.5089-4.2991 1.4375-4.6562-1.808 0.17857-3.5938 1.25-2.1205 3.7589-2.6562 1.4375-0.37946-7.6741-2.3438-6.7812-2.2946 2.8571-1.9375 5 0.35714 4.4732-1.25 6.4375-4.1161 2.2991-2.6875 5.1562 3.9241 2.8527 4.2812 5.5312 0.0134 6.2723 0.90625 8.5938 3.0134 4.8125 2.6562 6.0625-0.52233 2.1339 0.90625 3.5625 3.9241 4.125 3.0312 5.375-0.1875 6.4152-5.1875 5.3438-5.8929-1.0714-7.5-3.75-2.4866-1.9464-4.0938-5.875 0.51786-10.362 0.875-13.219 1.0938-12.317 1.0938-14.281-0.19196-7.3348 0.34375-10.906 0.70536-3.0268 1.0625-9.8125 2.5-9.4688 3.75-11.969c0.73701-1.474 1.99-4.5445 3.0312-7.1875-1.1816 0.21789-2.4173 0.30646-3.6875 0.125-3.5355-0.50507-8.5945 0.51856-11.625 1.7812s-17.17 15.394-18.938 16.656-11.862 4.31-13.125 4.5625-13.633 9.0938-15.906 9.0938c-0.19997 0-0.58602 0.04-1.0312 0.0937-2.8523 3.5767-4.792 5.7094-5.3125 7.375-0.89286 2.8571-3.2188 23.388-1.9688 31.781s7.692 26.067 9.6562 35.531 10.174 41.062 11.781 44.812 7.8571 15.357 8.75 23.75 6.0714 33.929 8.75 43.75 8.933 28.049 10.719 34.656 5.3616 26.246 15.719 44.281 19.272 40.179 21.594 45 12.335 29.116 13.406 33.938 5.5179 9.8304 0.875 8.9375-12.321-2.1696-15-3.0625-0.71428 1.9732 5 3.9375 14.817 2.5179 18.031 2.875 7.1562 0.52232 8.4062 0.34375 1.433-8.7589 0.71875-8.9375-1.625 3.7589-5.375 3.9375-4.8125 0.19197-6.0625-1.5938-4.4643-13.777-3.75-15.562 3.4062-3.0134 5.9062-2.6562 6.9375-0.53125 6.9375-0.53125-1.7857-23.04-1.25-31.969 4.4777-55.357 7.1562-68.75 10.545-39.482 13.938-54.125 8.9241-39.799 11.781-58.906 6.7768-38.411 8.5625-47.875 4.4821-15.531 5.375-21.781 0.17857-13.397 0-14.469-0.54018-4.2857-0.71875-8.75 1.4062-10 1.4062-10l10-15.531s-3.558-0.52679-4.0938 0.1875-2.6875 4.0982-2.6875 4.8125-0.54018 3.3884-0.71875 4.2812-1.4241 3.7634-1.7812 4.6562-1.6116 1.058-3.2188 1.5938-4.2812 2.1384-5.5312 3.0312-3.3839 1.9598-4.8125 1.7812-2.8571-1.4286-5-1.25-5.1741 1.0893-5.5312 0.375-0.90625-6.0804-3.4062-7.6875-3.7545-2.8393-5.7188-2.125-0.52232 1.5938-4.0938 1.5938-6.6205-0.53571-5.9062-1.25 5.3839-2.3259 5.5625-4.4688 3.192-6.7723 0.15625-6.5938-3.2188 2.125-3.2188 2.125 1.8125 0.90625 0.5625 2.1562-3.7545 1.5982-5.7188 2.3125-1.4375-1.0714-1.4375-2.5 0.52232-5.8929 1.5938-6.25 4.6562-0.17857 4.6562-2.5 0.17411-11.607-1.9688-12.5-4.625-1.5938-7.125-1.5938-6.2723 0.17411-7.3438-0.71875-5.5223-5-6.5938-7.5-1.7946-6.4196-1.4375-7.3125 0.90178-5.0134 0.1875-5.9062-3.0402-3.2187-3.2188-4.4687 3.2143-3.2143 3.75-1.25 0.90625 1.9777 0.90625 3.4062 0.35714 3.3884 1.25 4.2812 2.8348 4.2723 3.9062 1.5938 0.91518-6.433-1.4062-6.9688-2.3438-3.75-2.3438-3.75-0.69643-1.2321 0.375-3.375 0.16964-5.3527-1.4375-8.0312-3.3795-7.4955-5.3438-8.0312c-0.67356-0.1837-1.7527-0.70524-2.8438-1.2812zm8.4688 67.406c0.64732-0.0223 1.4286 0.20536 1.875 1.1875 0 0-1.7857 1.9598-2.5 1.7812s-0.5625-2.6875-0.5625-2.6875 0.54018-0.25893 1.1875-0.28125zm4.5938 10.125c0.49107-0.0223 1.2991 0.15625 2.2812 0.15625 0 0 0.70089-0.17857 1.5938 0s0.34375 2.3438 0.34375 2.3438l-2.5 1.25s-1.5893-1.0804-2.125-2.6875c-0.26786-0.80357-0.0848-1.0402 0.40625-1.0625zm26.781 18.188c0.13672-7e-3 0.32143-0.0223 0.5 0 1.4286 0.17857 1.4286 4.3125 1.25 5.5625s-2.1473 0.53125-3.2188-0.71875-0.1875-2.875-0.1875-4.125h0.71875s-0.0195-0.66748 0.9375-0.71875zm-27.719 1.8125s2.6741 0.70982 3.0312 1.7812-1.2634 3.0223-2.1562 2.8438-1.9464-1.7679-0.875-4.625zm32.844 0.15625 2.3125 3.4062s-1.9509 1.058-2.8438 0.34375 0.17411-2.6786 0.53125-3.75zm23.406 2.5 1.4062 1.9688-1.5938 0.1875s-0.88393-1.442 0.1875-2.1562zm-17.344 1.7188c0.78515-0.0254 1.7496 0.46902 3.2188 2.0312 0.47424 0.0747 3.689-0.25371 1.7812 2.6875 0.17857 1.9643 3.5982 2.6875 5.5625 3.9375s1.0625 2.6562 1.0625 2.6562l-0.375 3.4062s2.8839 4.2768 4.3125 6.0625 0.16964 6.7812-0.1875 8.0312-5.3705 1.2634-5.9062 2.1562-0.34375 4.4732-1.5938 5.1875-5.7054 3.0268-7.3125 4.8125-1.4375 9.1161-2.6875 8.9375-0.36607-5.0134-0.1875-7.1562-0.69643-6.9732-0.875-10.188 2.8393-2.4866 4.625-2.8438 1.7768-0.54018 1.0625-3.2188-2.2946-0.87947-1.9375-2.8438 1.942 1.7902 2.6562 1.9688 0.20089-3.942 1.0938-7.1562 2.125-2.6875 3.375-3.9375 1.7768-2.1205 1.0625-3.9062-3.375 0.34375-4.625-0.90625-1.6161 0.72321-2.6875 2.6875-2.8527-1.0848-5.5312-2.1562-1.7991-2.3259-2.1562-4.4688 0.0937-2.4598 2.5938-3.5312c1.5625-0.66964 2.3477-2.2076 3.6562-2.25zm-42.719 2.4062c0.082-0.0218 0.14062-0.0112 0.21875 0 1.25 0.17857 2.5134 1.7634 3.4062 2.6562s3.3973 1.4375 3.2188 2.6875-3.2188 1.8036-3.2188 2.875 0.35714 6.25 0 7.5-0.90625 3.375-0.90625 3.375 4.2857-5.5268 5-6.0625 0.73214-4.8125 1.625-4.8125 1.9509 1.5804 1.5938 3.1875-2.3036 2.1562-0.875 3.4062 4.4643 4.4777 5 5.9062 0.53125 6.0625 0.53125 6.0625 1.7946-5.1875 2.6875-6.4375 1.5893-2.8527 2.125-4.2812 2.1339-0.89285 2.3125 0 0.5625 1.5938 0.5625 1.5938c-0.71429 1.0714-9e-3 3.2366 1.0625 4.8438s2.1384 4.9866 1.7812 6.5938-1.7946 6.2679-2.6875 6.625-0.54018 3.7321-1.9688 3.375-2.5-1.0759-2.5-1.9688-1.9554-4.2857-2.3125-5-0.51786-2.1295-0.875-2.8438-1.4554-0.3616-1.8125 0.53125-3.5625 2.8438-3.5625 2.8438 2.1473 3.5714 0.71875 3.75-4.8125 0.73214-4.8125-0.875 1.2277-1.4196 1.4062-2.3125 0.72322-1.0848-1.0625-3.4062-3.3839-3.9375-3.5625-6.4375 1.6071-3.7411 0-3.5625-4.8125 0.89732-4.8125 1.9688 1.2322 4.6518-0.375 3.9375-0.875-2.5223-2.125-3.5938-5.0134-2.1428-5.9062-5 0.87947-7.4866 1.5938-7.8438 3.9509-3.3884 4.8438-4.2812c0.83706-0.83706 2.4581-4.673 3.6875-5zm22.25 0.0937c0.49421 0.0334 0.59598 3.558 1.0312 4.7188 0.53571 1.4286 1.5848 4.817 0.15625 6.7812s-1.9643-1.0804-2.5-2.6875 0.89733-2.8527-1.7812-3.0312-0.34822-1.0759-1.0625-3.2188l1.9688 1.4375s0.88839-1.0536 1.7812-3.375c0.16741-0.43527 0.2922-0.63272 0.40625-0.625zm35.312 2.75s2.6607 1.6116 3.375 1.9688 0.36161 2.6786-0.53125 3.75-2.8571 0.35268-3.75-0.71875 0.19197-3.75 0.90625-5zm-28.75 3.75 0.71875 0.375c-0.18846 0.0236-0.39901 0.019-0.59375 0.0312 0.30949 0.86861 1.1073 3.3696 0.21875 4.4062-1.0714 1.25-1.7768 9e-3 -2.3125-2.3125-0.46505-2.0152 0.81231-2.0129 2.0938-2.0938-0.06368-0.17863-0.125-0.40615-0.125-0.40615zm5.4062 5.625c0.625 0 1.3705 0.27233 1.9062 1.3438 1.0714 2.1429-2.1473 2.1562-3.2188 2.1562s9e-3 -1.2545 0.1875-3.2188c0 0 0.5-0.28125 1.125-0.28125zm-58.375 3.0312c0.9375-0.0223 1.875 0.0937 1.875 0.0937s1.4509 3.7679 1.0938 5.375l-1.25 1.4062s-1.7991-0.70535-2.1562-2.3125-1.4375-2.5-1.4375-3.75c0-0.625 0.9375-0.79018 1.875-0.8125zm56.531 2.9688s1.442-0.0223 2.1562 1.4062 1.4107 1.6116 0.875 4.4688 1.4375 0.54464 1.4375 2.6875 1.4241 6.433 0.53125 8.2188-2.3348 4.4598-3.4062 5.5312 0.0223 3.5759-2.6562 5.7188-1.0804-0.54464-1.4375-1.4375 0.0134-0.35714-0.34375-2.5 0.34375-3.2054 0.34375-4.8125 4e-3 -5.1741-0.53125-8.0312 1.2455-3.2321 1.7812-4.125 1.7991-1.4375 2.1562-2.6875-1.625-2.6562-1.625-2.6562l0.71875-1.7812zm-47.312 18.562c0.88937-0.0471 1.7009 0.11607 1.9688 0.71875 0.71428 1.6071 1.0446 1.7679 1.9375 3.375s2.5268 4.2812 1.8125 5.5312-3.2188 3.0402-4.4688 4.4688-6.0848 2.5134-7.1562 0.90625-2.6696-5.0134-2.3125-7.1562 2.308-5.1786 4.0938-7.5l0.90625 0.375s1.7365-0.64028 3.2188-0.71875zm12.5 6.25s-2.1652 4.2812-2.3438 5.5312-2.4732-1.9777-1.9375-4.6562l1.25-0.15625 3.0312-0.71875zm-32.812 2.0312c0.10628-0.013 0.20634-3e-3 0.3125 0 1.092 0.0279 2.154 0.79911 2.6562 1 0 0 3.0446 5.7188 2.6875 6.9688s-3.0268 6.2589-4.8125 7.6875-2.6786-0.7366-3.75-3.5938-0.55357-6.7634 0.875-10.156c0.54687-1.2988 1.2873-1.8156 2.0312-1.9062zm36.906 2.5938s3.0402 1.2723 4.4688 2.3438 0.8884 9.2634 0.53125 11.406-2.8616 6.6071-4.4688 8.75-4.2857-2.4777-5-5.1562 0.55357-3.2366 1.625-4.8438 1.7857-5.8661 1.25-8.1875 0.34375-3.2411 1.5938-4.3125zm-10.875 2.5938c0.53572-0.11719 1.4598 1.125 1.5938 2.0625 0.17857 1.25-4e-3 5.1875-0.71875 7.6875s-1.9509 1.4196-4.0938 1.0625 4e-3 -3.2277 0.71875-5.9062c0 0 1.9464-2.6741 2.125-4.2812 0.0446-0.40178 0.19643-0.58594 0.375-0.625zm31.781 4.0938c0.79227 9e-3 1.567 0.13394 1.9688 0.46875 1.0714 0.89286-0.91071 2.8572-1.625 3.75s-2.3036-0.90625-3.375-2.1562-0.19196-0.53125 0.34375-1.7812c0 0 0.87946-0.18304 1.9062-0.25 0.2567-0.0167 0.51716-0.0343 0.78125-0.0312zm-8.9375 0.46875 0.53125 2.3125s-2.3125 0.1741-2.3125-1.9688l1.7812-0.34375zm-0.71875 10.188c0.9103 0 1.8839 0.25893 2.6875 1.0625 2.1428 2.1429 3.7545 3.0491 4.4688 4.6562s-2.6875 6.2411-3.9375 8.5625 2.317-4e-3 4.2812-0.71875 5 3.0312 5 3.0312 1.8036-3.7366 2.875-5.3438-5.0089-1.6116-5.1875-3.2188 2.8571-4.4777 5-5.9062 4.4643 6.0938 5 7.3438 2.4822-1.4464 4.625-4.125 3.4152 0.71428 3.5938 2.5-3.2098 4.6518-4.2812 6.4375-2.1429 10.179-3.75 11.25-6.808-2.5179-8.5938-4.125-3.9062-1.7679-6.4062-2.125-0.18303 4.8125-0.71875 6.0625-4.1027 1.625-5.5312 0.375 1.058-4.125 0.34375-6.625-3.5759 6.4375-4.4688 5.1875 0.35268-3.0536 0.53125-6.625-1.7634-6.9554-1.4062-9.8125 1.2455-3.9107 3.0312-7.125c0 0 1.3266-0.71875 2.8438-0.71875zm-21.188 4.8438c0.86217-0.1423 1.9018 0.68304 2.4375 1.2188 0.71429 0.71429 0 10.705 0 12.312s-3.9152 5.5402-5.3438 5.7188-4.2946 0.5491-2.6875-1.5938 0.53571-2.8572 0-6.25 1.067-6.2589 1.7812-8.9375c0 0 2.1384-0.71875 3.0312-1.9688 0.22322-0.3125 0.49386-0.45257 0.78125-0.5zm-11 11.906c0.71429-0.0223 1.4777 0.125 1.6562 0.75 0.35714 1.25 0.35268 3.0223-1.9688 2.8438s-1.2411-0.875-1.0625-3.375c0 0 0.66071-0.19643 1.375-0.21875zm41.125 8.9688c0.71428 0 3.0268 3.3839 3.5625 6.0625s-2.125 8.7321-3.375 10.875-3.5759-3.375-4.4688-5.875 0.33482-5.7143 1.4062-8.75c0 0 2.1607-2.3125 2.875-2.3125zm-11.781 23.375c0.71429 0 2.1384 3.5714 0.53125 5s-2.5089 3.5625-2.6875 2.3125 4e-3 -2.4866-0.53125-4.0938c0 0 1.9732-3.2188 2.6875-3.2188zm10.125 8.875c0.8915-1e-3 1.4688 1.3594 1.4688 2.375 0 1.25-0.89732 3.7411-3.2188 3.5625s-2.4911-2.1161-2.3125-4.4375c0 0 2.1562-0.35714 3.4062-1.25 0.23437-0.16741 0.45052-0.24974 0.65625-0.25z"/>
  <path d="m328.16 946.12c-0.38504-0.067-0.73214 0.16071-1 0.875-1.0714 2.8571-0.72768 2.5134-2.1562 4.6562s-4.9866 2.1205-5.3438 6.4062-0.35715 6.4375-5 11.438-11.79 4.3036-15.719 5.375-7.5134-1.4375-7.1562 3.5625c0.0719 1.0069 0.0969 2.4243 0.0937 3.9688h57c-1.9986-1.663-3.5009-1.8144-4.2188-3.25-1.0714-2.1429-3.9375-7.5-3.9375-7.5s-5.0178-3.5938-5.375-8.5938-4.625-13.906-4.625-13.906-1.4074-2.8304-2.5625-3.0312z"/>
  <path d="m432.69 510.44c-0.19537 0.34776-0.23216 0.66362-0.0937 1.125 0.26785 0.89286 2.1518 2.0491 2.6875 2.4062s78.031 36.969 78.031 36.969l0.15625 1.875-80.531-36.625s0.14262 0.99131 0.46875 1.8438l32.688 15.75c19.91 9.0672 41.807 18.937 43.625 19.281 3.3036 0.625 5.4598 3.0536 5.9062 3.5s3.8482 1.6875 4.5625 1.6875 2.2322 1.7991 3.125 2.1562c0.47608 0.19043 39.403 19.467 77.875 38.562l63.5 30.656 0.0625-3.3125-141.53-68.781-1.4375-0.15625-0.21875-1.5938c0.55949 0.32861 1.1068 0.6151 1.4688 0.6875 0.89285 0.17858 4.0982 0.52679 4.8125 1.0625 0.66384 0.49788 119.08 57.35 136.97 65.938l0.0937-4c-10.898-5.2417-139-65.688-139-65.688l-2.1562 0.53125-1.25 0.375s-0.96558-0.40244-1.2812-0.78125-0.77396-1.5909-1.5-1.875-1.1837-0.43781-1.5625-0.40625-1.7433 0.8144-2.4062 0.625-1.1862-0.43305-1.3125-0.875-0.27871-1.4649-0.53125-1.8438-79.344-37.531-79.344-37.531-0.22158-0.46331-0.40625-0.875l-1.4688-0.6875zm84.875 43.781c0.83706-0.0586 1.3705 0.0134 1.9062 0.28125 0.30598 0.15299 0.85525 0.51127 1.4375 0.875-0.33823 0.3689-0.78834 0.75-1.25 0.75-0.89286 0-2.6875-1.0938-2.6875-1.0938s-1.8036-0.54018-0.375-0.71875c0.35714-0.0446 0.68973-0.0742 0.96875-0.0937z"/>
  <path d="m216.44 923.44-1.0938 10.719s5.0089 28.924 6.4375 34.281c0.91748 3.4405 3.9424 9.7338 6.0625 13.969h1.0938c-0.3292-1.0651-0.71853-2.031-1.0938-2.5312-1.0714-1.4286-6.0714-19.312-7.5-24.312s-1.4062-18.196-3.9062-32.125z"/>
 </g>
</svg>