<?xml version="1.0" encoding="UTF-8"?>
<svg viewBox="0 0 244.85536 285.61353" xmlns="http://www.w3.org/2000/svg">
 <g transform="translate(-23.75 37.352)">
  <path d="m177.23 81.366c-1.3041-0.01152-1.5004 1.7946-0.46317 2.3661 0.9403 0.86039 2.835 1.6375 3.6328 0.18973 0.55481-1.4543-1.3361-2.2632-2.4665-2.5056-0.23028-0.04278-0.46871-0.06638-0.70312-0.05022z" fill="#454545"/>
  <path d="m160.54 74.971c-3.8851 0.86977-2.1975 6.2652 1.0938 6.8527 14.659 6.2276 27.037 17.171 35.379 30.647 4.0681 5.3461 6.4178 11.738 10.022 17.299 0.86461 1.1626 2.9724 0.90821 1.4062 2.4554 1.4814 5.2906 2.5943 10.784 3.2812 16.362 0.24734 9.0743 3.7857 7.2195 2.3661-0.75893-0.92329-13.601-1.5006-27.369-3.7946-40.781-1.6024-4.3217-5.795-6.6406-9.6429-8.4598-1.6343-2.7266-5.3422-2.5817-7.3214-5.0446-3.8004-0.67246-6.0377-4.0321-9.375-5.7812-7.5701-4.4971-14.928-9.9416-23.259-12.812l-0.15625 0.02232z" fill="#2c2c2c"/>
  <path d="m163.24 36.422c-3.6988 3.0669-7 7.2037-8.9062 11.607 2.278 3.6774 7.2075 5.2581 10.608 7.897 13.556 8.8348 29.494 16.726 42.963 25.518 2.9831-0.34132-0.14992-6.1447 0.54023-8.2143-0.45273-3.8299 1.8847-8.9596-0.17205-12.318 0.72816-0.80801-6.5693-3.9934-9.6539-5.204-1.8596-1.4457-4.8597-3.2877-6.808-4.3973-1.8203-1.6146-3.6679-2.0932-5.5804-2.7232-0.9612-0.63453-1.9454-0.39093-3.7054-1.6964-0.84099-1.584-3.8659-2.7744-5.6027-3.1027-4.0197-2.9214-6.5788-4.922-11.54-6.3616-0.03167-0.99339-1.219-1.2345-2.1428-1.0045z" fill="#2c2c2c"/>
  <path d="m105.4 11.558c-0.17111 3.8972 6.0475 9.1109 6.9649 12.967 2.8819 8.3145 6.758 16.766 7.5 25.536-0.84348 4.798-9.6565 4.6607-8.6607 10.268 1.408 5.6171 6.4359 9.5168 9.196 14.107 0.43506 5.4571-0.17885 11.176 0.84866 16.474 5.4462-1.1867 10.519-4.9375 15.824-7.0732 4.6786-2.2036 9.8604-3.9188 11.83-9.1997 2.4722-3.4911 5.0667-6.9944 4.2937-11.534 0.84325-6.7753-0.89313-14.501 3.7437-20.095-0.58076-2.5675-4.3605-4.2967-6.942-5.1339-1.305-1.1914-2.8159-2.8619-4.7576-3.9862-7.0514-4.7957-19.929-11.717-21.764-9.7461-3.3351-2.1104-5.5141-5.2689-9.1706-7.607-1.6032-1.2343-6.7374-5.7696-8.9069-4.9756z" fill="#2c2c2c"/>
  <path d="m101.94-31.436c-4.0227 1.7155-8.3745 4.218-10.826 7.9018 1.2947 4.8561 9.6026 4.5878 9.8214 10.134 0.87793 4.5386-1.5618 10.066-6.7411 10.179-2.9791 0.9617-7.7185-1.3931-10.089 0.51339-0.23436 2.6854 4.6495 2.9109 6.1794 4.5708 22.11 11.813 42.864 25.755 64.981 37.55 4.1691 2.1404 6.8906-3.5402 10.375-4.9221 9.3771-5.8055 19.291-10.775 28.465-16.908 2.2308-0.11442 3.727-3.0699 0.9375-3.8839-11.415-5.8479-22.491-11.944-33.185-19.018-9.6704-7.9941-10.537-7.4356-11.815-9.7541 0.27086-3.3267-5.2485-4.0173-7.3261-5.8224-3.0726-1.5987-6.1366-4.3344-9.2811-5.6285-1.8123 2.9998-0.54331 7.814-4.1295 10-4.7405 4.1577-11.742 3.6751-17.478 2.6786-4.3827-1.6965-8.9917-4.6332-7.6271-10.625-0.43994-1.8646 0.95261-6.9598-2.2613-6.9645zm57.388 33.973c9.7022 3.9255 18.884 9.3724 26.83 16.071-7.8015 4.3861-15.306 9.7579-24.018 12.054-11.078-4.5653-21.53-11.214-31.362-18.058-1.854-1.4006 2.6469-2.3987 3.3848-3.3956 5.9203-3.4735 12.077-6.3929 18.2-9.5508l6.9643 2.8795z" fill="#454545"/>
  <path d="m212.26 9.0332c-5.5818 1.403-10.791 4.6902-15.179 8.3705-5.332 0.97682 3.843 4.0625 5.6026 5.8076 10.827 6.4356 21.876 13.614 32.902 19.661 4.7236-1.0863 8.0108-5.4682 12.812-6.7188 0.50492 0.93678 5.3691 0.21454 5.2009-2.8125-2.8545-4.0929-8.433-5.5999-12.656-8.058-4.9333-2.6253-9.9264-5.411-14.621-8.3036-0.45753-2.6871-4.1155-2.4171-5.7589-4.2411-2.5596-1.5033-5.1475-3.8518-8.3036-3.7054z" fill="#454545"/>
  <path d="m255.71 34.881c-3.8105 1.4171-8.4094 3.3329-10.312 7.1652-0.81015 6.6799 2.9066 13.879-1.3616 20.045-4.4055 5.4872-12.11 6.4764-17.701 10.469-5.1738 3.3342-11.592 5.4478-15.513 10.335-1.3493 5.3592-1.0236 11.269-0.15625 16.674 2.6897 2.0921 2.4034-2.4837 3.3036-3.9062 9.5694 6.0329 12.639-4.2014 18.549-6.808 3.1298-3.9882 8.4429-5.4223 12.625-8.1556 1.8649-0.37509 4.2434-3.0589 5.9912-2.4248 2.7728 2.2458 2.2987-3.2983 4.8214-2.8125 2.7967-1.1631 6.8303-2.0165 8.2143-4.9107-1.7414-11.842-3.7458-23.899-7.2322-35.312-0.34194-0.2696-0.78678-0.45651-1.2277-0.35714z" fill="#454545"/>
  <path d="m263.17 73.698c-5.3215 1.7565-10.825 4.2664-14.978 8.0357-0.83338 3.2744 3.1392-2.3089-0.2863-0.52589-12.28 6.057-23.339 11.694-35.874 17.066-1.7157-0.49164-3.1395 4.3353-1.1161 6.4286 2.2447 2.1162-0.05594 5.4105 1.0045 8.125 0.30873 9.8302 2.7067 19.462 3.1314 29.241-0.65234 15.578-2.1613 31.158-4.8056 46.451 1.2609 3.0166 4.461-0.43221 5.8705-1.6741 5.864-3.9422 12.395-6.9766 18.951-9.2188 3.2483-0.87039 8.1591-3.1334 10.714-4.1295 0.24495-2.4694 1.9806-2.4761 0.625-5.625-1.1582-2.442 2.8341 0.49382 4.1295 0.26786 1.9622 0.86741 3.3454-0.50196 4.0402-1.942 7.0308-1.4463 8.1402-9.7601 9.5089-15.58 3.9055-23.818 3.3441-48.246 1.3616-72.254-0.52363-1.3526 0.01293-4.8042-2.2768-4.6652z" fill="#454545"/>
  <path d="m37.88 68.408c-1.1611 7.6488-0.12366 28.979-0.23548 36.779 0.67056 7.1457 1.4167 2.6228-0.30024 9.4708 0.11536 4.4368 1.8588 8.6888 1.1654 13.236 0.16806 2.5693-0.49408 5.3891 0.05937 7.9152 0.08718 0.39794-1.4472 1.5475-1.2917 1.9288 1.0459 0.28452 3.6573-0.83309 3.9651-1.5569 0.58426-1.3738-0.13413-3.9468 0.27593-5.1172 0.15179-4.1544 0.38429 0.88513 0.73661 2.433-0.9951 5.9951 5.0279-1.295 7.1928-1.7647 9.9191-5.6281 20.511-10.429 29.682-17.231 1.1145-1.1017 0.88795-2.481 2.4777-1.3616 4.2872-0.90638 8.4343-3.3657 11.741-6.0045-0.57322-3.6303 2.9942 8.5266 4.8884 7.7902 4.6776-2.3597 6.8184-13.954 11.205-16.696 3.1347-4.9041 1.5114-11.402 1.7188-16.92-0.67384-3.738-6.1425-0.94018-6.6071 1.7188-0.46743 1.4022-0.38534 3.4238-0.91518 0.98214-1.6633-3.3354-6.5747-1.4249-8.9509 0.11161-0.75748 2.1057-1.6552 0.92911-3.3482 0.51339-14.416-1.0386-29.783-1.2511-42.299-9.4866-3.0487-1.3157-7.7688-7.0526-11.161-6.7411z" fill="#454545"/>
  <path d="m47.902 52.85c-2.5924 0.43638-0.10294 3.5976-2.1652 3.9955-2.4041 0.73559-3.4277 2.7204-4.9554 4.6875-3.5211 0.53029-1.4852 5.4244 0.46875 6.8304 12.011 11.293 29.484 16.195 45.847 14.605 10.692-0.36771 21.697-2.8235 30.648-8.8233 1.6872-1.8782 0.07252-4.5019-0.91779-4.494 0.37094-2.9832-4.8648-1.503-5.5108-4.1221-1.4029-1.6035-1.6887-9.0854-4.4672-8.2215-0.71487 1.5965 0.1179 5.8305-0.68908 3.3777-2.1114-3.149-6.7124 0.11169-9.7019-0.22849-15.136 3.4774-30.838 0.02497-44.673-6.4679-1.2705-0.36058-2.5313-1.2738-3.8839-1.1384z" fill="#454545"/>
  <path d="m72.389-14.293c-11.965 6.2183-22.278 15.956-29.688 27.232-4.4306 9.207-6.9751 21.108-1.7188 30.446 10.498 13.975 29.084 18.968 45.96 17.433 7.7934-0.62886 16.598-0.82343 23.192-5.3571 1.2212-0.73586 1.1959-4.311 2.4777-1.9866 2.5774 1.781 5.7096-0.93259 4.5759-3.8393 0.10092-1.9728-1.5356-3.7477 0.9375-2.3661 2.0663-1.8561-0.67781-5.4152-0.86969-7.7993-1.0892-1.712-0.95743-6.9016-3.9294-5.8614-1.4984-1.3937-2.4442-5.6657-3.8393-8.2143-0.29247-1.1026-3.3632-6.4727-1.2723-3.3929 1.4544 2.0234 3.3109-0.74075 1.808-2.2098-4.7678-11.44-17.454-15.463-26.823-22.135-3.7592-2.8782-9.3436-5.6389-9.3596-11.034-0.18643-0.58427-0.79907-1.1191-1.4509-0.91518zm-7.5 16.138c6.4051-0.69256 12.337 7.8508 7.8348 13.192-3.6553 4.7797-10.997 9.3157-16.875 5.8036-3.6236-3.3119-6.0475-9.7554-1.6295-13.393 2.8478-3.0007 6.255-5.8577 10.67-5.6027zm38.683 22.009c2.2008 5.866 3.9084 11.981 5.4464 18.08-1.6963-6.0406-3.3662-12.268-5.4464-18.08zm-4.6875 5.692c1.4635 3.8198 2.0748 7.7281 2.7455 11.763-0.83304-4.3917-1.932-8.678-3.1473-12.969l0.22588 0.67763 0.17591 0.52773zm-8.4598 8.1027c0.70002 4.0601 1.3636 8.1269 1.9196 12.21-0.69068-4.1621-1.3907-8.3233-1.9866-12.5l0.06696 0.29018zm11.339 4.3527c-0.47848 0.02936 0.11345-1.7913 0 0z" fill="#454545"/>
  <path d="m153.95 80.685c-9.7483 2.8226-18.036 9.2309-27.073 13.754-23.315 12.984-46.589 26.055-70.025 38.813-1.258 2.9744 4.6891 2.9607 6.5134 4.6089 20.761 8.9902 37.134 26.995 45.056 48.202 5.6 14.031 7.8002 29.746 3.7654 44.488 1.0109 2.6125 4.2526-0.03082 6.2054 0.11161 7.9049-5.5615 16.432-10.448 24.643-15.647 1.5852-1.0407 5.7813-3.8623 2.9911-5.692-2.1791 0.00158-4.0588 1.3894-6.0268 2.1875 2.312-1.1296 5.2183-3.6114 6.7411-4.6428 0.68082 1.7442-1.2523 8.973 1.875 8.0134 2.6994-0.73032 7.8601-4.2514 8.9286-5.4688 16.648-6.7258 14.12-6.51 20.59-10.217 1.2838-0.49805 1.2862-4.0295 2.2674-2.4397 2.2041 0.41084 4.1758-1.7636 6.2277-2.2098 3.7719-3.2354 9.8886-4.0292 13.549-7.433 5.5441-3.4571 9.55-6.821 10.335-14.442 1.3714-9.7586 1.4977-19.898 0.22322-29.688-2.2646-4.9929-0.4927-11.784-5.6696-14.978-1.5506-0.40796 0.41341-1.2288-0.64732-2.6116-1.6477-3.5769-4.3632-6.5438-6.0938-10.067-6.6353-9.0004-12.493-19.077-22.24-25.271-5.8085-4.3494-12.843-6.5942-19.389-9.193-0.90752-0.13991-1.826-0.24694-2.7455-0.17857zm41.116 79.286c-1.4476 0.77549-8.3908 4.8586-4.5982 2.3214 1.8036-2.22 4.3998-2.6812 6.9196-3.6384l-2.3214 1.317zm-20.96 11.272c-2.5164 1.6765-1.9254 0.63755 0 0zm26.406 7.2991c-1.1841 1.1105-4.7747 2.6597-4.9777 2.5446 0.72917-0.3154 6.6211-3.6562 4.9777-2.5446zm-18.571 9.7768c-6.5823 3.6593-13.126 7.3875-19.732 11.004 6.6412-3.6843 12.595-8.4775 19.746-11.101 2.2214-1.102 2.8876-1.4893-0.01388 0.09622z" fill="#838383"/>
  <path d="m49.152 136.18c-11.34-0.13155-20.333 9.3265-22.679 19.866-1.9217 8.795-1.767 18.171-0.44643 27.054 0.18851 2.6171 3.7214 2.96 3.817 0.02232 1.8263-8.7773-0.24119-18.293 3.0804-26.696 3.5042-7.8688 11.483-14.382 20.512-12.844 15.477-0.05837 28.213 10.859 37.64 22.036 10.358 12.877 16.892 29.375 17.339 45.986 0.08643 11.219-5.3178 24.512-17.165 27.545-14.521 3.5773-28.307-5.514-38.125-15.29-5.094-4.3726-8.2915-10.255-12.946-15-3.1314-1.0613-2.5218 3.7941-1.1161 5.2009 6.8795 9.9701 15.258 19.351 25.643 25.688 8.842 4.3424 18.915 8.9463 29 6.9237 9.5606-2.627 16.606-11.134 18.281-20.804 4.6741-23.617-4.8631-47.99-19.866-66.027-10.595-12.566-25.872-23.692-42.969-23.661z" fill="#2c2c2c"/>
  <path d="m151.65 0.35013c-7.04 3.2589-14.22 6.9754-21.094 10.826-0.95191 2.9383 4.2796 3.5468 5.9 5.3212 8.6522 4.6017 16.755 11.129 26.288 13.652 6.6962-1.6608 12.67-5.9187 18.884-8.9286 2.0244-0.56726 5.0327-2.9649 2.0536-4.5089-9.9231-6.0554-20.159-11.943-30.96-16.295-0.3533-0.04314-0.71554-0.13621-1.0714-0.06696z" fill="#a3a3a3"/>
  <path d="m194.8 19.279c-9.236 3.6458-18.354 8.0771-26.629 13.549-2.629 0.98312-0.73815 5.55 1.4062 3.1696 3.9092 1.327 7.9085 3.7343 10.446 7.0759-0.22697 1.856 3.0678 2.6846 3.7946 1.5179 10.796 3.5076 21.344 1.6156 32.545 2.6786 6.0007 0.17911 13.418 1.0044 17.455-4.4643-2.3653-2.4001-7.222-0.74021-10.555-1.586-44.729-3.7383-27.678-0.12925 6.7382-0.44525-0.14945-3.1349-5.5855-4.0849-7.7455-6.0938-8.9666-5.167-17.415-11.543-27.009-15.424h-0.26786l-0.17857 0.02232z" fill="#a3a3a3"/>
  <path d="m242.77 44.346c-2.8817 1.0849-6.0654 1.7687-8.8393 2.9464-7.0586 5.9194-12.764-4.2829-23.996 13.839-1.1974 6.0767-0.55811 12.845 0.29017 19.107 2.1458 2.2077 5.0309-2.3356 7.5-2.9688 8.5652-5.4493 18.649-8.6469 26.272-15.402 3.0156-4.521 2.1473-10.833 0.66705-15.706-0.32357-0.78692-0.69585-2.3261-1.8947-1.8166z" fill="#a3a3a3"/>
  <path d="m115.98-35.744c-5.1497-0.49809-12.35 3.097-11.384 9.0402 3.463 6.195 12.096 8.3258 18.661 6.3616 4.0835-1.0722 10.383-3.9044 8.4152-9.1964-2.668-5.5183-10.31-6.2189-15.692-6.2054z" fill="#a3a3a3"/>
  <path d="m88.572-20.029c-4.0956 0.34934-9.9532 4.7692-6.7857 9.1518 4.9308 3.7139 13.079 3.8522 17.679-0.42411 2.5522-3.1167-0.78574-6.9594-4.1295-7.4554-2.1651-0.75706-4.4375-1.3997-6.7634-1.2723z" fill="#a3a3a3"/>
  <path d="m64.175 2.1582c-6.8326 0.00349-15.08 7.2514-10.826 14.263 4.5749 4.3835 11.834 0.77135 15.179-3.4821 3.0699-2.5813 4.9085-8.4603 0.22321-10.446-1.4533-0.52753-3.0572-0.3867-4.5759-0.33482z" fill="#a3a3a3"/>
  <path d="m80.469-19.293c-3.4794 1.0993-6.9412 5.3929-5.8036 9.1518 0.45125 0.99337 4.6499 5.4998 7.8062 7.2157 3.7004 2.0117 6.067 2.5127 2.1938-0.5416 0.02301-1.2141-4.6422-2.753-5.285-4.6599-1.2618-3.743 0.45364-7.7755 2.294-9.5812 0.29617-0.76956-0.31804-1.7696-1.2054-1.5848z" fill="#454545"/>
  <path d="m250.56 20.305c-2.6115 0.79269-6.6512 1.9179-7.3214 4.8214 2.281 4.2421 10.374 2.0122 10.714-2.5-0.4675-1.4122-1.8656-2.5307-3.3928-2.3214z" fill="#a3a3a3"/>
  <path d="m253.84 25.685c-2.7172-0.54849-5.6429 3.7483-2.1652 4.7768 2.6431 0.89692 6.5508-2.6828 3.4598-4.6429-0.40697-0.15489-0.8652-0.19664-1.2946-0.13393z" fill="#a3a3a3"/>
  <path d="m247.39 14.524c-3.682 1.4988-7.6009 3.6274-10.067 6.7857-0.1657 3.3524 4.8827 3.0348 6.9196 1.7188 3.2469-0.9324 8.3753-4.2047 4.8438-7.8795-0.42313-0.4435-1.0793-0.71288-1.6964-0.625z" fill="#a3a3a3"/>
  <path d="m243.57 10.886c-4.3578 1.0634-9.0516 3.1301-11.897 6.6518-0.53199 3.8139 4.6473 3.3224 6.6964 1.7857 2.6874-1.765 10.087-2.5803 7.6562-7.0089-0.34377-1.0534-1.408-1.5381-2.4554-1.4286z" fill="#a3a3a3"/>
  <path d="m238.84 7.7832c-4.0342 0.05809-6.585 3.4633-10.29 4.4866-3.2549 1.7297-0.02363 6.4973 2.8795 4.1518 2.8757-3.1494 7.7985-3.5566 10.558-6.6741 0.30794-1.7735-1.89-2.0983-3.1473-1.9643z" fill="#a3a3a3"/>
  <path d="m230.29 7.2921c-2.5235 0.73209-6.2471 1.4754-7.0759 4.3304 1.2843 3.6256 5.4986 0.09056 7.4554-1.0491 1.6401-0.84286 1.9959-3.4703-0.37946-3.2812z" fill="#a3a3a3"/>
  <path d="m223.55 1.7533c-2.9694 0.45662-5.9135 1.0868-8.8993 1.4188-1.3669 0.05907-2.1982 1.592-1.9517 2.8362 0.24804 1.6281 1.957 3.0711 3.63 2.5056 2.2136-0.74348 4.0408-2.3007 5.992-3.542 0.72888-0.55005 1.5787-0.97877 2.1916-1.6644 0.43799-0.71702-0.12161-1.6351-0.96261-1.5541z" fill="#a3a3a3"/>
  <path d="m229.75 3.7232c-1.938 0.28098-3.7132 1.2044-5.4822 1.9975-1.8684 0.92944-3.773 1.8545-5.4162 3.156-0.74018 0.62837-0.30736 1.9235 0.68081 1.9503 1.5459-0.09457 3.0215-0.70396 4.4671-1.2277 2.2158-0.91249 4.4786-1.8669 6.3226-3.4291 0.60121-0.48565 1.0668-1.4748 0.41294-2.1094-0.25364-0.25673-0.63087-0.36342-0.98493-0.33761z" fill="#a3a3a3"/>
  <path d="m234.54 4.8309c-1.1431-0.00262-2.6689 0.42811-2.8627 1.7439-0.11832 1.2845 1.2696 2.0316 2.38 2.1038 1.214 0.07056 2.766-0.12254 3.3789-1.3337 0.47375-1.1211-0.62249-2.1826-1.6685-2.38-0.40131-0.09849-0.81448-0.14248-1.2277-0.13393z" fill="#a3a3a3"/>
  <path d="m147.68 80.246c-2.6892 0.51956-5.1788 2.0195-7.9392 1.9493-1.0031 0.30332-0.47873 1.571-1.4126 1.9572-2.7846 2.1481-5.9602 3.7038-9.1466 5.1376 0.14711-1.2832-1.7367-1.5618-2.3833-0.49718-0.60721 0.48914-0.68815 1.3205-0.75762 1.9808-4.0508 3.3463-8.8927 5.5152-13.358 8.2517-6.1269 3.3886-12.122 7.0282-18.406 10.105-0.51548-0.84927-2.142-1.4083-2.387 0.05616-0.51875 1.7385-2.5942 2.4426-4.0054 3.3768-1.2164 0.6321-2.4427 1.2195-3.7013 1.7599-0.22327-1.5994-2.1571-0.98764-3.0147-0.31567-0.95784 0.59779-2.8487 1.319-2.115 2.7464 0.8864 0.90541-0.12866 0.35822-0.46909-0.28776-1.4019-0.51723-2.7329 0.84237-3.9819 1.3453-0.98396 0.39707-2.3802 1.744-1.0654 2.6201 0.2288 0.34597-2.0372 1.1372-2.7047 1.6465-7.4351 1.6772-13.482 5.475-18.722 10.239-0.09966-1.3612-1.8-1.2335-2.6043-0.48929-1.0372 0.64496-3.1265 1.5668-2.2097 3.0936 1.2797 1.0573 3.1877 0.66496 4.743 0.7734 2.2317 0.05461 4.249-0.99224 5.8084-2.5175 7.664-4.4609 15.597-8.4518 23.321-12.827 11.831-6.469 23.521-13.169 35.316-19.687 10.285-6.0881 20.914-11.554 31.102-17.788 1.0541-0.39797 1.9683-2.1408 0.45712-2.5935-0.11362-0.06238-0.24198-0.0576-0.36242-0.03447z" fill="#454545"/>
  <path d="m153.99 49.981c-0.71588 0.88248-0.22928 2.1295-0.37389 3.1764 1e-4 4.7371-0.12939 9.4874-0.43502 14.205-0.07138 1.6756 1.1973 3.0162 2.6438 3.6539 0.75464 0.44223 1.9801 0.95941 2.553-0.02762 0.45536-1.1808-1.022-1.8056-1.1522-2.9002-0.79588-3.3254-0.62881-6.8519-0.4067-10.259 0.14988-0.94041 0.14233-2.1381 0.84075-2.8416 3.0267 1.8796 5.7966 4.1941 8.9296 5.9307 7.1579 4.092 14.192 8.4101 21.376 12.438 4.1814 2.1016 8.2022 4.4922 12.228 6.8735 1.4666 0.91396 3.0715 1.6145 4.5374 2.5093 0.4197 2.3496 0.19521 4.7888 0.24933 7.1736 0.06855 2.2507-0.19875 4.545 0.23207 6.7673 0.31295 1.2333 1.747 2.5621 3.0265 1.7599 1.0877-0.89124 0.75549-2.4752 0.85626-3.7131-0.00849-4.146-0.39289-8.2927-1.0259-12.386-0.30618-1.6966-2.0579-2.4836-3.3364-3.3678-2.8152-1.7729-5.9755-3.0038-8.5289-5.1475-0.96249-0.64937-2.1458-0.8819-3.2672-1.0259-3.0956-2.5174-6.6368-4.4061-10.023-6.4959-5.5629-3.2761-11.145-6.5346-16.639-9.9112-2.2796-1.3392-4.7604-2.3591-6.7988-4.0722-1.4771-0.95038-3.0314-1.8343-4.6477-2.4979-0.31139-0.14178-0.54975 0.05604-0.83709 0.15798z" fill="#454545"/>
  <path d="m194.44 46.235c-1.0863 0.13911-2.792-0.26704-3.289 1.0108-0.27218 1.3719 1.4793 1.669 2.3125 2.3263 1.2287 0.82065 2.3029 2.112 3.9433 2.1137 4.2651 0.57158 8.5906 0.86585 12.893 0.7267 3.8655-0.16528 4.3292-1.5539 0.22322-1.875 1.9785 0.17138 4.0301-0.01384 5.9654 0.41853-0.14085 1.1306-0.709 2.9194 0.76451 3.4319 1.7252 0.28921 2.6709-1.7591 2.846-3.1808 0.17965-1.309 0.29563-3.3998-1.4174-3.6942-4.6484-0.723-9.4157-0.70647-14.117-1.0175-3.3724-0.13994-6.7476-0.29215-10.124-0.26043z" fill="#a3a3a3"/>
  <path d="m214.64 53.423c-1.8839 0.58676-3.4392 2.1272-5.4297 2.3828-1.1972-1.2583-3.1426-0.5485-4.6652-0.82589-1.2088-0.03741-2.3747-1.4455-3.5379-0.58594-0.91198 1.1772 0.55714 2.2632 1.5067 2.7567 1.9421 1.0003 3.9112 2.3469 6.1551 2.4274 2.5443-0.49753 4.4909-2.4392 6.462-3.99 1.6748-1.316 2.613-3.9376-0.49107-2.1652z" fill="#a3a3a3"/>
  <path d="m221.59 46.955c-1.1358-0.08908-2.1846 1.2192-1.3337 2.0759 0.91719 0.78666 2.5975 0.86838 3.51 0.04464 0.94944-1.4572-1.0129-2.2917-2.1763-2.1205z" fill="#a3a3a3"/>
  <path d="m224.68 51.347c-1.1362 0.23763-2.6227 0.71787-2.952 1.9699-0.01312 1.5644 2.1541 1.573 3.1473 0.9375 0.8779-0.52223 1.8642-1.8816 0.74219-2.6897-0.26665-0.20002-0.61462-0.24144-0.9375-0.21763z" fill="#a3a3a3"/>
  <path d="m197.17 51.319c-1.3387 0.15951-1.3066 2.0214-0.26228 2.5949 0.94486 0.76937 2.9827 1.2237 3.5324-0.21205 0.15278-1.4204-1.5797-1.9058-2.6284-2.327-0.20874-0.05633-0.42678-0.07576-0.64174-0.0558z" fill="#a3a3a3"/>
  <path d="m174.06 38.534c-1.2878 0.70426-0.21118 2.0678 0.6529 2.6116 0.94621 0.55516 1.9566 1.7996 3.1525 1.3637 1.1809-0.52229 0.55972-2.1586-0.42369-2.5802-1.0039-0.66894-2.1146-1.5051-3.3817-1.3951z" fill="#a3a3a3"/>
  <path d="m169.26401,35.04773c-.37219.1326-.58261.49744-.92899.6728-.49966.30952-.59009,1.07263-.18408,1.49547 .40785.3695.93259.58106 1.39901.86807 .98221.53935 1.95236,1.11191 2.94975,1.61656 .51919.23175 1.194-.07079 1.34973-.62385 .1508-.44774-.07583-.94248-.45718-1.19882-1.07441-.88367-2.14989-1.76977-3.20533-2.67459-.25945-.20579-.61009-.24849-.92291-.15565z" fill="#a3a3a3"/>
  <path d="m166.63209,33.58084c-.42035.13679-.80181.45742-.96379.87402-.13673.40984.03188.83958.31055,1.14642 .27367.41861.8442.65629 1.31217.42416 .44308-.17733.64822-.67876.60512-1.13061 .01321-.42826-.06739-.92526-.46447-1.16672-.22812-.1638-.5279-.20501-.79958-.14727z" fill="#a3a3a3"/>
  <path d="m242.36795,42.08248c-.45732.01933-.89087.18939-1.31107.35736-.83827.35595-1.637.8146-2.3459,1.38784-.33594.28258-.67921.60822-.79659,1.04633-.12491.42858.04262.92604.41274,1.17974 .31124.22911.72567.26039 1.09474.18051 .51552-.1093 1.00607-.3114 1.48608-.52465 .637-.30779 1.23751-.69257 1.79298-1.12864 .35536-.28907.71761-.62285.8518-1.0762 .10508-.36163.02473-.76685-.23475-1.05022-.23819-.26338-.60103-.3825-.95003-.37207z" fill="#a3a3a3"/>
  <path d="m255.68737,29.90794c-.75696.00662-1.65919.36526-1.8471,1.17606-.16354.6962.40882,1.34352 1.07422,1.46205 .66024.18429 1.35596.09242 2.02846.04046 .60561-.0407 1.24991-.43216 1.28684-1.09204 .06784-.70884-.59119-1.18561-1.20313-1.37448-.42945-.14787-.88481-.22334-1.33929-.21205z" fill="#a3a3a3"/>
  <path d="m113.59 77.818c-0.88903 0.11872-1.1534 1.1055-1.327 1.841-0.61152 2.7683-0.70547 5.6166-0.82968 8.444-0.04506 2.2759-0.14277 4.5797 0.26062 6.8304 0.10655 0.71955 0.61347 1.5431 1.4341 1.4843 0.90255-0.07674 1.2269-1.0718 1.405-1.8177 0.65165-2.8912 0.77436-5.8648 0.8713-8.8171 0.01468-2.1806 0.06648-4.3822-0.34846-6.5325-0.13372-0.72281-0.61602-1.529-1.4659-1.4324z" fill="#454545"/>
  <path d="m115.92464,88.33422c-.80988.12695-1.07933,1.03226-1.0358,1.74212-.00407.97795-.0858,1.97995.10306,2.94357 .16935.72814 1.15469,1.18655 1.74412.63227 .5657-.48486.55731-1.3232.67038-2.00508 .05135-.94729.07671-1.98475-.40847-2.83345-.23842-.34326-.6549-.54334-1.07329-.47943z" fill="#454545"/>
  <path d="m119.07545,74.92996c-.84464.14604-1.02009,1.09807-1.14969,1.80029-.72618,4.49819-.76128,9.07382-.70291,13.62032 .06045.85439-.03436,1.86761.58202,2.54511 .50607.52897 1.47861.31491 1.7796-.35711 .59904-1.32736.64613-2.82006.81762-4.2463 .18775-2.43432.10967-4.88129.1162-7.3211-.04749-1.77266.03302-3.56569-.28077-5.31714-.16969-.50362-.65022-.79116-1.16207-.72407z" fill="#454545"/>
  <path d="m124.75 89.885c-1.1424 0.05427-2.0243 0.92346-2.7128 1.752-0.41222 0.4806-0.45715 1.312 0.1439 1.6592 0.78501 0.42077 1.658-0.06764 2.4095-0.35118 0.80537-0.34205 1.7226-1.0585 1.5621-2.04-0.10607-0.65556-0.76283-1.0777-1.4028-1.02z" fill="#454545"/>
  <path d="m109.82028,21.3518c-.39198.47808-1.21873.36842-1.42053.98648-.36087,1.03635.57016,2.04876.87797,3.03322 1.19274,2.76131 2.22281,5.60341 3.20313,8.43074 .44947.85785 1.68469.80206 2.47093.53307 1.06202-.54675.36678-1.78856.10176-2.61422-1.22225-3.35416-2.41824-6.73576-3.86079-9.99378-.27775-.50725-.87372-.60281-1.37247-.37551z" fill="#454545"/>
  <path d="m118.29215,45.73752c-.37381.49981-.97477.47183-1.38605.9126-.52897.94999.35447,1.93299.58887,2.85051 .35776.8855.83745,2.35605 2.07565,2.02159 1.14271-.50608.703-1.93535.55735-2.88806-.26506-.91042-.21326-2.03814-.87441-2.74607-.29435-.24462-.60921-.20656-.96141-.15058z" fill="#454545"/>
  <path d="m152.98 69.464c-1.6296 0.26286-2.2758 2.0804-3.1194 3.2812-0.8259 1.6719-2.0218 3.5232-1.5625 5.4576 1.0079 2.2366 3.847 2.2244 5.9373 2.1448 2.2789 0.16888 3.8431-1.8764 4.5147-3.8133 0.69774-1.534 1.0439-3.7548-0.61941-4.8158-1.523-1.0067-3.2815-2.1637-5.1507-2.2545z" fill="#2c2c2c"/>
  <path d="m164.3 72.84c-1.4381 0.08649-1.6001 1.9834-0.64174 2.779 0.81077 1.0132 2.9269 1.6189 3.4598 0.03348 0.34383-1.5087-1.4472-2.8676-2.8181-2.8125z" fill="#454545"/>
  <path d="m181.13 83.331c-1.2175 0.02192-1.3547 1.6657-0.47991 2.2824 0.831 0.90634 2.7493 1.651 3.5603 0.44085 0.74751-1.3982-1.0624-2.3135-2.1708-2.6228-0.2929-0.09555-0.6027-0.12194-0.9096-0.10045z" fill="#454545"/>
  <path d="m186.99277,86.90216c-1.18749.03488-1.35136,1.67268-.3962,2.20424 .85452.62183 1.82031,1.51513 2.9199,1.43723 1.4717-.38127.6482-2.229-.17995-2.8658-.6424-.55432-1.495-.85166-2.34375-.77567z" fill="#454545"/>
  <path d="m194.75 91.612c-0.99906 0.91144 0.18733 1.9805 0.95982 2.5167 0.97593 0.58133 2.0532 1.9855 3.2924 1.3504 1.1075-0.8731 0.12352-2.4292-0.92634-2.8348-1.0207-0.43875-2.1525-1.6484-3.3259-1.0324z" fill="#454545"/>
  <path d="m201.36 94.938c-1.2096-0.11802-1.7568 1.5441-0.77009 2.1987 0.90859 0.5553 1.9005 1.5941 3.019 1.3225 0.9807-0.32587 0.83143-1.7572 0.02232-2.3996-0.56122-0.6585-1.3635-1.2189-2.2712-1.1216z" fill="#454545"/>
  <path d="m206.3 97.873c-1.5673 0.11476-1.5634 2.1971-0.47991 2.9464 0.83335 0.8515 2.7484 1.3111 3.2366-0.12277 0.44904-1.526-1.3694-2.9132-2.7567-2.8237z" fill="#454545"/>
  <path d="m29.675 185.35c-1.4281 0.04672-2.3264 1.5421-2.0424 2.885 0.53313 4.7035 2.4253 9.1371 4.3806 13.404 1.335 2.4554 2.4256 5.3776 4.9163 6.8917 1.2179 0.55084 3.0341-0.32578 2.6451-1.8304-0.80064-2.9616-2.4492-5.6199-3.4822-8.4914-1.5988-3.7762-2.6257-7.8024-4.3582-11.537-0.38885-0.7615-1.1539-1.4205-2.0592-1.3226z" fill="#2c2c2c"/>
  <path d="m209.89 176.18c-1.1226 1.2589-1.4991 3.0363-2.5446 4.3806-1.9131 2.9823-4.7593 5.2489-6.8694 8.0804-0.94572 1.531 0.20309 3.2375 1.4509 4.1629 1.3708 1.3815 3.6851 0.8894 4.8047-0.55803 2.5752-3.0619 3.5028-7.1173 4.4212-10.912 0.26424-1.6045 0.44728-3.3452-0.05734-4.903-0.38856-0.31699-0.72272-0.3771-1.2054-0.25112z" fill="#2c2c2c"/>
  <path d="m89.106-24.075c-1.3734 0.24515-2.555 1.0787-3.7619 1.7375-1.0313 0.69917-2.3092 1.2753-2.8787 2.4477-0.34534 0.88026 0.50666 1.7266 1.3839 1.5904 1.7566-0.16259 3.2713-1.2425 4.6261-2.2935 0.69918-0.66011 1.6723-1.252 1.8778-2.2545 0.08101-0.70554-0.55202-1.302-1.2472-1.2277z" fill="#454545"/>
  <path d="m118.06 229.77c-1.9644 0.28873-3.6369 1.6139-5.3768 2.5129-0.83451 0.65688-2.2949 0.98715-2.4468 2.2025 0.11647 1.3361 1.6519 1.0899 2.4777 0.625 2.3141-1.0546 4.8418-2.0098 6.635-3.8616 0.3549-0.89682-0.40229-1.6335-1.2891-1.4788z" fill="#838383"/>
  <path d="m124.13 226.2c-1.5294 0.42467-3.0502 1.2591-4.0792 2.4833-0.64327 1.1086 0.81061 2.0521 1.7411 1.4174 1.3094-0.62267 2.983-1.1942 3.5938-2.6172 0.15571-0.72943-0.53452-1.4051-1.2556-1.2835z" fill="#838383"/>
  <path d="m144.7 214.62c-2.8179 0.88777-5.3082 2.5996-7.9153 3.9593-3.7915 2.2486-7.7296 4.3243-11.22 7.0451-1.0526 0.82013 0.09875 2.4994 1.2556 1.8304 4.8496-2.3418 9.2639-5.4897 14.042-7.9533 1.6743-1.0001 3.5754-1.7964 4.914-3.2464 0.52167-0.75385-0.20855-1.7774-1.077-1.635z" fill="#838383"/>
  <path d="m51.334 143.4c-4.8048-0.24623-9.5531 1.7144-12.895 5.1691-4.9255 4.7173-7.1944 11.445-7.8201 18.098-0.58841 5.2918-0.89934 10.742 0.11764 15.995 0.11441 1.1376 1.4603 2.6055 2.4622 1.3416 0.75201-2.8377 0.32788-5.9084 0.51924-8.8387-0.00682-5.6453 0.40295-11.438 3.2057-16.47 2.8226-6.0829 8.7395-10.648 15.444-11.27 9.706-1.0696 18.976 4.0822 26.162 10.134 9.0635 7.5581 16.37 17.229 20.984 28.094 2.5142 5.5196 4.4896 11.447 4.3642 17.583-0.02274 5.5593 0.32992 11.221-0.29989 16.715-1.2494 4.5794-4.2091 8.748-7.8597 11.799-3.8402 3.2219-8.9552 4.3777-13.859 3.7955-6.8919-0.68095-13.371-3.7114-19.027-7.6055-7.326-5.3976-13.049-12.501-19.17-19.14-1.1631-0.90486-2.2711 0.86144-1.3574 1.7914 4.733 7.1298 10.511 13.552 16.933 19.205 4.9954 3.8165 10.753 6.629 16.6 8.906 3.4185 1.0023 7.0714 0.75424 10.598 0.81332 3.5242-0.04665 7.2243-0.37552 10.147-2.594 6.2306-3.9248 10.026-10.85 11.011-18.036 1.357-8.6852 0.38313-17.606-2.391-25.919-3.4283-10.571-8.5533-20.717-15.673-29.277-5.5381-5.9144-11.631-11.387-18.35-15.901-1.8623-1.0792-4.0147-1.4523-5.928-2.4533-4.3887-1.8774-9.2176-2.0057-13.918-1.936z" fill="#838383"/>
  <path d="m32.781 185.02c-1.1621 0.54451-0.45947 2.4904-0.19729 3.5671 1.7353 5.8828 4.145 11.572 6.8974 17.038 0.36895 1.1588 2.3101 1.4722 2.4465 0.02368-0.37513-3.2161-2.3864-5.9613-3.3117-9.0324-1.5531-3.7293-2.4162-7.87-4.5091-11.376-0.35666-0.2881-0.86855-0.57878-1.3258-0.22097z" fill="#838383"/>
  <path d="m189.84 73.36c-1.2568-0.4933 1.2182 0.3031 4.2402 2.1414s9.657 5.822 11.046 6.2565c0.72223 0.226 1.022 2.2187 0.80672 6.75-0.34425 7.2477 0.01291 9.25 1.65 9.25 0.67664 0 0.83263-2.5256 0.44777-7.25-0.32482-3.9875-0.75682-7.7942-0.95999-8.4594s-2.753-2.4116-5.6664-3.8811-5.0844-2.7951-5.4885-3.4105-3.5801-1.3165-3.3085-0.8994-0.34261-0.4436-0.96001-0.9085c-1.808-1.3614-5.9725-3.986-10.79-6.7616-6.4625-3.7233-13.013-7.6423-14.558-8.7087s-5.6188-2.8061-6.1508-3.3905-1.474-1.2782-2.5417-1.8303l-3-1.5514-0.07651 7.2757c-0.04208 4.0016-0.22725 8.0631-0.41149 9.0255s0.41269 2.1862 1.3265 2.7196c2.2761 1.3285 2.7948 1.2639 1.3615-0.1694-1.4016-1.4017-1.6002-12.619-0.2609-14.736 0.7529-1.1899 1.1784-1.2117 2.4847-0.1276 0.3139 0.2605 0.58439 0.4477 0.80831 0.561s2.8858 2.0017 3.8039 2.7157 2.507 1.6646 4.964 3.0178c4.5287 2.494 17.031 10.091 19.936 11.631 1.2085 0.6407 2.5539 1.233 1.2971 0.7397zm71.66-1.1722 1.8741-0.9517c0.14715-0.099-0.20165-3.4882-0.77509-7.5315s-1.9857-10.973-3.1383-15.399-2.3123-9.2505-2.5771-10.721l-0.48149-2.6732-4.6478 2.557c-7.2487 3.9878-7.042 3.5884-5.442 10.514 1.639 7.0946 0.45077 13.852-2.8413 16.158s-4.963 3.5284-6.2923 3.8204-2.5047 0.802-3.6994 1.5259c-1.855 1.124-6.2102 3.5573-9.6783 5.4074-13.983 7.4594-13.194 6.4745-13.194 16.486 0 4.7432 0.42063 8.3776 0.96958 8.3776 0.53327 0 2.6708-0.9435 4.75-2.0966 10.098-5.6005 14.28-8.089 14.28-8.4971 0-0.5521-6.2068 2.5882-12.804 6.4782l-4.9458 2.9162v-2.2741c0-1.7351 0.44653-2.1572 1.8842-1.7813 1.0515 0.275 4.9754-1.1317 8.8789-3.1829 3.8471-2.0216 7.5125-3.3556 8.1453-2.9645 0.68838 0.4254 0.87921 0.272 0.47505-0.382-0.37155-0.6011 0.03096-1.4884 0.89447-1.9716 1.5813-0.8383 3.3722-1.6763 4.3359-2.1791 1.6837-0.572 4.3324-2.1177 9.6362-5.1031 3.5975-2.025 5.4428-2.6844 4.6086-1.6468-1.2174 1.514-1.1861 1.6517 0.25 1.1006 0.90279-0.3465 1.6414-1.3049 1.6414-2.1299 0-0.8523 0.58601-1.2751 1.357-0.9793 0.74638 0.2865 2.5224-0.2437 3.9467-1.178l2.5897-1.6988zm-32.409-31.43c2.9717 0-15.277-10.08-16.27-10.813s-1.835-1.3672-2.5271-1.904-7.0462-4.2827-7.6286-4.2827-1.059-0.45-1.059-1-2.0001-0.5871-3.2225-1.4433-3.032-1.5567-4.0214-1.5567c1.8911-0.4206-19.775 8.4608-27.756 14.985 0 0.3209 1.4625 1.393 3.25 2.3825l3.25 1.799-2.5-2.0612c-3.9731-3.2756-0.9659-2.4362 5.2895 1.4766 3.1498 1.9702 5.4909 3.9641 5.2024 4.4309s0.00235 1.1743 0.6463 1.5723c0.73122 0.4519 0.90292 0.2901 0.45729-0.4309-0.93844-1.5185 0.31016-1.4524 3.442 0.1821 1.5982 0.8341 6.9497 1.4125 14.457 1.5625 6.5555 0.131 12.389 0.4713 12.962 0.7563s4.5343-0.1958 7.1988 0.1964c5.2016 0.1542 7.2933 0.5145 9.7387-1.623 1.8667-0.9508 3.1902-2.0663 2.941-2.4788-0.4899-0.8109-3.6665-0.9207-5.6755-0.5251-0.96429 0.1899-4.7027 0.254-7.1386-0.0675-4.5617-0.6021-13.033-1.1509-27.021-1.7915-6.6-0.3022-12.406-0.9369-12.903-1.4103-0.50523-0.4818 3.8564-0.5913 9.9077-0.2486 3.877 0.2196 6.5823 0.2962 8.2032 0.1644 3.3402-0.2716 6.0647-0.0321 7.8622 0.5105 1.9238 0.5807 4.0482 0.6181 8.1712 0.6181 4.5421 0 11.771 1 14.743 1zm-15.16-11.608c0.82862 0.6835 17.93 11.279 19.947 11.952 3.6044 1.4753 0.95738 2.1305 2.735 0.5983 1.0566-0.9107 3.2926-2.5173 8.4936-5.0157 3.7771-2.1042 5.4745-2.6895 4.5817-1.5798-1.3218 1.6429-1.235 1.6793 1.2759 0.5353 1.4818-0.6752 2.5328-1.7117 2.3356-2.3034-0.35622-1.0686-13.904-8.7022-14.459-8.147-3.1235-1.1359-7.767-5.6865-11.98-6.6328-0.68956 0.1584-1.2537-0.4068-1.2537-1.2559 0-0.9596-0.41251-1.4432-0.96374-1.5271-0.91357-0.139-3.119-1.2174-4.0132-2.144-0.68689-0.7117-2.0504-1.4734-4.3786-2.7009-3.1035-1.6363-4.3226-1.82-6.25-0.9418-1.317 0.6001-2.0823 1.5769-2.3945 1.8715-0.69043 0.6515-2.283 0.8363-2.872 1.3346-0.75517 0.6389-2.1347 0.8056-4.187 2.1011l-4.3272 2.7316 2.1931 1.7759 4.6931 2.9553 7.876 4.4134c1.104 0.5856 2.1202 1.2954 2.9488 1.9789zm-29.693-6.3923c1.1471 0 7.368-4.1478 7.368-4.9126 1.406-1.1359 2.938-0.9895 3.8456-1.5817 1.7688-0.6788 1.7895-0.6634-7.8476-5.8439-10.567-4.3866-14.092-7.7257-23.292-13.406-10.947-6.8142-11.653-7.1025-14.633-5.9777l-5.1005 1.7644-6.6997 2.4319c-3.6848 1.3375-6.8928 2.2387-7.1288 2.0027-0.82154-0.8216 1.9433-3.2708 5.139-4.5525 1.7693-0.7096 4.1801-2.0215 5.3573-2.9154s4.6278-2.6304 5.952-3.2337 2.4076-1.4303 2.4076-1.8377-1.6297-1.7022-3.6216-2.8775c-1.2434-0.7336-2.0605-1.1766-2.553-1.3462s-3.1407-1.4981-3.7835-2.236-1.5668-1.5339-2.5843-2.1825l-3.4577-2.2039v2.3888c0 7.232-5.8842 11.519-15.81 11.519-4.96 0-6.545-0.4746-10.04-3.0063-4.132-2.9932-4.15-3.0345-4.15-9.5 0-3.5715-0.38931-6.4937-0.86514-6.4937s-1.9383 0.7993-3.25 1.7763-3.6019 2.3921-5.0894 3.1447c-4.4735 2.2632-3.9615 4.329 1.6426 6.6271 5.437 2.2295 6.3581 3.9009 5.7372 10.411-0.27774 2.9124-1.0315 4.1155-3.4868 5.5659-4.7146 2.785-11.836 2.3627-16.193-0.9603-3.071-2.3424-3.4958-3.207-3.4958-7.1155 0-2.447 0.40186-4.4491 0.89301-4.4491s1.156-0.6854 1.4775-1.5232c0.47685-1.2426 0.22033-1.3282-1.393-0.4648-2.9699 1.5894-5.2383 5.5908-4.4958 7.9302 0.62748 1.977 10.893 10.058 12.777 10.058 0.51306 0 2.1273 0.832 3.5872 1.8489s6.0294 3.5934 10.154 5.7255c7.8625 4.0639 20.145 11.394 21 12.532 0.275 0.3662 4.55 2.8158 9.5 5.4437s12.375 6.945 16.5 9.5937 7.9515 4.8249 8.5032 4.836 2.2298-1.2794 3.729-2.8677 6.7654-4.9743 11.703-7.5244c6.2977-2.0535 5.8069-4.2314 11.697-6.5877zm1.368-2.5c-2.9799 0.9458-7.9568 4.525-12.893 7s-9.4995 4.5-10.14 4.5c-2.9816 0-32.987-17.518-33.696-19.673-0.21401-0.6505 3.6493-3.2573 8.6717-5.8513 5.6658-2.9263 8.5441-3.3401 8.5935-4.3715 1.7966-0.7868 2.6261-1.438 4.4485-2.2485 2.4292-0.8468 3.7193-0.5243 8.464 2.1156 11.134 3.8444 16.573 8.2625 24.123 13.41 4.8999 3.0999 5.409 4.1726 2.4291 5.1184zm57.567 67.232-1.9225 1.3083-10.072 5.2297c-5.5398 2.8763-10.297 5.4899-10.572 5.808-1.2788 1.4791-7.2564 3.7605-8.5513 3.2636-2.0069-0.7701-1.817 0.658 0.30128 2.266 0.9625 0.7307 1.2303 1.3428 0.59516 1.3603-1.2164 0.0335-1.097 2.6658 0.70419 15.532 0.53899 3.85 1.0439 9.025 1.1221 11.5 0.07816 2.475 0.63406 4.8717 1.2353 5.3261 0.6983 0.5277 0.73198 0.9785 0.09323 1.248-0.55854 0.2356-0.85573 2.9663-0.6732 6.1855 0.44562 7.8591-2.0906 31.364-4.3618 40.424-0.59303 2.3656-0.42483 2.6187 1.4199 2.1363 1.1509-0.301 1.8614-0.9215 1.5787-1.3788-0.83999-1.3592 17.761-10.97 20.036-10.352 1.2917 0.3503 1.5645 0.2371 0.77037-0.3196-1.5146-1.0616 4.1405-4.7091 6.1221-3.9487 0.7089 0.272 1.9231 0.0438 2.6982-0.5072 1.0744-0.7637 0.93402-0.86-0.59068-0.405-1.9702 0.5879-1.971 0.5743-0.05887-0.9057 1.0676-0.8264 2.321-1.5025 2.7852-1.5025s0.37822-0.8704-0.19113-1.9342c-1.5328-2.8642-1.2601-3.5714 0.71482-1.8536 0.9625 0.8372 3.2302 1.507 5.0393 1.4884 2.0697-0.0213 2.8113-0.3318 2-0.8373-0.86704-0.5403-0.21063-1.0208 2.0041-1.467 3.7524-0.7561 5.0561-2.8174 7.5243-11.896 1.9747-7.2639 3.6766-28.404 3.6798-45.712l0.00243-12.711c-1.2121-3.6277-0.87831-7.2241-1.3241-11.327-0.49509-5.0875-1.0512-9.414-1.2358-9.6145-0.31784-0.3451-7.2091 2.8865-10.44 4.8958-0.825 0.513-4.2 2.5147-7.5 4.4482s-5.6373 3.5165-5.1939 3.5179c1.0422 0.0033 11.174-5.0562 15.694-7.8367 3.6828-2.2657 5.4928-2.7671 4.564-1.2643-0.55708 0.9014-5.2487 3.5481-13.53 7.6329l-4.4663 2.203zm-215.34 105.67c-1.2772-1.9507-2.8911-7.6745-3.0886-8.4654s-0.59598-6.2189-0.88565-12.062c-0.67769-13.67 1.7346-22.74 7.7977-29.318l3.947-4.2819v-12.638l-0.08297-14.451 0.36738-20.358c0.32881-11.154 0.47148-20.407 0.31704-20.562-0.96373-1.4 0.32114-2.7889 0.39855-4.6531 0-2.5835 0.64662-3.8087 2.7309-5.1743 6.4826-4.2476 7.9358-8.9787 3.9126-12.738-1.2961-1.2112-3.1876-3.7772-4.2034-5.7022-3.3906-6.4256-1.9487-22.327 2.8674-31.622 1.431-2.7619 3.4159-5.1715 9.9042-12.024l4.6923-4.477 10.298-6.8032c5.6639-3.7417 13.212-8.3453 16.773-10.23s10.263-5.4291 11.776-6.4252 5.5952-3.2978 9.0727-5.115 7.2904-3.3038 8.4732-3.3038 2.6728-0.4132 8.3372 0.3632 10.966 3.9036 11.722 6.9141c0.30961 1.2335 1.8888 3.026 3.5093 3.9833l2.9464 1.7405c5.7522 3.4135-3.3233-1.9727 8.2462 4.9485 4.2364 2.4567 5.9434 4.0416 5.9434 5.5184 0 1.4977 2.0092 3.3003 7.25 6.5047 3.9875 2.438 7.4842 4.7634 7.7704 5.1675s15.841 8.8691 21.323 11.962c6.7879 3.8303 8.5341 4.4326 10.407 3.5895 1.2375-0.5572 2.25-1.3004 2.25-1.6517s1.575-1.2081 3.5-1.9042c2.9968-3.8139 3.423-3.7996 5.9208-6.106 1.484-0.5642 4.1339-1.2093 5.8887-1.4336s4.4951-0.7409 6.0897-1.148c2.0717-0.529 2.697-0.4132 2.191 0.4056 1.4724 3.4837 3.1654-1.4209 4.6932 0.4063 0.78544 0.6594 2.1406 1.3804 3.5551 1.8447 4.7055 1.5446 9.9283 4.8901 13.423 8.5987s5.2768 6.5272 8.6861 13.571 4.052 9.3616 4.052 14.614c0 3.4335 0.47345 7.1274 1.0521 8.2086s1.4861 5.2142 2.0165 9.1843l2.666 16.416 0.67479 6.9013 1.5906 13.49v15.212c0 22.725-3.2804 47.289-7.1622 53.631-0.73579 1.2022-3.9161 3.5672-7.0674 5.2555s-5.5364 3.3821-5.3003 3.7642l-1.97 0.1101-6.5 3.4683c-22.718 12.122-32.98 17.01-36.75 17.504-3.6293 0.4761-4.25 0.2952-4.25-1.2385 0-0.9878-0.35485-1.796-0.78856-1.796-2.1971 0-22.211 11.754-22.211 13.044 0 0.5257-0.7875 0.9748-1.75 0.998s-6.25 2.5262-11.75 5.5622-11.199 6.0262-12.664 6.6448-8.5538 4.8049-10.605 6.0932-6.4301 3.8256-9.7301 5.6384-8.025 4.4336-10.5 5.824c-2.475 1.3905-6.4478 3.5844-8.8285 4.8754s-6.8807 3.7869-10 5.5467c-5.176 2.92-6.4578 3.2053-14.671 3.2653-3.6438 0.2505-15.603-3.6271-18.237-5.4744-10.106-5.3847-19.095-13.395-26.228-23.374-1.5511-2.5855-3.1353-4.3898-4.6418-5.63-1.3843-1.8765-2.0278-3.0078-2.6324-4.5815-0.27187-1.0126-1.0123-2.6524-2.2813-5.283-1.3862-2.8734-3.2987-7.7093-4.25-10.746zm63.745-212.29c-2.8668-0.7782-6.181 0.4902-6.5402 1.0248-0.99146 0.2637-2.0243 0.8544-2.8596 1.7774-3.9921 4.4112 3.5908 8.8237 12.057 7.0158 1.7226-0.3678 3.6351-0.9797 4.25-1.3597s1.118-1.8124 1.118-3.183c0-1.8984-0.82607-2.8371-3.4679-3.941-2.361-0.9865-3.7578-1.4421-4.5571-1.3343zm27.164-16.185c-0.52263-0.0166-1.7882-0.1943-4.3654 0.2624-2.9193-0.2274-6.7084 1.779-8.3124 4.2269-2.962 4.5205 0.5918 8.1811 10.539 10.855 2.3046 0.6196 10.97-1.9369 13.101-3.8648 4.3153-3.9053 0.56736-9.4427-7.4032-10.938-1.35-0.2533-3.0566-0.5674-3.5581-0.5418zm-64.729 41.46c3.8151-3.366 6.4637-5.0378 9.5898-5.0758 4.8078-0.5694 5.1389-0.4455 8.5914 3.2152 3.0183 3.2003 3.4947 4.2989 2.988 6.8894-1.2988 6.6386-7.8196 11.582-15.278 11.582-3.7642 0-4.5086-0.4106-6.7656-3.7322-3.5338-5.2004-3.2956-8.7083 0.87461-12.878zm4.2136-9.9595c-1.067 0.7492-2.1651 2.1288-3.0514 2.7063s-2.3959 2.137-5.1845 5.0435c-8.6158 8.9803-12.636 21.315-10.844 33.267 1.3649 9.1015 13.867 18.584 28.956 21.962 10.059 2.2518 26.755 1.5249 36-1.5673 6.0845-2.0351 6.9688-2.6356 6.7618-4.5913-0.13102-1.2375 0.20648-2.25 0.75-2.25s0.98821 0.675 0.98821 1.5c0 1.6378 1.7579 1.9402 3.7888 0.6517 0.96124-0.6099 1.0311-1.4954 0.27476-3.4847-0.55771-1.4669-0.78859-2.667-0.51308-2.667s-0.18563-1.3277-1.0248-2.9504c-1.6756-3.2402-2.0807-6.0508-0.6486-4.4996 0.48239 0.5225 1.6436 3.3125 2.5804 6.2s1.9007 5.25 2.142 5.25c1.569 0-7.2491-26.711-10.894-33-3.4545-5.96-5.6408-7.7517-17.979-14.734-12.894-7.2974-18.233-12.095-17.173-15.433 0.57973-1.8265 0.42852-1.8943-1.7086-0.7661-1.2896 0.6807-4.973 3.0138-8.1854 5.1847-2.9386 1.9858-4.0654 3.4982-5.035 4.179zm110.13 178.95c-18.152 9.6936-22.001 12.054-20.426 11.258l-6.662 3.6619c-3.6641 2.014-6.662 3.2162-6.662 2.6715s2.8606-2.401 6.3568-4.1251l3.3211-2.2418 4.9998-2.3869 3.4111-1.7027c9.6629-4.8235 19.905-10.168 19.908-11.333 0.00208-0.8426 0.69372-1.0983 1.9191-0.7094 1.0537 0.3345 2.2053-0.8602 2.559-1.4326 0.78259-1.2662 2.5251-1.378 2.5251-0.162 0 0.4833-1.3197 1.4254-2.9328 2.0935-4.8578 3.4762-2.8924 1.1451-8.3172 4.4081zm-20.035 36.613c0.43171-0.0037 2.1349-0.9007 3.7849-1.9935s3.675-1.9717 4.5-1.9533 0.2625 0.7048-1.25 1.5253c-3.7581 2.0388-3.5009 2.8677 0.2827 0.9111 1.668-0.8625 2.7783-1.9799 2.4673-2.4831s0.91182-1.6688 2.7173-2.5904 6.5375-3.6407 10.516-6.0426c7.2178-4.3578 10.021-5.3964 8.6715-3.2124-0.44563 0.721-0.27393 0.8828 0.45729 0.4309 0.64395-0.398 0.93839-1.0997 0.6543-1.5594-0.73899-1.1957 8.3355-6.297 10.039-5.6434 0.78163 0.3 1.314 0.0656 1.1831-0.5209s3.2253-2.8544 7.4583-5.0399c7.0292-3.6293 7.8526-4.3789 9.5-8.6478 2.4398-6.3225 2.3842-30.059-0.08136-34.674-0.88144-1.65-1.6054-3.7664-1.6088-4.703-0.00968-2.6765-2.1967-6.797-3.6077-6.797-0.70426 0-1.6058-0.5265-2.0035-1.17-0.48618-0.7866-0.1779-0.9607 0.94099-0.5313 2.0404 0.7829 2.0407 0.7635 0.05409-3.2187-0.88547-1.7749-2.2613-3.4771-3.0575-3.7826s-1.2203-1.1477-0.94252-1.8715c0.56482-1.4719-6.2934-7.5063-7.4432-11.158-0.04834-0.1535-5.0098-9.6741-17.68-17.728-0.46764-0.3207-4.144-2.2654-4.5552-2.3981-0.88254-0.6574-2.2503-1.3456-4.1997-2.1368-3.0186-1.2252-5.7486-1.8978-6.4816-2.1559-1.0648-0.8731-4.0134-2.5219-7.6957-0.8141-0.45888 0.4419-4.8843 2.9262-9.8343 5.5208s-12.6 6.8592-17 9.477c-9.2207 5.4858-12.091 7.0993-23.031 12.946-4.3832 2.3428-10.444 5.7239-13.469 7.5135-3.025 1.7897-8.875 5.0432-13 7.2301s-9.8283 5.2564-12.674 6.8211l-5.174 2.8449 4.0332 1.8058c2.2183 0.9931 4.4181 1.8057 4.8885 1.8057s4.3588 2.1251 8.6408 4.7226c8.9029 5.4004 18.158 14.255 24.2 23.152 4.8205 6.7842 5.0642 7.8138 7.524 12.816 7.1334 14.202 10.525 31.094 8.6583 43.123-0.59657 3.8449-1.3806 7.7621-1.7424 8.7047-0.56428 1.4705-0.3614 1.5554 1.4282 0.5977 1.1472-0.614 2.678-1.096 3.4016-1.0712s-0.70926 1.1296-3.1843 2.4548c-5.442 2.9141-4.5489 3.3309 1.034 0.4827 2.1749-1.1096 3.8445-2.5275 3.7102-3.1509-0.23549-1.093 7.2681-5.9356 20.454-13.2 4.2995-2.3688 6.4079-4.1647 6.6348-5.6516 0.31192-2.0437-0.09262-1.9447-6.5 1.5915-3.7579 2.0739-9.0826 4.9313-11.833 6.3497s-5.225 2.8491-5.5 3.1792c-0.93501 1.1226-5.1692 3.0639-5.645 2.5881-0.55654-0.5565 13.671-8.911 25.395-14.912 3.3835-1.7318 4.25-2.7156 4.25-4.8251 1.6933 2.06 1.5691 5.5973 1.7151 7.0418zm-52.438 33.327c11.559-4.8596 16.723-14.306 16.723-31.387 0-19.392-8.2116-38.971-24.029-57.296-2.6872-3.1131-13.357-11.638-14.566-11.638-0.41097 0-1.4764-0.6599-2.3675-1.4664s-4.6494-2.6065-8.3516-4c-22.072-8.308-37.707 3.8353-37.675 29.262 0.01464 11.583 0.84308 16.382 2.7623 16.001 1.2273-0.2433 1.462-2.1391 1.3047-10.538-0.28631-15.285 3.1736-23.544 12.199-29.122 3.3572-2.0745 4.7538-2.2953 12.556-1.9856 7.6659 0.3043 9.6551 0.7921 15.693 3.8485 7.9687 4.0335 17.164 12.222 23.511 20.938 1.1296 1.5513 2.2879 2.9713 3.2741 4.0463 0.84653 0.5669 2.8264 4.9876 3.06 5.4113 0.39994 1.2173 1.1991 3.1175 2.2311 5.2425 5.9068 12.164 8.4601 26.822 6.4241 36.882-3.2168 15.894-14.417 23.948-29.208 21.004-7.3584-1.465-10.977-3.1737-19.634-9.2707-5.4219-3.8185-15.869-15.325-19.079-21.014-0.70712-1.2532-1.2886-1.4366-2.0785-0.6555-2.4757 2.4479 12.244 20.378 22.55 27.469 7.3451 5.0536 16.496 7.9988 18.441 8.2005 5.1982 1.5069 12.15 2.9697 16.258 0.0661zm-0.77726-8.2038c7.9017-4.9408 11.399-11.564 12.221-23.144 1.006-14.172-6.3674-34.34-17.824-48.75-4.3724-5.4998-18.372-17.212-20.594-17.229-0.44178-0.0034-1.9504-0.6048-3.3525-1.3366-3.5932-1.8751-11.469-2.79-17.328-2.0128-6.5282 0.866-12.542 6.5862-15.136 14.398-1.828 5.5035-2.7884 17.316-1.8055 22.208 1.0657 5.3032 1.8309 2.6755 1.4788-5.0779-1.0139-22.327 13.412-34.654 32.384-27.671 12.375 4.5546 26.85 18.987 33.65 33.55 5.3687 11.498 6.1523 14.888 6.2286 26.949 0.06306 9.9689-0.21491 12.033-2.0876 15.5-7.1113 13.167-18.814 15.883-34.672 8.0479-7.3025-3.6082-13.774-9.4109-23.487-21.06-2.8767-3.45-3.0778-3.5585-1.4915-0.805 2.816 4.8882 12.333 15.592 16.999 19.118 3.6434 2.7536 11.694 6.9632 16.317 8.5321 0.825 0.28 4.65 0.5429 8.5 0.5843 5.2103 0.0559 7.767-0.4044 10-1.8007zm-25.321-100.37c0.72679-0.6875 3.1214-2.2175 5.3214-3.4l10-5.3661c10.139-5.4348 16.953-9.2139 18-9.984 2.9496-2.1685 18.715-10.119 19.167-9.6659 0.2923 0.2924-1.8695 1.7482-4.804 3.2352s-6.9167 3.6911-8.8494 4.8979c-3.8393 2.3974-11.604 6.682-25.514 14.078-4.95 2.632-9.8876 5.3861-10.973 6.1202-2.4912 1.6856-4.1028 1.7437-2.3489 0.0847zm15.009 96.567c-0.72188-0.2888-1.5844-0.2533-1.9167 0.079s0.25834 0.5686 1.3125 0.5252c1.165-0.048 1.4019-0.2849 0.60417-0.6042zm-14.913-2.5669c-6.406-3.4358-12.831-9.2227-19.356-17.434-6.2472-7.8615-8.1101-8.6796-2.7694-1.2163 6.4688 9.0398 20.272 20.616 24.836 20.83 0.8165 0.0382-0.40324-0.943-2.7105-2.1805zm15.976 0.5878c-0.6875-0.2774-1.8125-0.2774-2.5 0s-0.125 0.5044 1.25 0.5044 1.9375-0.227 1.25-0.5044zm-10.415-1.2143c1.0298-0.6528 0.89661-0.9605-0.58333-1.3475-1.1976-0.3132-1.9179 0.0102-1.9179 0.8612 0 1.5642 0.61283 1.6833 2.5012 0.4863zm12.165-0.514c0-0.2149-1.5434-0.5708-3.4298-0.7911s-3.2099-0.0444-2.941 0.3906c0.48392 0.783 6.3708 1.153 6.3708 0.4005zm4-0.6095c0-0.55-0.45-1-1-1s-1 0.45-1 1 0.45 1 1 1 1-0.45 1-1zm33-1.5703c0-0.275-0.9-0.0184-2 0.5703s-2 1.2954-2 1.5704 0.9 0.0183 2-0.5704 2-1.2953 2-1.5703zm-45.135 1.1023c-0.85056-0.8505-7.8653-3.5692-7.8653-3.0482 0 0.2808 1.4625 1.1501 3.25 1.9318 3.2998 1.4431 5.4659 1.967 4.6153 1.1164zm6.1347-2.332c0-1.4131-2.3452-3.2-4.2-3.2-1.7645 0-2.4502 2.0166-1.1333 3.3334 0.9415 0.9415 5.3333 0.8317 5.3333-0.1334zm4-0.0775c0-1.2788-2.9404-3.5154-3.6667-2.7891s1.5104 3.6666 2.7891 3.6666c0.48266 0 0.87756-0.3949 0.87756-0.8775zm40.808-1.3725c2.0724-1.2375 4.651-2.8 5.7301-3.4723s3.4319-1.9645 5.2282-2.8716 3.5371-2.0877 3.8683-2.6235c0.63809-1.0325-8.1032 3.6417-15.634 8.3601-5.333 3.3412-4.6414 3.8612 0.80776 0.6073zm-51.823 0.5c-0.03343-1.6373-1.8174-3.4124-5.312-5.2854-4.4869-2.4048-4.6727-2.4113-4.6727-0.1616 0 1.1196 1.6109 2.6122 4.25 3.938 4.6751 2.3485 5.7576 2.6334 5.7347 1.509zm14.015 0.3725c0-0.2077-0.7875-0.9952-1.75-1.75-1.5861-1.2439-1.6214-1.2085-0.37756 0.3775 1.3064 1.6658 2.1276 2.1955 2.1276 1.3725zm4.8724-2.3595c-3.1094-3.9354-4.8724-5.5768-4.8724-4.5365 0 1.3648 4.1791 6.2308 5.3724 6.2555 0.47985 0.0099 0.25485-0.7636-0.5-1.719zm-17.284-5.9173c-2.7573-4.0578-3.1564-5.3457-1.6563-5.3457 0.51294 0 1.247 1.0125 1.6312 2.25 0.90947 2.9293 4.5027 8.0169 5.1822 7.3374 0.69458-0.6946-7.4745-13.549-10.157-15.982-1.4046-1.2742-1.688-2.0357-0.86483-2.3247 0.91028-0.3195 0.81146-1.0594-0.38546-2.8862-2.1331-3.2555-1.0715-4.1269 1.678-1.3774 3.5374 3.5374 5.4439-0.7918 3.5305-8.0167-0.61343-2.3162-0.5406-2.2889 0.99067 0.371 1.0385 1.8039 1.4861 4.2196 1.2043 6.5-0.49937 4.0408 1.09 6.9486 7.4326 13.599 3.0235 3.17 4.0372 3.7185 5.0328 2.7229s0.34491-2.068-3.2304-5.3242c-2.4624-2.2427-3.3521-3.3592-1.9771-2.4812 6.3166 4.0335 6 4.074 6-0.7685 0-3.9262-0.32473-4.5804-2.75-5.5398l-2.75-1.0879 2.589 0.3351 2.589 0.3352-1.6787-4.4225c-0.9233-2.4324-2.0884-4.7186-2.589-5.0806s-1.0357-1.7735-1.189-3.1368c-0.22042-1.9601-0.02165-2.2216 0.95-1.25 0.67581 0.6758 2.095 1.2287 3.1537 1.2287 1.6125 0 1.826-0.495 1.3151-3.0497-0.37829-1.8914-0.23586-2.8185 0.375-2.4409 0.54172 0.3348 0.98494 1.2571 0.98494 2.0497s0.45 1.4409 1 1.4409c1.3955 0 1.2864-0.5125-1.1261-5.2898-3.4471-6.8259-9.8279-14.89-15.597-19.71-2.9618-2.475-5.9234-4.9742-6.5812-5.5538-2.481-2.186-14.877-6.4462-18.756-6.4462-8.3258 0-13.913 5.5187-16.597 16.392-2.2656 9.1808-1.0567 17.699 2.6568 18.72 1.4492 0.3986 1.7892 0.7296 0.80902 0.7874-2.7245 0.1606-2.8876 1.5247-0.86374 7.2245 1.0497 2.9563 1.9595 4.7001 2.0217 3.8751 0.06571-0.8714 0.74748-0.33 1.6271 1.2922 0.83269 1.5357 1.2688 3.7857 0.9692 5s-0.28018 1.6266 0.04323 0.9161c0.7425-1.6311 3.3935 0.301 3.3935 2.4732 0 0.7901 0.41921 1.1775 0.93158 0.8608 1.3612-0.8413 4.0185 3.4064 3.3297 5.3225-0.66529 1.8507 4.3348-3.0824 6.9679-6.8745 1.335-1.9226 1.5853-2.0344 1.098-0.4903-0.34715 1.1-1.2518 2.7259-2.0102 3.6131-1.5548 1.8186-2.6058 5.9685-1.4226 5.6165 0.42443-0.1263 2.7593 1.5072 5.1886 3.6298 3.7242 3.2541 4.4732 3.5781 4.7757 2.0661 0.19731-0.9863-0.36519-2.3226-1.25-2.9696-2.2837-1.6699-1.9977-2.7344 0.39126-1.4559 1.6955 0.9074 2 0.7605 2-0.9648 0-1.1193 0.48575-2.0352 1.0795-2.0352 0.66183 0 0.84169 1.0825 0.4649 2.7981-0.54286 2.4716-0.1967 2.9973 2.967 4.506l3.5815 1.7079-0.65772-3.506c-0.89312-4.7607 0.23317-4.4515 1.5461 0.4245 0.627 2.3285 1.7636 4.0876 2.7886 4.316 2.6332 0.5866 2.616 0.2152-0.18093-3.9008zm-9.0889-22.346c-0.33992-0.55-0.16803-1 0.38197-1s1.2781 0.45 1.618 1 0.16803 1-0.38197 1-1.2781-0.45-1.618-1zm-22.068-6.2724c0.24741-2.0748 0.05315-3.5272-0.43169-3.2276-1.2705 0.7853 0.02175-6.541 1.6757-9.5l1.3974-2.5-0.61588 2.5c-0.33874 1.375-0.8355 3.2875-1.1039 4.25s-0.2746 1.75-0.01373 1.75 1.2528-2.475 2.2043-5.5 2.0822-5.5 2.5126-5.5 0.18775 1.6875-0.53938 3.75-1.8706 5.775-2.541 8.25c-0.6704 2.475-1.6184 5.625-2.1066 7-0.7285 2.0518-0.80701 1.8236-0.43783-1.2724zm4.6704-7.1397c-0.14144-2.6491 3.0803-12.588 4.0805-12.588 1.1027 0 1.0455 0.4031-0.59857 4.2161-0.77877 1.8062-1.8578 4.8589-2.3979 6.7839s-1.0279 2.6396-1.084 1.5879zm34.854-6.6708c-1.0633-1.9868-1.2035-2.0027-3.0352-0.345-2.1698 1.9636-2.4938 1.319-0.74489-1.4815 0.9467-1.5159 0.84936-2.2085-0.5-3.5579-2.4681-2.4681-2.0434-2.8652 1.0745-1.0049 1.5125 0.9024 3.528 3.1778 4.4788 5.0565 1.8322 3.62 0.62637 4.8822-1.2732 1.3328zm-30.956-0.37c0-0.2491 0.53691-1.6313 1.1931-3.0716 0.80952-1.7767 0.86057-2.8368 0.15876-3.2971-0.66668-0.4372-0.16185-2.6335 1.4202-6.1783 2.329-5.2187 2.5021-5.3744 3.3853-3.0439 0.71668 1.8913 0.34564 3.76-1.6133 8.1251-1.3992 3.1178-2.544 6.1751-2.544 6.7938s-0.45 1.1249-1 1.1249-1-0.2038-1-0.4529zm5.5854-14.295c-0.30755-0.3076-1.2401 1.0704-2.0723 3.0622-2.1421 5.1267-1.7976 5.8924 0.60337 1.3413 1.1155-2.1144 1.7765-4.096 1.4689-4.4035zm-0.58543 9.537c0-0.8494 0.74867-2.1619 1.6637-2.9167 1.5218-1.2554 1.5529-1.1593 0.36455 1.1275-1.7422 3.3525-2.0283 3.6049-2.0283 1.7892zm-7.9544-0.7892c0.0573-2.2512 3.8623-8.8392 3.9124-6.7741 0.02306 0.9492-0.8564 3.1992-1.9543 5s-1.9791 2.5991-1.9581 1.7741zm46.919 48.059c-0.02271-0.9992-0.54853-0.6613-1.4646 0.9411-1.8705 3.2721-1.8484 5.0448 0.0318 2.5589 0.80751-1.0676 1.4522-2.6426 1.4328-3.5zm-39.965 0.4411c-2.4532-2.6112-4.0634-3.4862-2.1311-1.1579 0.61257 0.7381 0.78017 1.7102 0.37244 2.1603s-0.20991 0.5138 0.43958 0.1417 1.4636-0.2193 1.809 0.3396 0.905 1.0163 1.2434 1.0163-0.44158-1.125-1.7333-2.5zm37.013 0.4764c0.84242-1.574 0.72793-2.3786-0.51538-3.622-1.4645-1.4645-1.71-1.4457-2.931 0.2242-1.0114 1.3832-1.0618 2.2563-0.20889 3.622 1.4516 2.3243 2.3199 2.2711 3.6553-0.2242zm-7.0174-0.7264c-0.00263-0.4125-1.4883-2.365-3.3015-4.3389s-4.5501-5.124-6.0821-7-2.6338-2.8754-2.4485-2.2207c0.33068 1.1685 10.915 14.31 11.525 14.31 0.17132 0 0.30935-0.3375 0.30672-0.75zm10.719-12.018c-0.22818-1.5026-0.41027-0.0321-0.40466 3.2679s0.1923 4.5295 0.41486 2.7321 0.21797-4.4973-0.0102-6zm48.778 7.7794c0.35034-0.5669-0.05106-0.7345-0.94098-0.393-1.7324 0.6648-2.0494 1.3815-0.61096 1.3815 0.51754 0 1.2159-0.4448 1.5519-0.9885zm-50.679-6.1256c-0.26299-3.6717-0.68049-4.4379-2.5641-4.7054-2.0486-0.291-2.25 0.085-2.25 4.2003 0 3.2618 0.48709 4.7947 1.75 5.5073 2.533 1.4292 3.421-0.0203 3.0641-5.0022zm48.186-0.2811c0-0.2173 2.3625-1.6237 5.25-3.1253 7.9275-4.1226 20.155-11.623 20.985-12.873 0.40408-0.6084 0.74158-0.7459 0.75-0.3055 0.01614 0.8441 11.431-4.8849 23.991-12.041 8.6386-4.9219 11.927-5.7216 4.5242-1.1001-2.75 1.7167-5.2872 3.5658-5.6382 4.1091s-1.1074 0.6979-1.6809 0.3434-1.335-0.1715-1.6922 0.4065-4.3041 2.8556-8.7708 5.0613-8.5931 4.38-9.1696 4.8316-3.1794 1.994-5.7843 3.4274-8.3267 4.6437-12.715 7.1338c-7.213 4.0929-10.049 5.259-10.049 4.1324zm32-38.343c0-0.5111 2.5276-2.2415 5.6168-3.8455s5.8364-3.4762 6.1048-4.1606 0.88548-0.9986 1.3713-0.6983 3.9524-1.2773 7.7034-3.5057 7.2213-4.0517 7.7118-4.0517c1.463 0-0.69835 1.6449-6.0082 4.5725-5.7196 3.1535-8.6789 4.8088-16.75 9.3693-3.1625 1.787-5.75 2.831-5.75 2.32zm-143.52 34.884c-1.2879-2.6697-3.1123-7.2822-4.0543-10.25-1.9836-6.2496-2.5305-7.0723-4.0582-6.1043-2.408 1.5257 5.6239 21.208 8.6546 21.208 1.6583 0 1.6158-0.381-0.54206-4.854zm3.3053 0.104c-0.64571-1.5125-1.4673-3.2-1.8257-3.75s-1.508-3.8086-2.5545-7.2414c-1.7932-5.8817-3.8164-8.8847-2.7008-4.0086 0.94396 4.1258 6.6802 17.75 7.4732 17.75 0.43002 0 0.25354-1.2375-0.39217-2.75zm131.22-1.7906c0-0.275-1.8 0.4183-4 1.5406s-4 2.2657-4 2.5407 1.8-0.4183 4-1.5407 4-2.2656 4-2.5406zm-128.4 0.9406c-0.35589-0.9274-0.87208-1.4612-1.1471-1.1862s-0.20881 1.2588 0.14708 2.1862 0.87208 1.4613 1.1471 1.1863 0.20881-1.2588-0.14708-2.1863zm54.918-8.9826c-1.5672-4.9827-3.5504-6.7917-4.9547-4.5195-0.9709 1.571 2.6198 10.99 4.3236 11.341 2.3949 0.4941 2.517-0.8258 0.63109-6.8216zm-58.499 1.4784c-1.1124-2.4177-1.7367-3.2708-1.3874-1.8958 1.0707 4.2146 2.3986 7.3029 2.917 6.7845 0.27111-0.2711-0.41721-2.471-1.5296-4.8887zm61.585 1.3751c-0.3323-0.3323-0.56864 0.2583-0.52522 1.3125 0.04798 1.1649 0.28494 1.4019 0.60416 0.6041 0.28887-0.7218 0.25335-1.5843-0.07894-1.9166zm-0.86555-5.7709c-1.3532-4.4092-2.9293-4.6515-1.6688-0.2566 0.5116 1.7839 0.93019 3.3589 0.93019 3.5s0.40788 0.2566 0.9064 0.2566c0.50991 0 0.43651-1.531-0.16778-3.5zm88.788 0.6932c-0.30789-0.3079-1.1148-7e-4 -1.7931 0.6828-0.98026 0.9876-0.8654 1.1024 0.5598 0.5598 0.98622-0.3756 1.5412-0.9347 1.2333-1.2426zm19.557-4.1548c1.0542-3.0039 1.899-6.6039 1.8775-8-0.03847-2.4948-0.06166-2.4869-1.3515 0.4616-0.72179 1.65-3.029 4.6637-5.1272 6.6971-3.2902 3.1886-3.6321 3.9173-2.486 5.2983 2.4779 2.9857 5.0411 1.3737 7.0872-4.457zm-171.49-1.7833c-1.0755-1.0755-1.6464 0.4308-0.89148 2.3518 0.7082 1.8021 0.76169 1.8052 1.1119 0.0649 0.20237-1.0056 0.10317-2.0931-0.22045-2.4167zm162.9 0.7564c0.35034-0.5669-0.05106-0.7345-0.94098-0.393-1.7324 0.6648-2.0494 1.3815-0.61096 1.3815 0.51754 0 1.2159-0.4448 1.5519-0.9885zm-164.83-10.262c-0.27741-0.6875-0.50439-0.125-0.50439 1.25s0.22698 1.9375 0.50439 1.25 0.27741-1.8125 0-2.5zm204.83-0.7385c0.35034-0.5669-0.05106-0.7345-0.94098-0.393-1.7324 0.6648-2.0494 1.3815-0.61096 1.3815 0.51754 0 1.2159-0.4448 1.5519-0.9885zm-27.5-39.286c-1.4144-18.817-1.9492-24.637-2.5088-27.303-0.62491-2.9773-4.646-6.9948-7.7913-7.7842-1.4812-0.3718-2.6931-1.3621-2.6931-2.2007s-0.5625-1.4518-1.25-1.3625c-2.6316 0.3417-3.75-0.1279-3.75-1.5746 0-0.9383-0.94793-1.5-2.5314-1.5-1.3923 0-2.7846-0.66-3.0942-1.4666s-3.5579-3.1632-7.2186-5.2368-7.4048-4.2261-8.3202-4.7834c-11.715-7.1315-13.069-7.7538-13.928-6.3982-1.9056 3.009-0.79041 4.4272 5.5446 7.051 1.2234 0.5067 2.27 0.909 3.1519 1.2097 1.7914 0.1905 5.725 3.1908 10.741 6.8889 1.2054 0.8803 2.1296 1.5525 2.8454 2.0358 2.2892 1.5458 3.1363 2.5178 3.7223 3.4964 0.43277 0.7227 1.2324 1.6456 2.4794 2.9419 1.99 2.0687 4.6972 5.0622 6.016 6.6523 3.1168 3.7579 12.592 20.358 12.592 22.061 0 0.7231 1.0125 1.5922 2.25 1.9313 1.8324 0.5022 1.979 0.7909 0.78976 1.5556-1.2508 0.8043-1.1926 1.2346 0.40499 3 1.0259 1.1336 1.3895 2.0611 0.80811 2.0611-0.69346 0-0.57477 1.6027 0.34501 4.6589 0.77117 2.5624 1.4696 6.9499 1.552 9.75 0.0867 2.9458 0.32638 3.9219 0.56879 2.3165 0.23043-1.526-0.09603-9.626-0.72547-18zm-171.91-3.5824c0.04818-2.5537 0.43805-6.893 0.86638-9.643 0.71409-4.5847 0.78988-4.2713 0.9124 3.7717l0.13361 8.7718 6.25-3.472 14.25-7.8979c17.682-9.7821 16.483-8.8745 16.492-12.483 0.00508-2.036 0.40862-3.0616 1.0489-2.6659 0.57237 0.3538 0.76705 1.5053 0.43261 2.559-0.82571 2.6016 0.61758 2.4167 6.5118-0.8341l4.9861-2.75 0.02973-7.5c0.01634-4.125 0.49875-8.175 1.072-9 0.73832-1.0626 0.84932 0.906 0.3806 6.75-0.36392 4.5375-0.40188 8.25-0.08435 8.25 1.3526 0 9.6308-4.4691 9.6308-5.1993 0-0.4404 0.75207-0.8007 1.6713-0.8007s2.4942-0.7448 3.5-1.655c1.4934-1.3515 1.8287-3.1855 1.8287-10 0-4.5898-0.20383-8.345-0.45295-8.345s-1.5991 0.5222-3 1.1605c-2.4152 1.1005-2.5576 1.605-2.7506 9.75l-0.20354 8.5895-0.3369-8.25c-0.36125-8.8465-0.31448-8.7883-6.131-7.625-2.4957 0.4991-3.1524 1.1536-3.2612 3.25-0.12219 2.3553-0.18071 2.3938-0.56955 0.375-0.41383-2.1486-0.8699-2.25-10.114-2.25-15.963 0-30.144-4.2507-39.568-11.861-2.1381-1.7266-4.3881-3.1037-5-3.0603-0.68823 0.0489-0.64183 0.2693 0.12166 0.5781 0.95145 0.3848 1.0869 5.0626 0.59128 20.421 3.6682 11.126-2.183 21.087-2.3101 24.672-0.00842 1.7875 0.43469 3.25 0.98469 3.25 1.507 0 1.2786 16.319-0.25 17.859-1.0022 1.0097-0.90315 1.1272 0.5 0.593 1.2997-0.4948 1.7725-1.8608 1.8376-5.3092zm1.9913-32.56c-0.04342-1.0542 0.19292-1.6448 0.52522-1.3125s0.36781 1.1948 0.07894 1.9167c-0.31922 0.7977-0.55618 0.5608-0.60416-0.6042zm36.921-2.5833c0-1.65 0.45-3 1-3s1 1.35 1 3-0.45 3-1 3-1-1.35-1-3zm-37-13c0-5.1334 0.32335-9.01 0.71854-8.6148 0.73438 0.7344 0.46062 16.769-0.29927 17.529-0.2306 0.2306-0.41927-3.7807-0.41927-8.914zm13 50.177c0-0.4525 1.9125-1.8293 4.25-3.0596 10.288-5.4151 17.831-9.5204 25.75-14.014 4.675-2.653 10.525-5.8992 13-7.2136s4.725-2.6148 5-2.8898 2.3-1.391 4.5-2.48 6.7866-3.6558 10.192-5.704 8.3558-4.8737 11-6.2789 5.4826-2.9853 6.3076-3.5114c0.825-0.526 4.108-2.3765 7.2955-4.1122 6.2962-3.4285 7.1394-4.8289 1.485-2.4663-1.9396 0.8104-3.8808 1.1538-4.3139 0.7631s-0.49143-0.1928-0.12975 0.4398c0.40584 0.7097-1.6227 2.3368-5.2987 4.25-6.5001 3.3829-7.5219 3.6914-6.4427 1.9454 0.44563-0.7211 0.27393-0.8829-0.45729-0.4309-0.64395 0.3979-0.93848 1.0995-0.6545 1.559 0.43831 0.7092-3.5472 3.3364-12.984 8.5586-6.4636 3.577-12.513 6.992-16.154 9.1186-3.104 1.8132-4.2845 2.1008-4.671 1.1378-0.36223-0.9024-0.54093-0.8238-0.59621 0.2621-0.04342 0.8529-2.116 2.5404-4.6057 3.75-5.1273 2.4911-5.8751 2.6584-4.9116 1.0995 0.47771-0.7729 0.04949-0.7625-1.441 0.0352-2.5681 1.3744-2.7814 2.2095-0.37068 1.4516 1.4942-0.4699 1.4663-0.3191-0.19113 1.0313-2.232 1.8187-3.999 2.1028-2.9972 0.4819 0.43805-0.7088-0.16312-0.6606-1.691 0.1355-3.3209 1.7303-3.7658 2.3342-1.1207 1.5211 3.6682-1.1275 2.5687 0.2366-2 2.4814-2.3375 1.1485-5.15 2.6282-6.25 3.2882-6.1418 3.6852-15.289 8.6736-15.905 8.6736-0.3921 0-0.40705-0.4949-0.03322-1.0998 0.47771-0.7729 0.04949-0.7625-1.441 0.0352-3.0446 1.6294-2.6485 2.0646 1.8793 2.0646 2.2 0 4-0.3703 4-0.8228zm6.5265-7.9841c-0.30789-0.3079-1.1148-6e-4 -1.7931 0.6828-0.98026 0.9876-0.8654 1.1025 0.5598 0.5598 0.98622-0.3755 1.5412-0.9347 1.2333-1.2426zm-23.793-29.977c-0.20525-2.5941-0.37104-0.2165-0.36844 5.2835s0.17053 7.6224 0.37317 4.7165 0.20052-7.406-0.00473-10zm58.793 10.977c-0.30789-0.3079-1.1148-6e-4 -1.7931 0.6828-0.98026 0.9876-0.8654 1.1025 0.5598 0.5598 0.98622-0.3755 1.5412-0.9347 1.2333-1.2426zm4.9665-2.1817c0.35034-0.5668-0.05106-0.7345-0.94098-0.393-1.7324 0.6648-2.0494 1.3816-0.61096 1.3816 0.51754 0 1.2159-0.4449 1.5519-0.9886zm106.01-5.0114c-0.33992-0.55-1.068-1-1.618-1s-0.72189 0.45-0.38197 1 1.068 1 1.618 1 0.72189-0.45 0.38197-1zm10 0c0.33992-0.55 0.16803-1-0.38197-1s-1.2781 0.45-1.618 1-0.16803 1 0.38197 1 1.2781-0.45 1.618-1zm-15-3c-0.33992-0.55-1.154-0.9931-1.809-0.9847-0.71561 0.0092-0.59227 0.4022 0.30902 0.9847 1.9211 1.2415 2.2673 1.2415 1.5 0zm25.282-2.6576c7.6612-4.1709 11.032-6.3424 9.8447-6.3424-1.0376 0-17.626 9.017-17.626 9.581 0 0.8443 1.1985 0.3455 7.7818-3.2386zm-113.99-7.1729c0.17043-4.7939-0.10911-8.1695-0.67652-8.1695-0.53184 0-1.1125 3.8261-1.2904 8.5026-0.20406 5.3637 0.04569 8.3796 0.67653 8.1695 0.55-0.1832 1.1307-4.0094 1.2904-8.5026zm84.21 7.3657c0-0.2557-1.0125-0.9555-2.25-1.5552-2.1606-1.047-2.1729-1.0286-0.30887 0.4648 2.0403 1.6346 2.5589 1.8556 2.5589 1.0904zm5.1899-7.9497c0.43357-1.6213-0.73373-2.9105-2.6899-4.1487-1.7933-1.135-3.5625-2.4291-4.25-2.4319s-2.127-0.8819-3.1989-1.9538c-0.59538-0.5954-0.9572-0.7892-1.3396-0.9874-0.85844-0.4451-2.2519-1.4009-2.983-1.6991-0.93214-0.3801-8.944-6.3646-10.208-6.3646-0.24723 0-15.296-8.1425-16.326-8.8251-1.1711-0.838-0.98117-2.6136-4.7759-3.1749-0.23001 0-0.41821 2.6518-0.41821 5.893 0 4.4644 0.93619 5.3909 1.5902 6.5032 0.44816 0.7622 5.863 3.4391 10.412 5.9459 0.43513 0.2398 0.86551 0.4749 1.2889 0.6594 1.2109 0.5279 4.1755 2.026 4.922 2.6765 2.8426 2.4769 9.7456 6.6967 10.417 6.0255 0.27026-0.2703 1.5929 0.6101 2.9392 1.9564 3.5714 1.4224 5.8926 3.6443 9.431 5.7481 4.4234 2.5129 4.5056 2.5213 4.8302 0.4931 0.23376-3.3223 0.63143-3.3856 0.35976-6.3156zm-87.534 3.1454c-0.27393-0.677-0.48137 0.1191-0.46099 1.7691s0.2445 2.2039 0.49804 1.2309 0.23687-2.3229-0.03705-3zm3.3441-5.9566c0-4.4592-0.17063-7.9202-0.37918-7.691-0.96152 1.0566-1.5738 17.006-0.63043 16.423 0.55529-0.3432 1.0096-4.2724 1.0096-8.7316zm5.5265 7.4188c-0.30789-0.3079-1.1148-6e-4 -1.7931 0.6828-0.98026 0.9876-0.8654 1.1025 0.5598 0.5598 0.98622-0.3755 1.5412-0.9347 1.2333-1.2426zm17.715-10.554c1.979-0.4861 3.4343-2.0401 5.231-5.5857 1.3691-2.7018 2.9478-5.1957 3.5082-5.5421 0.58342-0.3605 1.0218-4.9861 1.0256-10.821 0.00544-8.4186 0.34573-10.706 1.9566-13.149l1.95-2.9583-5.7066-3.5818c-10.353-6.4982-13.207-8.1698-13.207-7.737 0 0.2353 3.3515 2.6205 7.4478 5.3005s7.2633 5.0571 7.0379 5.2826c-0.74033 0.7403-20.446-12.102-19.907-12.974 0.28913-0.4678-0.14881-0.5918-0.9732-0.2754-0.83612 0.3208-5.0597-1.5588-9.5519-4.2509-7.5838-4.5448-10.241-6.9647-6.303-5.7403 1.3062 0.4061 1.2428 0.2327-0.25-0.6839-1.1-0.6754-3.3009-2.1352-4.8908-3.2439l-2.8908-2.0159 2.537 4.4184c1.3954 2.4301 2.8588 5.5434 3.2521 6.9184s1.3082 3.85 2.0332 5.5c1.9084 4.3435 5.6688 17.576 5.8254 20.5 0.10826 2.0203-0.77682 2.9796-4.6132 5-3.3705 1.775-4.7479 3.112-4.75 4.6104-0.00328 2.3962 3.7912 8.3675 7.5032 11.808 2.2872 2.1197 2.4939 3.0262 2.4939 10.939v8.6276l9.25-4.8358c5.0875-2.6596 10.484-5.1388 11.992-5.5092zm46.258 8.3605c-0.33992-0.55-1.154-0.9931-1.809-0.9847-0.71561 0.0092-0.59227 0.4022 0.30902 0.9847 1.9211 1.2415 2.2673 1.2415 1.5 0zm-5.5-3.393c0-0.2162-0.69837-0.661-1.5519-0.9886-0.88992-0.3415-1.2913-0.1738-0.94098 0.393 0.58726 0.9502 2.4929 1.4055 2.4929 0.5956zm-4-2c0-0.2162-0.69837-0.661-1.5519-0.9886-0.88992-0.3415-1.2913-0.1738-0.94098 0.393 0.58726 0.9502 2.4929 1.4055 2.4929 0.5956zm-82.5-1.9577c6.6558-1.282 15.974-4.6652 19.739-7.1665 1.6066-1.0675 1.5434-1.3388-0.83056-3.5691-1.4131-1.3275-2.8697-2.1887-3.2368-1.9137-0.63491 0.4756-3.2672-4.208-4.7772-8.5-0.59976-1.7047-0.7633-1.7528-1.1077-0.3254-0.43036 1.7836 2.9219 9.1599 5.4906 12.082 0.84921 0.9659 1.2841 2.0161 0.96643 2.3337-0.95687 0.9569-7.7435-9.8861-7.7435-12.372 0-2.5334 0.89132-2.5166-12.434-0.2343-3.2635 0.5589-8.0667 1.0163-10.674 1.0163-8.6815 0-22.848-3.5918-29.811-7.558-3.4318-1.955-4.6002-2.2294-5.2347-1.2294-1.2158 1.9162-1.0158 3.0023 0.40257 2.1861 0.72624-0.418 0.90083-0.3379 0.41667 0.1909-0.45834 0.5007-1.3208 0.9104-1.9167 0.9104s-1.2917 0.6251-1.5464 1.3892c-0.32022 0.9606-0.03746 1.1328 0.91667 0.558 1.0492-0.6321 1.0204-0.366-0.12027 1.1108-1.7849 2.3108-3.1821 3.4058-4.3724 3.4267-0.47985 0.0084-0.2626-0.7722 0.48276-1.7347 1.095-1.414 0.92498-1.3829-0.88565 0.1623-2.126 1.8143-2.1532 2.0092-0.52934 3.8035l2.0171 2.7842 4.3938 3.3056c12.299 9.2527 31.95 12.896 50.394 9.3437zm0.8547-8.3428c-0.84878-2.0315-1.7204-5.294-1.9368-7.25-0.37082-3.3511-0.30907-3.2965 1.0689 0.9435 0.80438 2.475 2.1744 5.7375 3.0444 7.25 0.99277 1.7259 1.1694 2.75 0.4743 2.75-0.60916 0-1.802-1.6621-2.6508-3.6935zm16.645-0.8065c-0.70675-0.8516-1.06-1.7734-0.785-2.0484s1.0782 0.1968 1.785 1.0484 1.06 1.7733 0.785 2.0483-1.0782-0.1967-1.785-1.0483zm-67.973-6.764c-0.04144-1.1771 4.3762-7.7097 5.2231-7.7236 0.4125-0.0069 0.73789 0.3251 0.7231 0.7376-0.03706 1.0331-5.9127 7.9363-5.9462 6.986zm161.17 5.264-0.39393-9.5-8.6522-5.1534c-9.6809-5.7661-17.152-9.6396-17.152-8.8926 0 0.272 1.3918 1.2144 3.0929 2.094s2.8801 1.8123 2.62 2.0724c-0.80235 0.8024-7.2278-3.3209-6.9728-4.4745 0.13202-0.5974-0.76798-1.5745-2-2.1712-2.153-1.0429-2.1646-1.0246-0.29892 0.4701 3.6231 2.9027-0.14735 1.572-7.3324-2.5878-3.9358-2.2787-6.947-4.352-6.6917-4.6074s2.966 0.967 6.0236 2.7164 5.5593 2.9558 5.5593 2.6808c0-1.1695-11.199-6.7844-12.52-6.2774-0.7975 0.306-2.9788 2.9356-4.8473 5.8435l-3.3973 5.2871 2.5254 1.6637c4.3729 2.7928 3.2189 2.1085 5.5578 3.7461 6.9029 4.8996 20.531 12.917 34.662 20.041 2.0625 0.9557 5.0695 2.6821 6.9639 4.212s3.4901 2.6816 3.5461 2.5593-0.07548-4.4973-0.29215-9.7223zm-6.6982-10.326c-7.674-4.4171-12.685-7.8214-12.212-8.2953 0.44032-0.4403 15.001 7.8547 17.162 9.7767 1.8674 1.6612-0.96059 0.8149-4.95-1.4814zm16.512 15.891c2.123-1.1356 6.8454-3.6396 10.494-5.5646l6.6343-3.5c2.8584-1.4606 2.3955-0.9946 6.1948-3.2663 1.5478-0.7303 2.4793-1.9381 3.2564-3.798 1.689-4.0424 1.7931-8.0346 0.31964-12.261l-1.0891-3.1241-3.8711 1.9749c-4.3322 2.2101-5.3539 2.4362-4.4578 0.9863 0.34985-0.566-0.04984-0.7349-0.93524-0.3952-0.85041 0.3263-1.3391 0.9284-1.0861 1.3378s-0.6581 1.343-2.0248 2.0745c-0.74787 0.4002-1.2233 0.7742-1.4534 1.106-0.80969 1.1676-2.1544 1.5593-2.8593 1.7243-0.66204 0.155-1.502 0.5002-2.4201 1.0138-14.542 8.1355-14.854 8.269-12.586 5.3774 1.2588-1.6051 1.22-1.6301-0.46869-0.302-1.5953 1.2548-1.7679 2.4565-1.2929 9 0.30153 4.1536 0.56753 8.6196 0.59113 9.9244 0.03698 2.0449 0.2605 2.1919 1.6187 1.0646 0.86672-0.7193 3.3128-2.2369 5.4358-3.3724zm-60.14 0.8178c1.6301-3.5777 1.4519-4.1637-1.7732-5.8315-2.7318-1.4127-2.9848-1.3703-4.3248 0.7243-3.6064 5.6374-3.1114 7.3539 2.1637 7.5039 2.0586 0.0586 3.1063-0.5797 3.9342-2.3967zm8.6284-2.3824c-0.33992-0.55-1.068-1-1.618-1s-0.72189 0.45-0.38197 1 1.068 1 1.618 1 0.72189-0.45 0.38197-1zm-73.507-18.75c-0.00365-0.4125-0.90066-5.925-1.9934-12.25-2.287-13.238-2.2924-13.299-1.1154-12.571 0.48654 0.3007 1.1952 2.6179 1.5748 5.1494s0.88894 5.5746 1.1318 6.7623c0.96911 4.7394 1.6556 13.66 1.0512 13.66-0.35335 0-0.64544-0.3375-0.64909-0.75zm11.007-1.75c0-3.2094 0.63123-3.2094 1.2448 0 0.26285 1.375 0.09031 2.5-0.38342 2.5s-0.86133-1.125-0.86133-2.5zm-24.457-0.4309c-0.31644-0.512-0.11799-1.2136 0.44098-1.559s1.0163 0.0734 1.0163 0.9309c0 1.7565-0.60006 2.0151-1.4573 0.6281zm22.713-7.8191c-0.61752-2.6125-1.4043-6.55-1.7484-8.75s-1.5402-6.6212-2.658-9.825c-2.1369-6.1245-2.0215-9.1076 0.13374-3.4571 0.68852 1.8051 1.8741 4.7001 2.6346 6.4332s1.3828 4.4785 1.3828 6.1008 0.4128 4.2543 0.91732 5.8489c1.6455 5.2005 2.137 8.3992 1.2908 8.3992-0.4565 0-1.3352-2.1375-1.9528-4.75zm8.4449 3.0739c-0.36627-0.5926-1.313-3.7204-2.104-6.9507-3.1675-12.937-4.8034-18.05-7.0767-22.117-1.3083-2.3409-1.972-4.2561-1.4749-4.2561 0.73798 0 4.0227 5.1127 4.4972 7 0.06914 0.275 0.6505 1.7668 1.2919 3.3151s1.1662 3.229 1.1662 3.7349 1.1346 4.8351 2.5214 9.6206c2.3235 8.0179 2.8542 12.364 1.1788 9.6533zm-30.505-3.8239c-0.02038-1.65 0.18706-2.4461 0.46099-1.7691s0.29059 2.0271 0.03705 3-0.47766 0.4191-0.49804-1.2309zm30.724-15.749c-1.3304-3.9871-3.8888-9.3871-5.6854-12s-2.9216-4.7499-2.5-4.7488 2.2198 2.1386 3.996 4.75c3.2644 4.7995 8.8041 19.248 7.3798 19.248-0.42436 0-1.86-3.2622-3.1904-7.2493zm102.58 26.584 3-2.5931-3.75 2.0954c-2.0681 1.1555-3.75 1.6096-3.75 1.0124s-0.83609-0.8642-1.858-0.597-2.5969 0.0723-3.5-0.4331-1.642-0.6859-1.642-0.4012c0 0.823 5.3477 3.5012 7 3.5057 0.825 0.0022 2.85-1.1629 4.5-2.5891zm-13.5-2.7279c0-0.2162-0.69837-0.661-1.5519-0.9886-0.88992-0.3415-1.2913-0.1738-0.94098 0.393 0.58726 0.9502 2.4929 1.4055 2.4929 0.5956zm19.644-2.3594c0.18019-1.1808-0.00359-2.3477-0.40841-2.5933s-7.036-0.7049-14.736-1.0209c-11.257-0.462-13.51-0.3408-11.5 0.6183 1.375 0.6561 2.8185 1.6512 3.2078 2.2113s4.4393 1.103 9 1.2066l8.2922 0.1883-7.405-0.9173c-9.149-1.1334-10.995-2.4607-2.1983-1.5806 3.5182 0.352 8.1832 0.64 10.367 0.64 3.5144 0 3.9082 0.2361 3.432 2.0571-0.32122 1.2283-0.10296 1.9121 0.54178 1.6972 0.59384-0.198 1.2272-1.326 1.4074-2.5067zm5.8485 1.7638c0.35034-0.5668-0.05106-0.7345-0.94098-0.393-1.7324 0.6648-2.0494 1.3816-0.61096 1.3816 0.51754 0 1.2159-0.4449 1.5519-0.9886zm-2.3054-4.6945c-0.72188-0.2889-1.5844-0.2534-1.9167 0.0789s0.25834 0.5686 1.3125 0.5252c1.165-0.048 1.4019-0.2849 0.60417-0.6041zm19.812-4.8873c0-0.275-0.9-0.0183-2 0.5704-1.9355 1.0758-2.6728 2.211 0 1 1.1-0.5887 2-1.2954 2-1.5704zm-65-1.8944c0-0.2557-1.0125-0.9555-2.25-1.5552-2.1606-1.047-2.1729-1.0286-0.30887 0.4648 2.0403 1.6346 2.5589 1.8556 2.5589 1.0904zm79.188-10.218c-0.72188-0.2889-1.5844-0.2534-1.9167 0.0789s0.25834 0.5686 1.3125 0.5252c1.165-0.048 1.4019-0.2849 0.60417-0.6041zm-120.69-1.3169c-0.33992-0.55-1.154-0.9931-1.809-0.9847-0.71561 0.0092-0.59227 0.4022 0.30902 0.9847 1.9211 1.2415 2.2673 1.2415 1.5 0zm36.211-4.2235c3.0158-1.5366 4.9417-2.5536 6.1684-3.3947 1.8912-1.2967 6.2689-2.1752 6.2689-3.895 0-1.5803-4.347-2.4551-6.5704-4.0191-1.8737-1.318-5.185-3.1256-11.026-6.2574-7.3968-3.9657-14.092-7.2103-14.878-7.2103-0.8655 0-1.5893 0.3245-2.1305 0.8953-1.5849 1.2436-3.2016 1.8101-4.8299 2.9574-0.9818 0.1305-2.344 0.7044-4.201 1.6918-2.6669 1.418-6.1625 3.2575-7.7681 4.0877l-2.9192 1.5096 9.3375 5.7376c5.1356 3.1556 10.012 6.07 10.837 6.4764s3.525 1.8378 6 3.1811 5.1573 2.4471 5.9607 2.4527 5.1909-1.8902 9.75-4.2131zm83.087 3.3699c1.0402-0.6599 0.99917-1.0704-0.20704-2.0715s-1.9024-0.9697-3.541 0.178c-3.1361 2.1966 0.43005 3.9982 3.748 1.8935zm-125.8-2.5394c0-0.2162-0.69837-0.661-1.5519-0.9886-0.88992-0.3415-1.2913-0.1738-0.94098 0.393 0.58726 0.9502 2.4929 1.4055 2.4929 0.5956zm122.38-1.0908c2.1174-1.6033 1.5503-4.5162-0.87923-4.5162-1.2625 0-3.883 1.2951-7.3463 3.6308-0.19257 0.1299-0.05351 0.7161 0.30902 1.3026 0.93607 1.5146 5.6968 1.2637 7.9166-0.4172zm-6.6268-3.5088c5.0552-2.4424 5.4462-3.0205 3.6786-5.4378-1.2425-1.6993-1.589-1.7474-3.1613-0.4395-0.97124 0.8079-3.4223 2.3198-5.4469 3.3596-3.2988 1.6945-3.5065 2.0234-2 3.1687 2.1895 1.6646 2.1241 1.6707 6.9296-0.651zm-177.53-2.82c2.4288-1.413 4.3262-3.9759 3.5317-4.7704-0.16319-0.1632-2.2665 1.0262-4.674 2.6431-2.7158 1.824-5.7436 2.9666-7.9768 3.0102-2.9372 0.0573-3.2315 0.2304-1.5995 0.9406 2.4614 1.0712 7.0993 0.2822 10.719-1.8235zm176.41-3.8605c2.1609-1.4159 2.3047-1.827 1.0706-3.0611s-2.1068-1.0694-6.4973 1.2263c-6.4758 3.3861-7.9105 5.0092-5.5802 6.3133 1.7124 0.9583 4.3428-0.112 11.007-4.4785zm-181.31 1.5481c6.0147-3.0978 9.471-8.5365 7.6213-11.993-0.87041-1.6264-1.9125-1.9319-5.745-1.6845-6.9879-0.6156-12.574 6.0977-12.192 8.9994 0 1.5879 0.5625 3.5261 1.25 4.3069 1.515 1.7208 6.082 1.9077 9.0657 0.3709zm169.15-1.8353c0.97573-1.0782 2.058-1.9195 2.405-1.8696 1.1406 0.1641 7.1309-2.5933 7.1309-3.2824 0-0.3705-0.68033-0.9348-1.5118-1.2539-1.6883-0.6479-6.4882 1.2214-6.4882 2.5267 0 0.4617-0.7875 0.8464-1.75 0.8548-2.7395 0.024-4.6009 1.6278-3.9271 3.3838 0.81406 2.1214 1.9883 2.0194 4.1412-0.3594zm-3.6177-3.613c3.0098-1.5015 4.2389-3.4267 2.1876-3.4267-0.53134 0-2.5587 0.7595-4.5053 1.6877-2.4409 1.164-3.1497 1.935-2.2839 2.4847 0.6904 0.4383 1.2986 0.8038 1.3516 0.8123s1.5155-0.6927 3.25-1.558zm-2.3425-3.5336c2.4652-1.1587 4.2551-2.4741 3.9776-2.9231-0.38947-0.6302-8.0442 2.829-10.398 4.699-1.411 1.1208 2.6443-8e-4 6.4206-1.7759zm-5.7983-2.4782 3.7944-2.585-4 0.7475c-2.2 0.4112-4.5625 0.7495-5.25 0.7517-1.3297 0.0045-1.6961 1.8914-0.58333 3.0042 1.0976 1.0976 2.0614 0.7914 6.0389-1.9184zm16.294 1.5851c0-0.55-0.9-1-2-1s-2 0.45-2 1 0.9 1 2 1 2-0.45 2-1zm-145-11.122c0-0.8256 0.35489-0.8279 1.342-0.0086 1.4577 1.2097 2.658 0.5447 2.658-1.4727 0-0.8786-1.017-1.1054-3.2976-0.7354-1.9373 0.3144-4.8752-0.124-7.1221-1.0628-4.6965-1.9624-4.6574-1.9625-3.8992 0.0132 1.1186 2.9151 10.319 5.8274 10.319 3.2663zm7-2.4365c0-0.8575-0.45-1.2809-1-0.941-1.2939 0.7997-1.2939 2.5 0 2.5 0.55 0 1-0.7016 1-1.559zm53-5.6859c0-0.4436-1.35-0.1084-3 0.7449-3.8593 1.9957-3.8593 2.6506 0 1.1939 1.65-0.6228 3-1.4953 3-1.9388zm-38-3.7551c0-1.1-0.45-2-1-2s-1 0.9-1 2 0.45 2 1 2 1-0.9 1-2zm5 0c0-1.1111-0.66667-2-1.5-2s-1.5 0.8889-1.5 2 0.66667 2 1.5 2 1.5-0.8889 1.5-2zm3 0c0-1.1-0.45-2-1-2s-1 0.9-1 2 0.45 2 1 2 1-0.9 1-2zm5-1c0-1.1-0.45-2-1-2s-1 0.9-1 2 0.45 2 1 2 1-0.9 1-2zm-17.338-2.25c-0.27741-0.6875-0.50439-0.125-0.50439 1.25s0.22698 1.9375 0.50439 1.25 0.27741-1.8125 0-2.5zm19.942-0.4792c-0.33229-0.3323-0.56864 0.2583-0.52522 1.3125 0.04798 1.165 0.28494 1.4019 0.60416 0.6042 0.28887-0.7219 0.25335-1.5844-0.07894-1.9167zm-23.51-2.577c-0.79171-0.7918-1.0938-0.5323-1.0938 0.9395 0 2.6438 1.3984 4.047 1.8438 1.8502 0.18908-0.9328-0.14842-2.1882-0.75-2.7897zm-17.955 1.3394c3.0684-2.5562 1.7995-2.5761-2.365-0.037-1.9499 1.1889-2.6112 1.9978-1.635 2 0.90156 0.0021 2.7016-0.8813 4-1.963z"/>
 </g>
</svg>
