<?xml version="1.0" encoding="UTF-8"?>
<svg enable-background="new 0 0 1349.916 1680" version="1.1" viewBox="0 0 1349.916 1680" xmlns="http://www.w3.org/2000/svg">
 <path d="m548.15 40h42.494c-2.045 9.669-0.794 6.358-2.56 10.33-1.009 6.635-2.112 6.221-2.724 11.339-1.045 2.429-8.708 31.771-9.026 34.462 0 1e-3 -183.07 674.59-183.07 674.59 2.898 1.565 16.231 20.348 16.952 21.35 1.838 3.602 2.601 7.885 5.662 10.773 4.66 4.382 9.838 8.205 14.384 12.718 36.771 39.865 67.957 35.637 90.642 72.615 8.791 14.814 9.595 6.315 30.195 22.178 0 0 31.674 24.361 32.205 24.73 3.307 0.886 5.662 3.495 8.509 5.243 3.594 2.265 7.582 3.807 11.208 6.023 2.429 1.748 5.538 1.001 8.328 1.173 0.468 0.96 0.336 2.445 1.354 3.085 12.207 2.249-0.97 0.68 25.116 9.231 7.676-28.641 10.576-28.979 12.291-33.986-0.057-1.428-0.427-2.814-0.656-4.201 0.402-0.394 1.214-1.173 1.616-1.567 0.188-3.664-0.717-5.24 4.595-8.14 3.225-1.288 4.874-4.718 8.099-6.031 10.286-14.181 7.211-28.38 32.115-41.994 0.394-0.074 1.181-0.221 1.575-0.295 15.855-10.099 70.386-5.661 76.562 10.872 1.305 3.881 4.898 6.146 7.221 9.346 13.076 16.849 2.286 29.22 13.112 37.022 3.512 2.486 5.497 6.416 8.394 9.501 7.742 8.293 1.728 11.981-0.632 12.111-2.404 0.148-4.537 1.272-6.556 2.494 0.131 2.855 0.271 5.891-1.674 8.23 5.655 9.647-1.894 10.017 0.648 14.868 2.346 4.297-0.085 15.646-12.135 16.041-6.457-0.5-13.128-0.213-19.241-2.683-2.683-1.181-5.604-0.903-8.336-0.115-4.16 6.54-7.95 22.724-4.997 24.222 5.614 1.041 4.58-1.23 10.01 5.448 2.675-1.042 4.644-3.167 6.54-5.251 7.462-0.279 6.247 0.128 9.518 4.029 1.748-0.574 3.594-0.985 5.407-0.361 8.199 2.146 21.11-6.946 26.224-11.815 1.387-0.041 2.79-0.066 4.201-0.082 2.297-2.544 5.744-6.055 9.428-4.119 8.951-5.325 10.048-0.856 34.421-33.583 4.086-5.56 20.855-24.653 28.554-29.473 18.865-13.544 7.121-0.281 28.168-27.602 22.887-34.59 59.823-56.941 68.242-88.049 0.063-0.219 0.468-31.888 0.583-33.731 1.075-3.184 3.717-5.522 5.563-8.263 2.174-2.823 3.717-6.055 5.547-9.099-11.912-36.017-150.77-709.59-151.71-723.59h38.49c2.817 6.934 127.54 664.5 131.61 710.43 6.236-0.54 14.651 4.309 13.883 16.23 1.28 0.968 2.88 1.674 3.75 3.102 0.698 3.635 0.451 7.401 1.272 11.02 1.51 4.529 2.421 9.329 2.371 14.121 0.115 2.363-2.527 4.529-1.182 6.827 2.927 5.859 198.99 493.99 206.44 507.8 20.727-3.364-3.955-4.262 51.75-5.194 3.141-1.401 1.122-2.389 6.277 0.254 3.43 4.743-0.115 10.273-4.045 13.342-8e-3 1.116 0.016 2.24 0.066 3.389-1.157 1.288-2.396 2.494-3.684 3.635-0.853-0.025-1.682-0.025-2.494-8e-3 -2.084 2.232-4.997 3.676-6.4 6.498-1.182 2.535-4.299 2.511-6.671 2.601 0.837 1.165 1.666 2.355 2.503 3.561-0.016 0.402-0.066 1.19-0.082 1.584-3.118 2.215-6.761 3.405-10.593 3.052-4.433 3.443-16.037 6.944-21.366 13.834-0.435 0.025-1.305 0.074-1.731 0.099-6.794 4.496-14.58 7.376-20.964 12.464 0.207 1 25.026 159.83 22.326 166.92 1.71 0.478 11.901 55.689 9.78 67.528-0.369 17.327 0.028 14.499 1.674 24.164 5.128 2.142 2.749 8.583 2.174 12.751h-94.269c0.057-3.709 0.648-7.36 1.058-11.028 3.101-1.428 2.174-5.251 2.363-7.975 0.131-0.254 0.402-0.755 0.542-1.009-1.19-3.134 0.837-6.31 8e-3 -9.469-0.763-2.79 0.804-5.645-0.394-8.344-0.172-2.412-0.558-4.784-0.665-7.171 0.246-2.445 0.985-4.989-0.205-7.294-0.993-4.267 1.288-8.443 0.164-12.652-0.41-3.635-1.657-7.303-0.722-10.937-1.198-3.315-0.213-6.859-0.517-10.265 0.09-1.863-0.944-4.775 1.666-5.309-1.198-2.724 0.64-5.538-0.222-8.287-0.5-1.822-0.591-3.7 0.279-5.415-0.181-0.344-0.533-1.026-0.714-1.37-1.153-11.81 1.923-61.315 2.297-62.318-1.114-8.014 1.984-48.232 2.297-51.061-1.778-10.353 0.288-33.755 0.279-34.757-0.804-0.443-1.592-0.87-2.363-1.28-2.273-8e-3 -4.579-0.057-6.72-0.87-4.25-1.584-8.87-0.263-13.219-1.346-3.167-0.263-6.449-1.871-9.542-0.509-2.388 8e-3 -4.767 0.074-7.138 0.238-1.953 1.28-3.914 2.544-5.785 3.938-5.361 1.659-86.36 14.863-87.36 15.073-48.308 10.656-45.211-2.34-109.27-8.509-42.273-6.3 7.472 1.959-153.27 8.427-39.766 3.199-70.321 3.318-121.88-13.424-37.927-13.184-7.536-12.881-54.556-15.303-76.338 4.397-82.538-4.7-128.45 1.838-19.972 2.41-67.176 9.439-97.912-5.054-1-0.012-31.248-4.602-36.816-6.876-9.495-3.412-23.673-11.84-67.996-20.866-62.973-12.176-44.836-2.557-64.254-10.043-3.389 0.14-6.835-0.336-9.6-2.453-4.119-0.747-8.377-1.715-12.562-1.214 5.151 13.284-1.13 33.372-10.379 109.74-0.642 7.741-21.828 172.19-22.95 174.92-5.84 15.08-5.052 19.899-5.76 28.234h-87.391c3.225-5.465 5.612-11.413 7.221-17.551 1.682-6.433 5.21-12.193 6.884-18.626 1.223-3.955 1.6-8.172 3.463-11.897 5.615-11.202 10.631-25.961 11.848-37.243 1.356-22.891 32.983-183.34 33.928-204.88-3.897-0.689-7.77-1.961-10.855-4.505-19.593 13.953-23.131 6.541-32.451 11.824-4.784 2.943-22.054 6.02-20.332-5.941 0.295-2.937 2.544-5.021 4.833-6.58-3.18-5.105-1.685 0.261 0.197-15.262-0.345-0.41-1.026-1.239-1.37-1.649-0.879-7.914 3.475-7.658 7.237-8.599-1.428-0.903-3.143-1.584-3.988-3.134-2.289-3.151 0.944-7.442 4.283-8.025 4.537-0.829 9.28-1.108 13.432-3.315 3.011-0.911 6.392-1.058 8.952-3.052 11.497-8.849 11.099-11.208 14.31-11.717 3.523-0.348 14.423-5.709 18.043-6.556 2.453-0.263 4.981-0.386 7.138-1.715 0.755-0.107 1.502-0.189 2.256-0.254 23.942-14.607 28.949-10.889 33.28-10.962 0.514-0.459 40.563-99.6 42.601-103.44 0.212-1.218 61.363-152.37 66.355-161.64 1.342-6.327 64.018-156.46 84.874-198.91-3.996-7.35-3.07-7.165-0.673-12.283-0.369-2.158 0.033-4.291 0.648-6.351 0.837-0.78 1.666-1.567 2.503-2.33-0.164-2.503-0.46-5.087 0.41-7.491-2.297-1.707-2.667-4.464-1.707-7.024-1.121-4.948-0.723-5.273 2.609-9.034 2.544 0.812 4.554 2.626 6.441 4.455 1.813-0.295 3.561-0.919 5.161-1.83 0.862-9.244 8.151-37.396 8.435-42.921 0 0 154.04-629.98 164.92-670.39 1.879-3.028 1.633-6.712 2.486-10.068 0.261-0.273 0.778-0.823 1.041-1.102m-172.23 783.48c-1.151 0.315-4.504 11.7-4.71 12.751-0.162 0.296-16.342 43.138-16.41 43.545-1.657 2.816-12.459 33.007-16.156 41.083-0.049 0.394-0.156 1.173-0.213 1.567-0.468 0.804-0.944 1.616-1.411 2.437-0.068 1.621-51.968 134.46-52.537 135.47-0.049 0.394-0.156 1.19-0.205 1.584-0.468 0.804-0.927 1.616-1.378 2.445-0.295 1.461-0.919 2.823-1.608 4.152-0.418 3.561-3.192 6.244-3.709 9.805-3.053 5.946-29.003 71.397-30.868 73.937-0.025 0.427-0.09 1.28-0.115 1.707-0.525 0.755-1.05 1.526-1.575 2.306-0.033 0.402-0.107 1.214-0.139 1.616-1.038 1.933-50.626 118.24-51.766 121.97 7.855 0.564 11.393-4.356 18.24-4.972 2.937-0.263 5.596-1.822 8.583-1.805 5.191-2.004 68.851-5.447 78.843-0.821 31.552 1.806 39.31 41.748 153.05 7.177 39.817-12.103 74.861-26.435 87.755-29.568 5.64-1.37 13.846-0.207 18.939-2.246 4.947-1.98 3.825-7.655 5.972-12.655 2.429-2.363 4.398-5.079 5.982-8.057 1.887-3.66 5.899-5.153 8.878-7.696 0.41-0.057 1.223-0.181 1.633-0.246 2.051-0.935 3.897-2.24 5.694-3.594 0 0 0.278 0.171 14.474-7.024 1.764-1.584 2.256-4.111 3.84-5.85 1.912-2.043 3.84-4.062 5.842-6.014-0.09-2.191-0.082-4.373 0.107-6.539 8.912-4.286 4.979 0.405 14.49-32.845 4.837-19.753 0.726-24.417-0.107-30.293-2.894-17.958 0.104-10.137-6.367-29.621-1.427-1.552-6.645-9.527-7.048-10.355-1.451-9.687-0.949-2.523-6.154-17.51-4.259-10.252-5.365-22.418-8.312-31.926-2.027-1.526-4.094-3.307-4.217-6.039-1.674-2.191-3.315-4.431-4.193-7.073-3.832-5.112-10.724-6.515-14.843-11.323-1.452-1.625-2.1-3.832-3.717-5.292-11.268-9.658-14.732-10.249-15.68-13.85-22.234-19.517-60.948-68.734-60.948-68.734-2.519-2.65-6.261-3.2-9.518-4.447-6.904-2.529-6.947-5.714-23.672-15.655-32.595-21.854-43.232-61.127-70.753-77.153-4.884-0.677-9.537-2.269-13.992-4.345m632.93 7.565c-2.05 5.752 0.626 6.663-7.992 15.696-6.435 6.729-6.988 10.782-20.472 37.809-16.566 34.265-34.975 43.492-41.173 49.871-1.789 1.477-3.75 2.831-4.956 4.874-1.838 3.208-6.195 3.504-8.14 6.589 0 0-22.839 42.718-49.575 77.661-3.692 5.005-8.312 9.247-12.029 14.228 0.459 2.864-0.632 5.571-1.822 8.115-10.4 5.113-4.583-2.201-22.252 14.638-4.242 3.947-7.811 8.542-12.217 12.308-5.202 5.03-11.52 10.084-12.332 17.822-16.847 31.828-16.98 53.191-23.836 68.455-2.104 4.77-25.466 96.183-26.984 99.168-3.153 6.206-8.04 7.212-4.762 27.248 1.584 2.068 4.291-0.542 6.121-1.132 2.207-1.583 4.045 1.214 6.195 1.461 2.568 0.632 5.383-0.025 7.811 1.165 7.524 0.5 14.999 2.544 22.572 1.789 1.157 0.025 2.002 0.919 3.004 1.444 13.711 0.257 27.232 4.086 40.29 7.955 46.15 13.675 49.382 8.318 102.7 24.46 10.252 3.104 21.239 8.878 31.741 10.515 15.454 2.409 61.534-2.904 73.967-1.01 2.651 0.404 47.119 1.034 88.899-5.81 19.827-3.248 22.522-12.547 33.07-12.234 2.995-1.058 5.752-2.708 8.73-3.815 4.258-0.615 8.952 0.96 12.751-1.797-3.436-8.48-13.539-28.817-14.753-32.377-14.52-31.28-75.321-182.2-75.463-183.2-3.128-6.131-45.877-123.35-45.957-123.71-0.728-1.396-4.013-9.562-4.939-13.079-1.182-1.968-41.867-113.05-46.006-126.82-1.254-0.837-1.82 0.796-2.189 1.715m-343.85 92.784c-0.049 2.035-0.279 4.103-1.674 5.719 0.246 2.56 0.96 5.054 1.116 7.631 0.36 1 2.973 7.816 3.274 9.953 0.451 0.771 0.911 1.551 1.378 2.347 0.066 0.41 0.197 1.247 0.254 1.657 4.934 11.548-0.126 7.45 8.057 21.998-0.222 0.418-0.673 1.264-0.894 1.69 0.304 0.542 0.894 1.633 1.19 2.183 1.715 8e-3 3.43 8e-3 5.153 8e-3 0.361 0.443 1.091 1.337 1.461 1.789 1.149-1.091 2.568-1.748 4.029-2.322 1.239-1.411 1.756-3.339 2.864-4.857 0.525-2.801 0.563-1.638 1.124-4.045-0.73-0.632-1.452-1.255-2.166-1.871-0.903-0.18-1.764-0.468-2.576-0.853-0.427-0.041-1.272-0.131-1.698-0.172-0.353-0.377-1.058-1.132-1.411-1.51-0.911-0.033-1.789-0.164-2.634-0.394-3.348-2.814-7.097-5.276-9.313-9.173-0.041-0.394-0.123-1.165-0.164-1.551-3.858-5.257-5.169-17.948-3.118-22.745 2.624-7.1 3.509-4.908 0.894-9.863-2.004 1-4.318 2.141-5.146 4.381z" fill="#0D0C0E"/>
</svg>
