<?xml version='1.0' encoding='utf-8'?>
<svg xmlns="http://www.w3.org/2000/svg" version="1.1" viewBox="0 0 720 1358"> <g id="layer1"> <g> <g style="fill:rgb(255,255,255); fill-opacity:1.0; stroke-linejoin: miter"> <path d="M359.75833,511.58405C356.07755,512.9598,350.5378,516.3431,348.307,518.57385C346.29935,520.58154,345.85318,521.69696,346.29935,523.7418C346.5224,524.7085,346.6711,526.6046,346.63394,527.9431C346.5596,529.28156,346.74548,530.7688,346.96854,531.2149C347.67496,532.479,347.52625,533.37134,346.11343,536.1598C344.7006,538.9483,344.73776,539.76624,346.26215,540.1008C348.41855,540.58417,348.53012,540.6585,348.53012,541.73676C348.53012,542.3316,348.716,542.9265,348.9019,543.038C349.12497,543.14954,349.2737,543.59576,349.2737,544.0419C349.2737,544.45087,349.6083,545.19446,350.01727,545.71497C350.42627,546.2355,350.76086,547.165,350.76086,547.72266C350.76086,549.09827,351.98782,550.3624,353.10318,550.1022C359.31216,548.68933,359.72116,548.7637,361.91476,550.99445C362.88144,551.9983,364.034,552.9278,364.48013,553.07654C365.40964,553.37396,365.4468,554.006,364.74042,557.3522C363.73654,562.0368,362.24936,565.6804,359.684,569.8074C358.27115,572.03815,356.8583,574.5291,356.5237,575.3099C356.2263,576.09076,355.8173,576.61127,355.6314,576.5369C355.4455,576.4253,354.3301,575.124,353.14035,573.674C351.05832,571.10864,350.98398,570.9599,350.98398,568.8035C350.94678,566.5356,350.94678,566.5356,349.64548,566.08936C348.307,565.6432,346.5596,563.26373,347.15445,562.706C347.6378,562.22266,349.45956,563.115,349.34805,563.747C349.1993,564.63934,349.64548,564.788,354.51602,565.4945L358.9404,566.16376L359.12628,565.38293C359.20065,564.93677,359.34937,563.8586,359.38654,562.96625C359.49808,561.3304,359.4609,561.2932,358.1968,561.03296C357.4904,560.8842,355.37115,560.62396,353.51218,560.4753C350.27756,560.25214,350.1288,560.25214,349.90573,561.03296C349.75702,561.6278,349.4224,561.8137,348.45572,561.8137C346.78265,561.8137,346.18777,561.25604,345.36984,559.06244C344.73776,557.3522,344.73776,557.2035,345.33264,556.1996C346.03903,554.9727,345.81598,552.7047,344.92368,552.2214C344.44034,551.92395,344.4775,551.70087,344.99802,550.43677C345.36984,549.6188,345.70444,547.53674,345.81598,545.5663C346.0019,542.5175,345.92752,542.07135,345.2211,541.0675C344.81213,540.4355,344.44034,539.5803,344.44034,539.13416C344.44034,538.46497,344.29163,538.3534,343.54803,538.5393C342.6929,538.7623,342.65573,538.688,342.507,536.42004C342.43265,535.15594,342.507,533.9662,342.65573,533.7431C342.8044,533.55725,342.95316,532.5906,342.95316,531.6239C342.95316,529.91364,342.916,529.8393,341.91214,529.8393C341.31726,529.8393,340.72238,529.5418,340.46213,529.17004C340.1275,528.57513,339.68137,528.5008,337.85953,528.64954C336.66983,528.7239,335.07108,529.1329,334.32748,529.50464C333.0262,530.1739,332.91464,530.3226,332.91464,531.88416C332.91464,533.33417,332.76596,533.6316,331.948,534.00336C331.1672,534.3752,330.79544,534.338,329.7544,533.7803C328.82492,533.25977,328.37875,533.1854,327.78387,533.52C327.3749,533.7431,326.55698,533.929,326.0364,533.929C325.5159,533.929,324.73514,534.1149,324.32617,534.3008C323.84286,534.56104,323.61978,534.56104,323.61978,534.3008C323.61978,533.66876,321.12872,533.8547,320.86847,534.4867C320.71976,534.97003,320.49667,535.00726,319.90182,534.67267C319.30692,534.37524,319.0095,534.4496,318.4146,535.0445C317.8941,535.565,317.48514,535.7137,317.1877,535.4906C316.92743,535.30475,316.18384,535.0445,315.47745,534.89575L314.21335,534.67267L314.51077,538.465C314.9569,545.1201,315.10565,545.6406,316.29538,545.7522C316.89026,545.8266,317.55948,545.67786,317.8569,545.4548C318.19156,545.1945,318.4146,545.15735,318.60052,545.4176C318.71207,545.6406,319.45566,545.78937,320.19925,545.78937C320.94284,545.7893,322.0954,545.86365,322.72745,546.0124C323.5454,546.1983,323.99155,546.0868,324.32617,545.6778C324.92105,544.9714,327.598,544.8598,328.97363,545.4919C329.53134,545.75214,329.94028,546.34705,330.08902,547.0906C330.20053,547.72266,330.8326,549.58167,331.46466,551.2175C332.0967,552.85345,332.58005,554.3406,332.58005,554.5637C332.54288,554.7496,332.4313,555.71625,332.3198,556.683C332.13388,558.02136,332.24545,558.6906,332.80313,559.4714C333.1749,560.0663,333.65826,560.84705,333.88132,561.25604C334.1044,561.665,334.73648,562.0368,335.29416,562.11115C336.03775,562.22266,336.26083,562.44574,336.26083,563.15216C336.26083,563.67267,336.66983,564.4535,337.19034,564.89966C337.71085,565.34576,338.23135,566.2381,338.3429,566.90735L338.56595,568.0971L336.59543,568.2086C334.848,568.3202,334.58774,568.4317,334.47623,569.1381C334.40186,569.6586,334.55057,569.9932,334.848,569.9932C335.21982,569.9932,335.21982,570.0676,334.88516,570.2907C334.6621,570.4394,334.36465,571.03424,334.25314,571.592C334.1044,572.4471,334.25314,572.70734,334.99673,572.9676C336.37238,573.4881,336.1493,574.78937,334.40186,576.4997C333.28647,577.61505,332.91464,578.24713,332.91464,579.13947C332.91464,579.8458,332.6916,580.40356,332.4313,580.47797C332.13388,580.55225,331.1672,581.4446,330.20053,582.52277C328.97363,583.89844,328.56464,584.6792,328.71338,585.2369C328.82492,585.68304,328.52747,586.53815,327.9326,587.4677C327.41208,588.2856,326.9659,589.21515,326.9659,589.54974C326.9659,589.9215,326.4826,591.1856,325.88773,592.44977C325.29285,593.7138,323.69412,597.13434,322.31845,600.1087C320.94284,603.08307,318.15436,608.9947,316.0723,613.30743C314.02744,617.58307,311.72232,622.4537,310.97867,624.08954C306.2941,634.0909,303.02225,640.4858,302.2415,641.2293C301.72098,641.7127,301.312,642.3447,301.312,642.6794C301.312,642.9768,301.05173,643.23706,300.7543,643.23706C299.862,643.23706,299.1184,645.35626,299.52737,646.5461C299.93637,647.5871,300.08508,647.2896,290.1581,667.58966C287.853,672.27435,284.3953,679.4128,282.46194,683.3538C280.5286,687.3321,278.55807,691.0872,278.03757,691.68207C277.55423,692.2769,277.14526,692.94617,277.14526,693.2436C277.14526,693.50385,276.92218,693.9128,276.62476,694.1359C276.3273,694.3962,275.95554,695.1026,275.84396,695.7347C275.5837,696.8128,274.7286,698.7834,271.7542,705.14105C270.97345,706.777,269.8209,709.268,269.15164,710.718C268.4824,712.1308,266.73495,715.8116,265.28494,718.8232C263.83496,721.8719,262.64523,724.4001,262.64523,724.4745C262.64523,724.51166,260.89777,728.19244,258.74136,732.654C256.58493,737.07837,254.8375,740.75916,254.8375,740.8335C254.83751,740.9079,253.16443,744.4028,251.11954,748.64124C249.07468,752.8797,247.4016,756.48615,247.4016,756.672C247.4016,756.8579,246.99261,757.3784,246.50928,757.7874C245.98877,758.2336,245.39389,759.0887,245.13364,759.72076C244.68747,760.72455,244.72467,760.91046,245.5426,761.54254C246.02594,761.9515,246.8439,762.21173,247.36441,762.1374C248.14517,762.06305,248.44263,761.6912,248.8516,760.3528C249.14903,759.4233,250.00415,757.2669,250.78494,755.5195C252.38365,751.9502,252.8298,750.9835,273.87344,707.186C275.32346,704.2116,276.77347,701.1257,277.14526,700.27057C277.51706,699.4154,278.59528,697.89105,279.52475,696.85004C280.45425,695.7718,281.38373,694.2846,281.6068,693.4667C281.8299,692.64874,282.98245,689.9718,284.20938,687.4808C285.4363,685.0269,286.44016,682.9449,286.44016,682.8705C286.44016,682.79614,288.3735,678.7436,290.71582,673.9102C293.05814,669.0397,294.9915,665.02435,294.9915,664.9871C294.9915,664.2435,303.39407,647.77295,304.17484,646.9922C304.7325,646.4345,305.40176,645.2076,305.66202,644.2781C306.1082,642.6794,307.2979,640.0396,314.13895,625.94855C315.7377,622.67676,318.60052,616.72797,320.53387,612.7498C322.4672,608.77155,325.14413,603.1575,326.51978,600.2946C330.6839,591.6318,330.8326,591.3715,331.5762,591.48303C332.5057,591.669,332.91464,590.9625,332.91464,589.25226C332.91464,588.5087,333.10056,587.4305,333.3608,586.83563C333.5839,586.2779,333.80698,585.45996,333.80698,585.05096C333.84415,584.49335,334.1044,584.30743,334.95956,584.30743L336.07492,584.3074L335.92624,614.1254L335.7775,643.98065L337.4506,643.98065L339.12366,643.98065L339.34674,638.887C339.49545,636.0986,339.607,626.6178,339.607,617.8062C339.607,602.04205,339.86725,592.301,340.31342,592.301C340.42496,592.301,341.0198,594.7548,341.61472,597.8036C342.20956,600.8151,344.25443,611.2254,346.18777,620.9293C348.12112,630.6332,349.75702,639.6678,349.86856,641.0063C349.9801,642.4191,350.3519,643.9435,350.76086,644.61273C351.83908,646.4345,352.025,648.1076,351.35574,650.3012C350.5006,653.164,350.57498,656.6589,351.5045,658.1833C351.91342,658.8525,352.24808,659.8564,352.24808,660.414C352.24808,661.5666,352.65704,661.7525,353.36343,660.8974C354.03268,660.0794,354.3301,660.45123,354.81345,662.8307C358.1224,679.52435,358.97757,684.3205,359.16348,687.2577C359.275,688.9308,359.57242,690.3808,359.83267,690.6038C361.0968,691.71924,361.4686,693.0577,363.7737,705.5129C364.14554,707.5578,365.96732,717.07574,367.82632,726.70526C369.68527,736.3348,371.20966,745.0347,371.20966,746.07587C371.20966,748.3438,372.10196,749.422,373.6263,749.0502C374.44427,748.8271,374.55582,748.60406,374.55582,747.30273C374.55582,746.4476,374.33273,745.3322,374.0353,744.8117C373.73788,744.25397,372.65967,739.4578,371.61862,734.1412C367.93784,715.0308,364.85196,699.118,364.1827,696.03204C363.4763,692.6859,363.51346,691.9423,364.36862,691.9423C365.1122,691.9423,366.1904,690.0833,366.0789,689.0052C365.93015,687.59235,364.81476,685.62177,364.14554,685.62177C362.84424,685.58466,362.54678,684.76666,360.9481,677.03326C360.0558,672.6462,359.31216,668.8538,359.31216,668.59357C359.31216,668.3705,359.64682,668.1474,360.0558,668.1474C360.65063,668.1474,360.76218,667.9615,360.6135,667.29224C359.94424,664.2807,359.72116,663.0538,359.72116,662.57043C359.75833,662.273,359.9814,662.8307,360.24167,663.8717C360.50192,664.87555,361.2455,667.66406,361.91476,670.0064C362.54678,672.3487,363.73654,676.773,364.5545,679.85895C365.33527,682.9077,366.67374,688.0013,367.49167,691.1244C369.01608,697.03595,369.23914,698.2629,368.64426,698.2629C368.16092,698.2629,367.78912,699.527,368.08658,700.27057C368.1981,700.60516,368.53275,700.8654,368.83017,700.8654C369.4994,700.8654,369.4994,701.2,368.7558,702.018C368.1981,702.6501,368.1981,702.76166,368.7558,703.6539C369.1276,704.2116,369.72247,704.58344,370.28018,704.58344C371.02374,704.58344,371.24686,704.8437,371.58145,706.14496C371.8417,707.03723,372.3994,709.1565,372.88272,710.90393C373.36606,712.6513,374.10965,715.3283,374.51865,716.85266C374.8904,718.377,376.452,724.0655,377.902,729.4937C383.702,750.9091,383.44174,749.90533,382.9584,750.2399C382.28918,750.64886,376.86093,752.8797,373.44043,754.1066C368.56992,755.85406,367.52887,756.48615,366.89682,758.04767C366.5994,758.7912,366.15323,759.8322,365.89297,760.3156C365.52118,761.0964,365.59555,761.2823,366.52502,762.0258L367.60324,762.881L365.89297,763.10406C364.9263,763.21564,363.36475,763.43866,362.3981,763.55023C361.05963,763.6989,360.79935,763.84766,361.2455,764.1079C362.47244,764.77716,369.3135,765.149,378.16226,765.00024L387.19684,764.8515L387.41992,765.85535C387.5315,766.413,387.94043,767.9746,388.34943,769.3502C388.72125,770.68866,389.05585,772.28735,389.05585,772.8822C389.05585,775.00146,389.42767,775.5963,390.72894,775.5963C392.47638,775.5963,393.25714,774.5925,392.73663,772.9566C392.47638,772.2502,392.14172,771.4694,391.9187,771.20917C391.47253,770.6515,390.13403,765.1861,390.35712,764.81433C390.43152,764.6656,394.14948,764.44257,398.61102,764.2938C409.2444,763.95917,409.0213,764.03357,409.9508,761.87714C410.58282,760.3528,410.65723,759.4976,410.54565,753.6232L410.43414,747.07965L409.28156,745.7784C408.2777,744.6258,408.0918,744.1053,407.8687,741.4655C407.49695,737.41296,407.90588,731.1296,408.94696,724.66034C409.4303,721.686,410.17383,715.9975,410.65723,712.01935C411.10333,708.0411,411.5495,704.69495,411.62384,704.62054C411.8841,704.28595,417.0149,709.6026,418.94824,712.20514C420.02643,713.618,421.95978,715.84875,423.22388,717.1501C424.93414,718.86035,425.938,720.31036,427.01624,722.65265C429.4701,727.89496,436.57135,736.9668,440.10345,739.34625C442.22266,740.7591,443.00348,740.945,443.70984,740.0899C444.45343,739.1976,445.34576,739.3835,445.01117,740.35016C444.41626,742.06036,445.01117,748.78986,445.79193,749.08734C446.38678,749.31036,446.53552,751.05786,445.9406,751.05786C445.75476,751.05786,445.3086,751.6527,444.97394,752.3963C444.63934,753.13995,443.48682,754.3668,442.44574,755.1104C439.62012,757.19244,439.5086,757.4156,439.88037,759.68353C440.1778,761.6169,440.21497,761.65405,441.59064,761.76556C444.00732,761.98865,449.77014,759.7207,453.74835,757.0066C458.9535,753.4373,475.3125,738.15656,475.3125,736.8552C475.3125,735.3309,471.1856,730.64624,468.69458,729.345C467.17023,728.56415,464.04712,728.19244,463.08044,728.71295C462.5227,729.04755,462.11377,729.04755,461.51892,728.75006C460.84967,728.3783,460.77527,728.11804,460.9984,726.3706C461.18427,725.1065,461.10992,724.0655,460.84967,723.5821C460.58942,723.136,458.024,721.20264,455.08685,719.2693C449.43555,715.5142,447.1676,713.5064,444.45343,709.9372C442.96625,707.96674,438.28162,702.5385,435.9765,700.1218C435.49316,699.6385,434.1919,697.8167,433.0393,696.1436C431.51495,693.83844,430.43677,692.68585,428.7265,691.49615C427.01624,690.3064,426.16107,689.4141,425.4547,687.9641C424.89697,686.92303,423.85596,685.5102,423.11237,684.87823C422.2572,684.09735,421.66235,683.1679,421.4021,682.16406C421.17902,681.3089,420.6585,679.71027,420.21234,678.5948C419.46875,676.69867,419.46875,676.4012,419.91492,673.57556C420.17517,671.9025,420.39825,669.48584,420.36108,668.1845C420.3239,666.623,420.4726,665.5076,420.8072,664.98706C421.10468,664.5037,421.2906,663.83453,421.17902,663.4627C421.0675,663.0538,421.4021,661.82684,421.9226,660.7114C422.77777,658.8525,425.15723,651.7883,425.64056,649.55756C425.75214,649.03705,426.42133,648.2191,427.12775,647.69855C429.13544,646.21136,430.58545,643.7575,431.2547,640.5229C431.62646,638.92426,431.81238,636.99084,431.70087,636.24725C431.55212,635.54083,431.6637,633.75616,431.92395,632.34344C432.3329,629.8896,432.29572,629.62933,431.29187,626.7293C430.6598,624.9819,430.21362,623.0857,430.28802,622.2305C430.3252,621.0036,429.99054,620.1485,428.42902,617.58307C427.388,615.83563,426.34692,613.82794,426.16107,613.1215C425.97516,612.41516,424.74823,609.62665,423.44696,606.98694C420.5841,601.11255,419.9521,599.4766,418.24182,593.04456C416.4944,586.53815,415.37897,583.2292,413.44562,579.1023C412.5905,577.2433,411.06616,573.89716,410.06232,571.6663C405.34045,561.2189,401.13916,554.006,397.4212,549.9906C393.33148,545.6034,387.75452,541.55084,383.36737,539.8406C382.32635,539.4316,381.09943,538.7623,380.69046,538.42773C380.28146,538.05597,379.46353,537.4983,378.83145,537.23804L377.7161,536.71747L377.8648,528.6867C378.01352,518.72253,377.902,518.3136,373.73788,515.22766C369.57376,512.1418,367.38016,511.1751,364.33145,510.98926C362.3981,510.87762,361.20834,511.06354,359.75833,511.58405 Z M369.94553,585.1253C369.38785,586.9843,367.45453,597.50616,367.45453,598.80743C367.45453,599.6254,367.60324,601.41,367.82632,602.7485C368.1981,604.97925,368.16092,605.38824,367.343,607.43317C366.26477,609.99854,364.29425,616.6536,362.47244,623.6806C361.76602,626.3947,360.5391,630.7447,359.684,633.3473C358.86603,635.9499,358.1968,638.1806,358.1968,638.2922C358.1968,638.44086,358.04807,638.40375,357.86215,638.21783C357.56473,637.88324,356.0032,632.45496,353.73526,623.7178C353.36343,622.26776,352.025,617.21136,350.76086,612.45233C349.49677,607.6562,348.5673,603.6408,348.716,603.52924C348.82755,603.4177,349.16214,603.6408,349.4224,604.04974C351.16983,606.42926,350.83524,606.3921,353.14035,604.6075C354.29294,603.71515,355.22244,602.97156,355.22244,602.9344C355.22244,602.9344,354.62753,601.4843,353.95834,599.73694C352.6942,596.61383,352.58267,595.83307,353.4378,596.6882C355.33395,598.58435,360.65063,594.90356,367.1199,587.319C369.4994,584.53046,370.31735,583.86127,369.94553,585.1253 Z M384.48273,598.919C385.4494,599.6254,385.89557,600.4433,386.63916,602.86C387.15967,604.4959,387.90326,606.31775,388.27502,606.83826C388.68402,607.35876,389.4276,609.10614,389.91095,610.74207C390.43146,612.3408,391.28662,614.83185,391.80713,616.2447C392.32764,617.6575,392.7738,619.3306,392.7738,619.9998C392.7738,620.669,393.03406,621.41266,393.36865,621.6729C393.81482,622.08185,393.88916,622.60236,393.66608,624.2383C393.55457,625.3908,393.2199,626.5434,392.99683,626.8409C392.7738,627.1383,392.66223,628.29083,392.69946,629.51776C392.81097,631.3768,392.6623,632.046,391.3238,634.7601C389.1302,639.296,388.83276,640.8204,389.61353,643.4973C390.1712,645.3935,390.2456,647.54987,390.20844,661.34357C390.1712,669.9692,389.98535,677.9256,389.76227,679.00385C388.9071,683.83716,388.9071,685.659,389.94818,688.3731L390.91486,690.9385L389.98535,692.5372L389.01868,694.17316L389.6507,698.8949L390.2456,703.6539L389.1302,706.5167C386.63916,712.7257,385.00327,721.8347,384.0366,735.33093C383.8879,737.2271,383.62766,738.78864,383.4789,738.78864C383.29303,738.78864,382.92123,737.7476,382.6238,736.48346C382.32635,735.1822,381.2853,731.2784,380.31866,727.8206C379.38916,724.32574,378.01352,719.3065,377.3071,716.66675C376.60068,713.9898,375.55966,710.04877,374.9648,707.8924C373.88657,703.9141,373.92377,703.0962,375.18787,703.0962C376.26608,703.0962,375.55966,699.89874,374.4071,699.6014C373.14297,699.3039,372.54813,697.4449,368.97888,683.4654C367.19424,676.3641,364.9263,667.4038,363.92245,663.5372C362.43527,657.7371,362.2122,656.473,362.65836,656.3243C362.95578,656.21277,363.6622,655.655,364.21988,655.09735C365.48398,653.8704,365.55838,652.49475,364.5173,649.55756C364.10837,648.4422,363.8109,646.5832,363.7737,645.43066C363.7737,643.5345,363.95963,643.0512,366.22757,639.296C367.56607,637.06525,369.23914,634.38837,369.90836,633.38446C372.99426,628.6998,376.4148,620.40875,377.7161,614.4229C378.0879,612.7869,378.68277,611.03955,379.05453,610.5562C379.5007,609.99854,379.76096,609.06903,379.76096,607.9537C379.76096,606.3921,381.02505,600.9638,381.95456,598.51C382.40073,597.3946,382.47507,597.3946,384.48273,598.919 Z M387.19684,743.9937C387.49432,744.14246,387.7174,744.5886,387.643,744.96045C387.45715,746.113,386.41608,748.8271,386.11865,748.8271C385.96997,748.8271,385.56097,747.7489,385.22632,746.4476C384.89172,745.10913,384.48273,743.80786,384.37122,743.4732C384.1853,742.9899,384.33405,742.9899,385.41223,743.3245C386.08148,743.5476,386.8994,743.84503,387.19684,743.9937 Z"/> </g> </g> <g style="fill:rgb(0,0,0); fill-opacity:1.0; stroke-linejoin: miter"> <path d="M330.83078,528.4499L336.62457,527.7079L342.4184,526.9659Q343.40402,534.65686,344.38968,542.3479Q338.596,543.0909,332.80234,543.8339L330.83078,528.4499"/> </g> <g style="fill:rgb(0,0,0); fill-opacity:1.0; stroke-linejoin: miter"> <path d="M313.13882,534.33673L323.09946,532.59393L333.0601,530.85114Q334.09595,536.7696,335.1318,542.6881Q325.17136,544.4319,315.21088,546.17566Q314.17487,540.25616,313.13882,534.33673"/> </g> <g style="fill:rgb(0,0,0); fill-opacity:1.0; stroke-linejoin: miter"> <path d="M318.1099,509.23706L318.10992,509.2371L318.10992,509.23712L318.10992,509.2371L318.1099,509.23706L318.10992,509.2371L318.10992,509.23712Q318.10992,509.2371,318.1099,509.23706"/> </g> <g style="fill:rgb(0,0,0); fill-opacity:1.0; stroke-linejoin: miter"> <path d="M309.57794,536.7457L313.85724,535.9874L318.13654,535.2291Q318.89523,539.50775,319.65393,543.7863Q315.3748,544.5456,311.09564,545.3049Q310.3368,541.0253,309.57794,536.7457"/> </g> <g style="fill:rgb(0,0,0); fill-opacity:1.0; stroke-linejoin: miter"> <path d="M314.6776,510.40314L314.6776,510.40317L314.67764,510.4032L314.6776,510.40317L314.6776,510.40314L314.6776,510.40317L314.67764,510.4032Q314.6776,510.40317,314.6776,510.40314"/> </g> <g style="fill:rgb(0,0,0); fill-opacity:1.0; stroke-linejoin: miter"> <path d="M368.8014,537.24335L370.98837,535.78796Q375.5751,537.64667,379.76382,538.9023Q383.11868,539.743,383.65405,539.7056Q384.86484,539.84314,385.9282,539.75726Q386.99704,539.66736,387.86716,539.32574L388.68948,538.9293Q389.4631,538.4741,389.9976,537.8365Q390.53207,537.19885,390.7832,536.4317L390.95242,535.6455Q391.0453,534.8335,390.78848,533.97144Q390.53165,533.10944,389.88092,532.25024L389.02774,531.3172L387.97696,530.4637Q386.8448,529.6547,385.3362,528.8965Q380.0562,526.2428,367.24243,522.6825L368.8014,537.24335"/> </g> </g> </svg>