<?xml version="1.0" encoding="UTF-8"?>
<svg viewBox="0 0 312 521" xmlns="http://www.w3.org/2000/svg">
 <g transform="translate(-42,-41)" fill="#030000" fill-rule="evenodd" stroke="#000">
  <path d="m251.85 119.04c7.8494 10.448-9.8081 16.756-18.171 30.552-2.8478 12.238-2.2068 36.872 14.191 53.801 32.196 26.815 37.423 29.029 43.556 46.292 9.1706 26.467 0.65944 51.888-4.6756 74.374l-5.5972 35.262c5.1548 36.568 13.232 73.136 2.2389 109.7 0 0-9.4099 23.854-9.5152 26.866-0.11711 3.3518 11.693 27.229 11.194 34.143-5.9293 6.2455-8.1134 9.1959-35.444 7.297-15.498-1.0768-27.841 11.847-40.117 15.651-9.6896 1.4299-42.85 7.7101-103.55-6.7166l-58.21-20.15c22.987-4.0435 50.354-22.613 83.364-59.89 26.181-30.632 45.976-58.47 50.374-109.14 1.7196-14.81 16.408-42.725 26.9-67.166 3.5697-13.91 10.435-44.58-12.873-91.793l-23.474-35.754c-3.3867-5.4106-0.40205-12.008 1.0855-17.419-10.827 1.4608-14.088-3.888-20.15-6.7166 2.7819-7.1914 4.7376-14.796 15.672-17.911 0.59823 0 15.85-1.3619 15.05 0.98945-2.3243 23.064-2.9846 36.576 17.194 49.016 10.612-1.6836-1.6486-21.958 22.89-24.573 11.985-1.277 1.2234-20.591 8.673-27.672 2.3946-2.0532 9.3768-4.8689 19.392 0.9555z"/>
  <path d="m339.63 202.75c-2.0063-0.04136-13.779 2.7058-14.25 7.25l25-4.75-2.5 1-21 5.25 21.25-3.25-4.75 1.75-18.75 4.5 20.75-3c-10.763 5.318-17.793 2.858-29.25 11.75-1.7866 3.9911 9.2745 6.2381 18 6.25-7.75 0.48154-15 2.4364-22.75-0.25-18.072-4.537-30.268-13.971-44.75-21.5 4.5726-3.2396 5.0167-7.069 6.5-10.75-0.48932 0.73398 0.10284-8.2876 0.45711-5 0.29191 2.7089 26.959 29.784 34.543 28 8.1952-1.1503 10.089-5.9016 14-9.5 5.1273-3.3662 4.0815-6.2915 17.5-10.25 2.0076 0.60857 1.9267 0.57998 0 2.5z"/>
  <path d="m135.38 154-13-21c-10.703-1.5748-21.126-4.0789-33.75 0.75l-13.75 4.75 17-3-11.75 13.25 13.25-11.25-8.5 17.5 8-10.25-3 13.5 7-13.5c0.49805-2.3333 6.2372-5.9167 9.25-6.75 5.3441 2.2715 8.6807 1.278 12.75 1l0.25 22 16.25-7z"/>
  <path d="m250.63 78.5c-6.1492 9.9559-17.882 2.044-27 2.5l7 8.5c-2.9073-0.61046-5.2368 0.99595-10.75-1.5-4.7759-2.2667-3.7465-2.0207-6.75-1.5v3.5c-2.3489 1.9694-11.157 2.045-17.384 0.17678l-0.61612 23.323s-5 5.5-3.5 2.5 4.1464-29.5 4.1464-29.5c-2.6101-8.8333-6.5314-17.667-5.6464-26.5 3.6701-28.903 46.547-8.7278 51-5.5 3.69 3.1337 11.736 12.218 9.5 24z"/>
 </g>
</svg>
